<?xml version="1.0" encoding="utf-8"?>
<!-- Generator: Adobe Illustrator 21.0.0, SVG Export Plug-In . SVG Version: 6.00 Build 0)  -->
<svg version="1.1" id="Layer_1" xmlns="http://www.w3.org/2000/svg" xmlns:xlink="http://www.w3.org/1999/xlink" x="0px" y="0px"
	 viewBox="0 0 1225.7 1417.3" style="enable-background:new 0 0 1225.7 1417.3;" xml:space="preserve">
<g>
	<path d="M324.9,0h-298C12.1,0,0,12.1,0,26.9v1363.4c0,14.9,12.1,26.9,26.9,26.9h298c14.9,0,26.9-12.1,26.9-26.9V26.9
		C351.8,12.1,339.8,0,324.9,0z M331.8,1390.4c0,3.8-3.1,6.9-6.9,6.9h-298c-3.8,0-6.9-3.1-6.9-6.9V26.9c0-3.8,3.1-6.9,6.9-6.9h298
		c3.8,0,6.9,3.1,6.9,6.9V1390.4z"/>
	<path d="M1198.8,0H428.8c-14.9,0-26.9,12.1-26.9,26.9v1363.4c0,14.9,12.1,26.9,26.9,26.9h769.9c14.9,0,26.9-12.1,26.9-26.9V26.9
		C1225.7,12.1,1213.6,0,1198.8,0z M1205.7,1390.4c0,3.8-3.1,6.9-6.9,6.9H428.8c-3.8,0-6.9-3.1-6.9-6.9V26.9c0-3.8,3.1-6.9,6.9-6.9
		h769.9c3.8,0,6.9,3.1,6.9,6.9V1390.4z"/>
	<path d="M815.3,329.7h-10c-9.7,0-17.5,7.9-17.5,17.5v795.1c0,9.7,7.9,17.5,17.5,17.5h10c9.7,0,17.5-7.9,17.5-17.5V347.3
		C832.8,337.6,825,329.7,815.3,329.7z M805.3,339.8h10c4.1,0,7.5,3.4,7.5,7.5v195c-2.2-1.7-4.9-2.7-7.9-2.7h-10.3
		c-2.5,0-4.8,0.7-6.8,1.9V347.3C797.8,343.1,801.2,339.8,805.3,339.8z M815.3,1149.9h-10c-4.1,0-7.5-3.4-7.5-7.5V927.2
		c2,1.2,4.3,1.9,6.8,1.9h10.3c3,0,5.7-1,7.9-2.7v216.1C822.8,1146.6,819.4,1149.9,815.3,1149.9z"/>
</g>
</svg>
