<?xml version="1.0" encoding="utf-8"?>
<!-- Generator: Adobe Illustrator 21.0.0, SVG Export Plug-In . SVG Version: 6.00 Build 0)  -->
<svg version="1.1" id="Layer_1" xmlns="http://www.w3.org/2000/svg" xmlns:xlink="http://www.w3.org/1999/xlink" x="0px" y="0px"
	 viewBox="0 0 661 1417.3" style="enable-background:new 0 0 661 1417.3;" xml:space="preserve">
<g>
	<path d="M339.4,1302.8c-23.9,0-43.3,19.4-43.3,43.3s19.4,43.3,43.3,43.3c23.9,0,43.3-19.4,43.3-43.3S363.3,1302.8,339.4,1302.8z
		 M339.4,1386.6c-22.3,0-40.4-18.1-40.4-40.4c0-22.3,18.1-40.4,40.4-40.4c22.3,0,40.4,18.1,40.4,40.4
		C379.8,1368.4,361.7,1386.6,339.4,1386.6z"/>
	<path d="M339.4,1313c-18.3,0-33.2,14.9-33.2,33.2c0,18.3,14.9,33.2,33.2,33.2c18.3,0,33.2-14.9,33.2-33.2
		C372.5,1327.9,357.6,1313,339.4,1313z M339.4,1371.8c-14.1,0-25.6-11.5-25.6-25.6c0-14.1,11.5-25.6,25.6-25.6
		c14.1,0,25.6,11.5,25.6,25.6C365,1360.3,353.5,1371.8,339.4,1371.8z"/>
	<path d="M351.9,1341.1h-7.5v-7.5c0-2.8-2.2-5-5-5c-2.8,0-5,2.2-5,5v7.5h-7.5c-2.8,0-5,2.2-5,5c0,2.8,2.2,5,5,5h7.5v7.5
		c0,2.8,2.2,5,5,5c2.8,0,5-2.2,5-5v-7.5h7.5c2.8,0,5-2.2,5-5C356.9,1343.4,354.6,1341.1,351.9,1341.1z"/>
	<path d="M240.2,389.1c24.2,0,43.9-19.7,43.9-43.9c0-24.2-19.7-43.9-43.9-43.9c-24.2,0-43.9,19.7-43.9,43.9
		C196.3,369.4,216,389.1,240.2,389.1z M240.2,311.4c18.6,0,33.8,15.1,33.8,33.8c0,18.6-15.1,33.8-33.8,33.8
		c-18.6,0-33.8-15.1-33.8-33.8C206.4,326.6,221.5,311.4,240.2,311.4z"/>
	<circle cx="447.2" cy="345.2" r="14.8"/>
	<path d="M179.8,923c-14,0-25.3,11.4-25.3,25.3s11.4,25.3,25.3,25.3c14,0,25.3-11.4,25.3-25.3S193.7,923,179.8,923z M179.8,968.6
		c-11.2,0-20.3-9.1-20.3-20.3c0-11.2,9.1-20.3,20.3-20.3c11.2,0,20.3,9.1,20.3,20.3C200,959.5,190.9,968.6,179.8,968.6z"/>
	<path d="M626.6,77.5H525.1L409.7,2.3c-4.3-2.8-9.7-3-14.2-0.6c-4.5,2.4-7.3,7.1-7.3,12.2v70.8c-9.3,12.8-38.5,23.5-57.6,23.5
		c-19.7,0-49.6-10.7-57.7-23.1V13.9c0-5.1-2.8-9.8-7.3-12.2c-4.5-2.4-9.9-2.2-14.2,0.6L135.9,77.5H34.4L0,259.2v1158.1h661V259.2
		L626.6,77.5z M136,97.9v157.2H21.4L51.1,97.9H136z M609.9,97.9l29.8,157.2H524.3V97.9H609.9z M640.8,1377.9v19.1H568v-279.4
		l-1.1-0.8c-60.4-41.7-134.9-62-227.6-62c-92.7,0-167.1,20.3-227.5,62l-1.1,0.8v279.4H20.2v-19.1h51.2v-353.7h524.7v353.7H640.8z
		 M562.9,1229.8H115.8v-109.4c59.4-40.6,132.5-60.4,223.6-60.4c91.1,0,164.2,19.8,223.6,60.4V1229.8z M115.8,1234.8h447.2v162.2
		H115.8V1234.8z M519.2,1014.2H141V853.9l-73.6-46.5V420.8l73.6-46.5V265.2h378.2v109.1l73.6,46.5v386.6l-73.6,46.5V1014.2z
		 M136,265.2v106.3L62.3,418v392.2l73.6,46.5v157.4H61.3v353.7H20.2V265.2H136z M606.3,1367.8v-353.7h-82V856.7l73.6-46.5V418
		l-73.6-46.5V265.2h116.5v1102.6H606.3z M408.4,25.6l95.4,62.2h-95.4V25.6z M330.1,128.5c4.7,0,9.9-0.5,15.3-1.5
		c20.5-3.5,45.7-13.5,58.1-29.1h115.7v157.2H141V97.9h116.2c8.7,11.7,24.9,20.2,41.4,25.2C309.7,126.6,321,128.5,330.1,128.5z
		 M157.2,87.8l95.4-62.2v62.2H157.2z"/>
	<path d="M301.9,923.2v-30.3H237v30.3c-12.8,1.3-22.8,12.1-22.8,25.2c0,14,11.4,25.3,25.3,25.3c14,0,25.3-11.4,25.3-25.3
		c0-13.1-10-23.9-22.8-25.2v-25.3h54.7v25.3c-12.8,1.3-22.8,12.1-22.8,25.2c0,14,11.4,25.3,25.3,25.3c14,0,25.3-11.4,25.3-25.3
		C324.7,935.3,314.6,924.4,301.9,923.2z M259.8,948.4c0,11.2-9.1,20.3-20.3,20.3c-11.2,0-20.3-9.1-20.3-20.3
		c0-11.2,9.1-20.3,20.3-20.3C250.7,928.1,259.8,937.2,259.8,948.4z M299.3,968.6c-11.2,0-20.3-9.1-20.3-20.3
		c0-11.2,9.1-20.3,20.3-20.3c11.2,0,20.3,9.1,20.3,20.3C319.6,959.5,310.5,968.6,299.3,968.6z"/>
	<path d="M421.4,923.2v-30.3h-64.8v30.3c-12.8,1.3-22.8,12.1-22.8,25.2c0,14,11.4,25.3,25.3,25.3c14,0,25.3-11.4,25.3-25.3
		c0-13.1-10-23.9-22.8-25.2v-25.3h54.7v25.3c-12.8,1.3-22.8,12.1-22.8,25.2c0,14,11.4,25.3,25.3,25.3c14,0,25.3-11.4,25.3-25.3
		C444.2,935.3,434.2,924.4,421.4,923.2z M379.4,948.4c0,11.2-9.1,20.3-20.3,20.3c-11.2,0-20.3-9.1-20.3-20.3
		c0-11.2,9.1-20.3,20.3-20.3C370.3,928.1,379.4,937.2,379.4,948.4z M418.9,968.6c-11.2,0-20.3-9.1-20.3-20.3
		c0-11.2,9.1-20.3,20.3-20.3c11.2,0,20.3,9.1,20.3,20.3C439.1,959.5,430.1,968.6,418.9,968.6z"/>
	<path d="M478.7,923c-14,0-25.3,11.4-25.3,25.3s11.4,25.3,25.3,25.3c14,0,25.3-11.4,25.3-25.3S492.6,923,478.7,923z M478.7,968.6
		c-11.2,0-20.3-9.1-20.3-20.3c0-11.2,9.1-20.3,20.3-20.3c11.2,0,20.3,9.1,20.3,20.3C498.9,959.5,489.8,968.6,478.7,968.6z"/>
	<path d="M445.3,473c-0.9-0.2-2.8-0.4-5.6-0.4H432v23.5h4.8v-8.9h3.1c2.2,0,3.8-0.1,4.9-0.3c0.8-0.2,1.7-0.6,2.5-1.1
		c0.8-0.6,1.5-1.3,2-2.3c0.5-1,0.8-2.2,0.8-3.6c0-1.9-0.5-3.4-1.4-4.6C447.8,474.1,446.6,473.3,445.3,473z M444.6,481.8
		c-0.4,0.5-0.9,0.9-1.5,1.2c-0.6,0.2-1.9,0.4-3.8,0.4h-2.6v-6.7h2.3c1.7,0,2.9,0.1,3.4,0.2c0.8,0.1,1.4,0.5,1.9,1
		c0.5,0.6,0.8,1.3,0.8,2.1C445.1,480.6,445,481.2,444.6,481.8z"/>
	<path d="M464.4,496.6c3.5,0,6.2-1.1,8.3-3.2s3.1-5.1,3.1-8.9c0-3.8-1-6.8-3.1-9c-2.1-2.2-4.9-3.2-8.3-3.2c-1.9,0-3.6,0.3-5.1,0.9
		c-1.1,0.5-2.1,1.2-3,2.1c-0.9,1-1.7,2-2.2,3.2c-0.7,1.6-1.1,3.6-1.1,6c0,3.7,1,6.7,3.1,8.8C458.1,495.5,460.9,496.6,464.4,496.6z
		 M459.7,478.3c1.2-1.3,2.8-2,4.7-2c2,0,3.5,0.7,4.7,2c1.2,1.3,1.8,3.3,1.8,6c0,2.7-0.6,4.8-1.8,6.1c-1.2,1.4-2.8,2-4.7,2
		s-3.5-0.7-4.7-2.1c-1.2-1.4-1.8-3.4-1.8-6.1C457.9,481.7,458.5,479.6,459.7,478.3z"/>
	<polygon points="499.7,489.1 495.6,472.6 489.9,472.6 485.6,488.8 482.1,472.6 477.2,472.6 482.8,496.1 488,496.1 492.7,478.6 
		497.3,496.1 502.4,496.1 508.1,472.6 503.3,472.6 	"/>
	<path d="M188.6,511.7c13.4,0,26.4,0,40,0c0-13.6,0-26.7,0-40c-13.5,0-26.6,0-40,0C188.6,485.2,188.6,498.3,188.6,511.7z
		 M200.2,483.7c5.7,0,11,0,16.8,0c0,5.4,0,10.6,0,16.2c-5.5,0-10.9,0-16.8,0C200.2,494.6,200.2,489.5,200.2,483.7z"/>
	<path d="M199.6,462.4c-0.5,0.4-0.6,1.2-0.2,1.7c0.2,0.3,0.6,0.4,0.9,0.4c0.3,0,0.5-0.1,0.8-0.3c4.5-3.7,6.7-8.8,6.7-15.6v-0.1
		c0-6.8-2.2-11.9-6.7-15.6c-0.5-0.4-1.3-0.3-1.7,0.2c-0.4,0.5-0.3,1.3,0.2,1.7c3.9,3.2,5.8,7.7,5.8,13.7v0.1
		C205.4,454.7,203.5,459.1,199.6,462.4z"/>
	<path d="M194,458.3c-0.5,0.4-0.6,1.2-0.2,1.7c0.2,0.3,0.6,0.4,0.9,0.4c0.3,0,0.5-0.1,0.8-0.3c3.3-2.7,5-6.5,5-11.5v-0.1
		c0-5-1.6-8.8-5-11.5c-0.5-0.4-1.3-0.3-1.7,0.2c-0.4,0.5-0.3,1.3,0.2,1.7c2.7,2.3,4.1,5.4,4.1,9.7v0.1
		C198.1,452.9,196.8,456,194,458.3z"/>
	<path d="M188.2,455.8c0.2,0.3,0.6,0.4,0.9,0.4c0.3,0,0.5-0.1,0.8-0.3c2.1-1.7,3.2-4.2,3.2-7.4c0-3.1-1.1-5.6-3.2-7.3
		c-0.5-0.4-1.3-0.3-1.7,0.2c-0.4,0.5-0.3,1.3,0.2,1.7c1.6,1.3,2.3,3.1,2.3,5.6c0,2.4-0.8,4.2-2.3,5.5
		C187.8,454.5,187.8,455.3,188.2,455.8z"/>
	<polygon points="343.4,511.5 343.4,498.9 371.7,498.9 371.7,487.3 343.4,487.3 343.4,483.5 371.7,483.5 371.7,471.9 343.4,471.9 
		342.7,471.9 332,471.9 332,511.5 342.7,511.5 	"/>
	<polygon points="390.5,511.5 390.5,498.9 418.8,498.9 418.8,487.3 390.5,487.3 390.5,483.5 418.8,483.5 418.8,471.9 390.5,471.9 
		389.8,471.9 379.1,471.9 379.1,511.5 389.8,511.5 	"/>
	<path d="M283.8,511.5h10.7h0.7h17h11.3h0.1v-39.6h-0.1h-11.3h-17h-0.7h-10.7V511.5z M295.2,483.5h17V500h-17V483.5z"/>
	<polygon points="276,511.5 276,471.9 275.9,471.9 264.6,471.9 247.6,471.9 247,471.9 236.2,471.9 236.2,511.5 247.6,511.5 
		247.6,483.5 264.6,483.5 264.6,511.5 	"/>
	<polygon points="178.8,511.7 178.9,511.7 178.9,483.2 178.9,483.2 178.9,471.5 167.3,471.5 150.1,471.5 150.1,454.7 167.3,454.7 
		178.9,454.7 178.9,443 168,443 167.3,443 150.1,443 138.6,443 138.5,443 138.5,471.5 138.5,471.5 138.5,483.3 150.1,483.3 
		167.3,483.3 167.3,500 150.1,500 138.5,500 138.5,511.7 149.4,511.7 150.1,511.7 167.3,511.7 	"/>
	<polygon points="178.3,933.8 172.6,933.8 172.6,961.8 192.5,961.8 192.5,957 178.3,957 	"/>
	<polygon points="475.7,933.8 470.1,933.8 470.1,961.8 489.9,961.8 489.9,957 475.7,957 	"/>
	<polygon points="250,938.8 250,934 229.1,934 229.1,962.2 250.6,962.2 250.6,957.5 234.8,957.5 234.8,949.8 249,949.8 249,945 
		234.8,945 234.8,938.8 	"/>
	<polygon points="294.1,949.8 308.3,949.8 308.3,945 294.1,945 294.1,938.8 309.3,938.8 309.3,934 288.4,934 288.4,962.2 
		309.9,962.2 309.9,957.5 294.1,957.5 	"/>
	<polygon points="347.5,934 347.5,962.2 352.8,962.2 352.8,943.8 364.2,962.2 369.9,962.2 369.9,934 364.6,934 364.6,952.9 
		353.1,934 	"/>
	<polygon points="423.9,952.9 412.4,934 406.8,934 406.8,962.2 412.1,962.2 412.1,943.8 423.5,962.2 429.2,962.2 429.2,934 
		423.9,934 	"/>
</g>
</svg>
