<svg xmlns="http://www.w3.org/2000/svg" xmlns:xlink="http://www.w3.org/1999/xlink" version="1.1" x="0px" y="0px" viewBox="0 0 48 60" enable-background="new 0 0 48 48" xml:space="preserve">
<g>
<path d="M23.608,47.008l-0.761-0.893c-3.353-3.93-6.948-7.539-10.121-10.723C5.616,28.257,0,22.621,0,16.845   C0,8.402,5.923,1.533,13.204,1.533c4.125,0,7.913,2.174,10.404,5.895c2.488-3.721,6.273-5.895,10.399-5.895   c3.559,0,6.895,1.613,9.393,4.542c2.46,2.884,3.815,6.709,3.814,10.77c0,5.875-6.323,12.215-13.645,19.558   c-3.125,3.134-6.356,6.374-9.201,9.712L23.608,47.008z M13.204,3.533C7.026,3.533,2,9.505,2,16.845   c0,4.949,5.359,10.328,12.144,17.136c2.961,2.972,6.288,6.31,9.465,9.955c2.699-3.082,5.667-6.059,8.545-8.945   c6.717-6.736,13.061-13.098,13.061-18.146c0-3.586-1.185-6.95-3.336-9.472c-2.112-2.477-4.907-3.84-7.871-3.84   c-3.893,0-7.448,2.361-9.512,6.316l-0.886,1.698l-0.887-1.697C20.655,5.895,17.096,3.533,13.204,3.533z"/>
<path d="M23.608,36.129c-0.462,0-0.864-0.316-0.972-0.767l-4.59-19.116L14.75,27.774c-0.123,0.43-0.515,0.726-0.961,0.726H1   c-0.552,0-1-0.447-1-1s0.448-1,1-1h12.034l4.135-14.461c0.125-0.436,0.516-0.724,0.983-0.725c0.454,0.01,0.845,0.325,0.951,0.767   l4.474,18.633l4.021-17.868c0.103-0.454,0.505-0.778,0.971-0.78c0.507,0.006,0.872,0.317,0.979,0.771l2.991,12.726H47   c0.553,0,1,0.447,1,1s-0.447,1-1,1H31.745c-0.464,0-0.867-0.319-0.974-0.771l-2.178-9.265l-4.01,17.822   c-0.103,0.453-0.504,0.777-0.969,0.78C23.613,36.129,23.61,36.129,23.608,36.129z"/>
</g>
</svg>
