<?xml version="1.0" encoding="utf-8"?>
<!-- Generator: Adobe Illustrator 21.0.0, SVG Export Plug-In . SVG Version: 6.00 Build 0)  -->
<svg version="1.1" id="Layer_1" xmlns="http://www.w3.org/2000/svg" xmlns:xlink="http://www.w3.org/1999/xlink" x="0px" y="0px"
	 viewBox="0 0 791.4 1417.3" style="enable-background:new 0 0 791.4 1417.3;" xml:space="preserve">
<g>
	<path d="M753.3,107.5C710.2,58.5,613.2,0,395.7,0S81.2,58.5,38.1,107.5C-0.7,151.6-1.8,193.9,0.9,215.2
		C9.2,279,32.1,344.6,48.8,392.5c3.6,10.3,6.8,19.5,9.4,27.4c-17.7,17.9,1.6,69.2,11.3,91.5c0.8,1.9,2.2,3.6,4,4.7
		c0.8,0.5,1.3,1,1.4,1.2c3.6,10.3,107.1,313.6,107.1,510.1v1l0.3,1c1.1,3.8,5.3,8.8,27.9,13.3c1.8,4.1,5.7,11.7,13.3,20.7v75.2
		c0,7.7,5.7,14.3,13.3,15.4c1.8,0.3,4,0.6,6.4,0.9c0,0.1,0.1,0.1,0.1,0.2v0.1c0.8,0.9,1.4,1.7,2,2.3c2.6,3.1,4.9,6.5,6.7,9.9
		c1.6,3,2.8,6,3.5,9l0.1,0.3l0.1,0.3c2.2,6,4.1,13.9,5.6,23.1c1.8,10.2,3.1,21.8,4.2,34.1c1,13.6,1.8,27.7,2.2,41.7
		c0.4,15.5,0.5,30.8,0.2,44.5l-0.1,4.8l0.6,0.1l37.3,40.4h-0.3l12.7,11.1l32.7,28.6l0.1,0.1l0.8,0.6c5.9,5.1,12,10.3,42.9,11.4h0.5
		c30.9-1.1,36.9-6.3,42.9-11.4l0.8-0.6l0.1-0.1l32.8-28.6l12.7-11.1h-0.2l38.3-40.5H522l-0.1-4.8c-0.3-13.7-0.3-29,0.2-44.5
		c0.3-13.9,1-28.1,2.2-41.7c1-12.4,2.4-24,4.2-34.1c1.5-9.2,3.4-17,5.6-23.1l0.1-0.3l0.1-0.3c0.6-2.9,1.8-6,3.4-9
		c1.8-3.4,4.3-6.8,6.8-9.9c0.5-0.6,1.1-1.4,2-2.2c3.2-0.4,5.9-0.8,8.2-1.1c7.6-1.1,13.2-7.7,13.2-15.4v-75.3
		c7.6-9,11.5-16.6,13.3-20.7c22.5-4.5,26.8-9.4,27.9-13.3l0.3-1v-1c0-196.5,103.6-499.8,107.1-510.1c0.2-0.2,0.6-0.7,1.4-1.2
		c1.8-1.2,3.1-2.8,4-4.7c9.7-22.3,29.1-73.7,11.3-91.5c2.6-8,5.8-17.1,9.4-27.4c16.7-47.9,39.6-113.4,47.9-177.3
		C793.2,193.9,792.1,151.6,753.3,107.5z M588.7,1026.2c-3,0.8-6.8,1.7-11.7,2.7c1.1-64.7,15.4-228.9,109.7-515.5
		c5.7,0.2,10.9,0.4,15.7,0.6c-8.6,25.1-106.3,316.5-107.5,510C593.8,1024.5,591.9,1025.3,588.7,1026.2z M344,509.7
		c21.2,129.8,25.7,358.9,25.7,528.9h4.3c0-169.9-4.5-398.7-25.6-528.9c14.6-0.1,29.6-0.1,44.9-0.1v529.2c-16.3,0-31.3-0.1-45.1-0.4
		c0-159.7-29.5-401.7-57.2-528.4C308.1,509.9,325.7,509.8,344,509.7z M421,1038.6c0-170,4.5-399.1,25.7-528.9
		c18.2,0.1,35.9,0.2,53,0.3c-27.6,126.7-57.1,368.6-57.2,528.4c-13.8,0.2-28.8,0.4-45.1,0.4V509.6c15.3,0,30.3,0,44.9,0.1
		c-21.2,130.2-25.6,359-25.6,528.9H421z M237.8,1065.5c19.6,2.7,74.6,9.2,157.6,9.2c85.8,0,139.5-6.5,158.2-9.2v73.2
		c0,0.6-0.5,1.2-1.1,1.3c-18.7,2.7-71.3,9.1-156.8,9.1c-83.4,0-137.4-6.4-156.8-9.2c-0.6-0.1-1.1-0.6-1.1-1.3V1065.5z M555.4,1056
		l-1.8,2v0.2c-17.3,2.6-71.1,9.3-158.2,9.3c-84.1,0-139.2-6.6-157.6-9.3v-0.2l-1.8-2c-7.1-8-10.7-14.7-12.3-18.2
		c36.1,5.4,93.7,8.1,171.7,8.1c78.4,0,136.4-2.8,172.4-8.2C566.2,1041.2,562.6,1047.9,555.4,1056z M555,1032.2
		c0.7-62.4,13.8-227.5,109.9-519.5c6.1,0.2,11.9,0.3,17.4,0.5c-16,48.6-44.8,141-68.8,242.5c-26.1,110.2-39.7,202.3-40.7,273.9
		C567.9,1030.5,562,1031.4,555,1032.2z M591.5,755.7c-26.4,111.8-40.1,204.9-40.8,277c-6.3,0.7-13.4,1.4-21.3,2
		C530,973,542.7,807.1,640,512.1c7.2,0.2,14,0.3,20.5,0.5C644.6,561.1,615.6,653.9,591.5,755.7z M565.9,757.2
		c-26.5,112.2-40.2,205.6-40.8,277.8c-7.1,0.5-14.8,1-23.3,1.4c0.7-163.8,61.3-408,99.8-525.1c11.9,0.2,23.3,0.4,33.9,0.7
		C619.8,559.9,590.3,653.8,565.9,757.2z M533,756.5c-16,77-35.1,187.8-35.5,280.1c-7.3,0.4-15,0.7-23.4,0.9
		c0.1-75.6,10-175.3,27.9-281c15.9-93.9,37.2-185.7,57-245.9c13.3,0.2,26,0.4,38.1,0.6C574.7,579.8,550.8,671.2,533,756.5z
		 M497.9,755.9c-18,106-27.9,206-28,281.9c-7.3,0.2-15,0.4-23.1,0.6c0-159.8,29.6-402.1,57.3-528.2c17.6,0.1,34.5,0.3,50.6,0.5
		C534.9,571,513.8,662.4,497.9,755.9z M286.6,510.1c27.6,126.2,57.2,368.4,57.3,528.2c-8.1-0.2-15.8-0.3-23.1-0.6
		c-0.1-75.8-10-175.9-28-281.9c-15.9-93.5-37-184.9-56.7-245.3C252.2,510.4,269.1,510.2,286.6,510.1z M231.6,510.7
		c19.8,60.2,41,152,57,245.9c17.9,105.7,27.8,205.4,27.9,281c-8.3-0.3-16.1-0.6-23.4-0.9c-0.4-92.4-19.4-203.2-35.5-280.1
		c-17.8-85.3-41.7-176.7-64.2-245.3C205.6,511,218.3,510.8,231.6,510.7z M189,511.3c38.5,117.1,99.1,361.3,99.8,525.1
		c-8.5-0.4-16.2-0.9-23.3-1.4c-0.5-72.2-14.2-165.6-40.8-277.8c-24.4-103.4-53.9-197.3-69.7-245.2
		C165.8,511.8,177.1,511.5,189,511.3z M150.7,512.1C248,807,260.7,973,261.3,1034.7c-8-0.6-15.1-1.3-21.3-2
		c-0.6-72.1-14.3-165.2-40.8-277c-24.1-101.9-53.1-194.7-69-243.1C136.7,512.4,143.5,512.3,150.7,512.1z M125.8,512.7
		c96.1,292,109.2,457.1,109.9,519.5c-6.1-0.7-11.3-1.5-15.8-2.2l-1.9-0.4c-1-71.6-14.7-163.7-40.7-273.9
		c-24-101.4-52.8-193.8-68.8-242.5C113.9,513.1,119.7,512.9,125.8,512.7z M104,513.4c94.3,286.5,108.5,450.7,109.7,515.4
		c-10.1-2-15.1-3.8-17.3-4.9c-1.2-193.6-99-485.1-107.5-510C93.5,513.8,98.6,513.6,104,513.4z M709.1,504.9
		c-0.8,0.6-1.7,1.3-2.5,2.1c-54.7-2.3-170.1-4.5-311.2-4.5c-140.6,0-255.7,2.2-310.6,4.5c-0.8-0.8-1.7-1.5-2.5-2.1
		c-16.2-37.5-21.8-70.7-12.8-75.8c0.1-0.1,0.3-0.2,0.3-0.2l3.9-1.9c25.5-2.7,130.3-12.1,321.7-12.1c193.4,0,298.3,9.7,322.5,12.2
		l3.7,1.8c0,0,0.2,0.1,0.3,0.2C730.9,434.2,725.3,467.4,709.1,504.9z M718.1,420c-25.3-2.6-130.4-12.2-322.8-12.2
		c-190.7,0-295.7,9.4-322.1,12.2c-2.9-9.1-6.7-19.8-11-32.1c-16.5-47.3-39.1-112-47.2-174.4c-2.4-18.9-1.3-56.6,33.8-96.5
		c26.5-30.2,66.1-54.2,117.6-71.6c61.4-20.6,138.5-31.1,229.3-31.1c90.8,0,167.9,10.5,229.3,31.1c51.5,17.3,91.1,41.4,117.6,71.6
		c35.1,39.9,36.2,77.6,33.8,96.5c-8.1,62.4-30.7,127.1-47.2,174.4C724.8,400.2,721.1,410.9,718.1,420z M430.4,1397.9l-0.8,0.7
		c-4.3,3.7-8.6,7.4-34.7,8.4c-26.1-1-30.3-4.7-34.7-8.4l-0.8-0.7l-21.1-18.4c3.3,0.1,6.8,0.3,10.6,0.4c6.7,0.2,14,0.3,21.9,0.4
		c7.7,0.1,15.8,0.1,24.1,0.1c8.3,0,16.4-0.1,24.1-0.1c7.9-0.1,15.3-0.2,21.9-0.4c3.8-0.1,7.3-0.3,10.5-0.4L430.4,1397.9z
		 M524.2,1164.4c-1.8,3.5-3.3,7.2-4.2,10.8c-2.2,6.5-4.3,14.6-5.9,24c-1.7,10.2-3,21.9-4.1,34.3c-1.1,13.1-1.8,27.2-2.2,41.3
		c-0.4,13.6-0.5,27-0.2,39.4l-5,0.3c-4,0.3-7.7,0.6-11.2,0.8c-4.9,0.3-9.6,0.6-14.2,0.8c-5.1,0.3-10.1,0.5-14.9,0.7
		c-5.6,0.2-11,0.3-16.2,0.6c-5.7,0.1-11.3,0.3-16.7,0.4c-5.9,0.1-11.7,0.2-17.3,0.3c-5.9,0.1-11.6,0.1-17.2,0.1
		c-5.5,0-11.3-0.1-17.2-0.1c-5.5-0.1-11.3-0.1-17.3-0.3c-5.5-0.1-11-0.3-16.7-0.4c-5.2-0.2-10.7-0.3-16.2-0.6
		c-4.8-0.2-9.8-0.4-14.9-0.7c-4.6-0.2-9.3-0.5-14.3-0.8c-3.5-0.2-7.2-0.5-11.2-0.8l-5-0.3c0.1-8.6,0.1-17.7,0-26.9
		c13.4,1.2,28.1,2.1,43.2,2.7c27.7,1.3,56.5,1.8,81.3,1.8v-8c-25.1,0-53.8-0.5-81-1.7c-15.3-0.7-30.2-1.6-43.7-2.8
		c0-1.5-0.1-2.9-0.1-4.4c-0.2-6.6-0.4-13.3-0.8-19.8c13.7,1.2,28.8,2.1,44.3,2.8c27.7,1.3,56.5,1.8,81.3,1.8v-8
		c-25.1,0-53.8-0.5-81-1.7c-15.8-0.7-31.1-1.7-45.1-2.9c-0.3-4.6-0.6-9.1-0.9-13.5c-0.3-3.7-0.6-7.3-1-10.8
		c14.3,1.3,30.2,2.3,46.7,3c27.7,1.3,56.5,1.8,81.3,1.8v-8c-25.1,0-53.8-0.5-81-1.7c-16.9-0.8-33.3-1.8-47.9-3.2
		c-0.7-5.4-1.4-10.5-2.2-15.4c-0.5-3.2-1.1-6.2-1.7-9.1c15.5,1.5,33.2,2.7,51.6,3.5c27.7,1.3,56.5,1.8,81.3,1.8v-8
		c-25.1,0-53.8-0.5-81-1.7c-19.2-0.9-37.8-2.1-53.9-3.8c-0.7-2.4-1.4-4.6-2.1-6.7c-0.8-3.7-2.2-7.3-4.1-10.8
		c-1.2-2.2-2.6-4.5-4.1-6.6l4.6,0.5c7.1,0.7,14.6,1.3,22.4,1.8c15.1,1,31.9,1.8,49.1,2.4c19.2,0.6,38.7,1,56.8,1h0.1
		c18.1-0.1,37.7-0.4,56.9-1c17.2-0.6,34-1.3,49.1-2.4c7.9-0.5,15.7-1.1,22.8-1.9l4.9-0.5C526.8,1159.9,525.4,1162.1,524.2,1164.4z"
		/>
	<rect x="391.8" y="1088.5" width="7.1" height="43.1"/>
	<rect x="416" y="1088.5" width="7.1" height="43.1"/>
	<rect x="367.6" y="1088.5" width="7.1" height="43.1"/>
</g>
</svg>
