<?xml version="1.0" encoding="utf-8"?>
<!-- Generator: Adobe Illustrator 21.0.0, SVG Export Plug-In . SVG Version: 6.00 Build 0)  -->
<svg version="1.1" id="Layer_1" xmlns="http://www.w3.org/2000/svg" xmlns:xlink="http://www.w3.org/1999/xlink" x="0px" y="0px"
	 viewBox="0 0 755.1 1417.3" style="enable-background:new 0 0 755.1 1417.3;" xml:space="preserve">
<g>
	<path d="M199.9,129.2c1.9,9.7,12.5,27.3,38.6,27.3c1.2,0,2.5,0,3.8-0.1c32.2-2,125-4,147-4s114.8,2,147,4
		c28.9,1.8,40.4-17,42.4-27.2c0.1-0.4,8-43.1,11.9-56.8c1.2-4.2,0.6-8.5-1.9-12.4c-8.3-13.1-35-17.7-35.3-17.7
		c-45.6-7.5-95.2-7.5-152.6-7.5l-11.6,0l-11.6,0c-57.4,0-107-0.1-152.6,7.5c-0.3,0-26.9,4.6-35.3,17.7c-2.4,3.9-3.1,8.2-1.9,12.4
		C191.9,86,199.8,128.7,199.9,129.2z M198.4,65.4c4.1-6.5,19.3-11.7,28.3-13.1c44.8-7.4,94-7.4,150.9-7.3l11.6,0l11.6,0
		c56.9,0,106.1-0.1,150.9,7.3c9,1.5,24.3,6.7,28.3,13.1c0.9,1.4,1.1,2.7,0.7,4.2c-4,14.1-11.8,55.9-12.1,57.6
		c0,0.1-1.2,5.4-5.7,10.3c-5.9,6.5-14.7,9.5-26.2,8.7c-32.4-2-125.6-4-147.6-4c-22,0-115.2,2-147.6,4c-11.5,0.7-20.3-2.2-26.2-8.7
		c-4.5-4.9-5.6-10.2-5.7-10.2c0,0,0,0,0,0c-0.3-1.8-8.1-43.6-12.2-57.7C197.3,68.1,197.5,66.8,198.4,65.4z"/>
	<path d="M395.6,768.4c-78.4,0-139.8,39.5-139.8,89.9c0,50.4,61.4,89.9,139.8,89.9c78.4,0,139.8-39.5,139.8-89.9
		C535.4,807.9,474,768.4,395.6,768.4z M395.6,918c-59.5,0-109.7-27.4-109.7-59.7s50.2-59.7,109.7-59.7c59.5,0,109.7,27.4,109.7,59.7
		S455.1,918,395.6,918z"/>
	<path d="M607.6,255.5H147.5h-10.1h-32.7v416.2l4.1,0.8c8.5,1.7,18.1,3.2,28.6,4.6v0l4.5,0.5c0,0,0,0,0,0l5.7,0.7v0
		c64.1,7.1,150.8,7.1,221,7.1l9.1,0l9.1,0c3,0,6.1,0,9.2,0c68.4,0,150.4-0.3,211.8-7.1v0l5.7-0.7c0,0,0,0,0,0l4.5-0.5v0
		c10.5-1.4,20.1-2.9,28.6-4.6l4.1-0.8V255.5h-32.7H607.6z M137.4,666.9c-8.1-1.1-15.7-2.3-22.5-3.5V265.6h22.5V666.9z M607.6,668.1
		c-63.6,7.2-150.7,7.1-221,7.1l-9.1,0l-9.1,0c-70.3,0-157.3,0-221-7.1V265.6h460.1V668.1z M640.3,663.4c-6.9,1.3-14.4,2.5-22.5,3.5
		V265.6h22.5V663.4z"/>
	<path d="M732.6,39.4C645.4,21.2,540.3,2,389.3,0.1V0c-3.9,0-7.9,0-11.8,0c-3.9,0-7.8,0-11.8,0v0.1C214.8,2,109.7,21.2,22.5,39.4
		C9.5,42.1,0,53.7,0,67v1273.7c0,10.8,6.3,20.7,16,25.5c60.1,29.1,215.6,51.1,361.6,51.1c146.5,0,302-22,361.7-51.1
		c9.8-4.8,15.9-14.5,15.9-25.4V67C755.1,53.7,745.7,42.1,732.6,39.4z M679.7,209.3v-5.4c0-54.1,31.3-100.7,55.2-130.5v1226.5
		c-6.5-23.7-14.1-55.6-20.9-94.9c-22.3-128.4-34-426.1-34.3-432.9V209.3z M377.6,20.3C533,21.2,640.1,40.8,728.5,59.2
		c1.3,0.3,2.5,0.9,3.5,1.7c-24.4,29.4-60.3,78.6-62.3,137.6c-98.6-5.9-224.7-7.3-278.5-7.6v-0.1h-26.2v0.1
		c-53.8,0.3-179.9,1.7-278.5,7.6c-2.1-59.3-38.3-108.7-62.7-138c0.9-0.6,1.8-1.1,2.9-1.3C115,40.8,222.1,21.2,377.6,20.3z
		 M76.3,209.3V772c-0.3,6.8-12,304.5-34.3,432.9c-7.1,41.1-15.1,74.1-21.8,98.1V72.3c24,29.7,56.1,76.8,56.1,131.6V209.3z
		 M730.3,1348c-48.7,23.8-188.9,49.1-352.8,49.1c-141,0-295.9-21.6-352.7-49.1c-2.8-1.4-4.6-4.1-4.6-7.2v-2.8
		c7.3-21.9,20.6-66.8,31.8-131.3c22.5-129.9,34.3-431.3,34.4-434.4l0-0.1V208.6c107.6-6.4,248.4-7.5,291.5-7.7
		c43.1,0.2,183.9,1.3,291.5,7.7v563.5l0,0.2c0.1,3,11.9,304.5,34.4,434.4c10.7,61.9,23.4,105.8,30.9,128.6v5.6
		C734.9,1343.9,733.1,1346.6,730.3,1348z"/>
</g>
</svg>
