<?xml version="1.0" encoding="utf-8"?>
<!-- Generator: Adobe Illustrator 21.0.0, SVG Export Plug-In . SVG Version: 6.00 Build 0)  -->
<svg version="1.1" id="Layer_1" xmlns="http://www.w3.org/2000/svg" xmlns:xlink="http://www.w3.org/1999/xlink" x="0px" y="0px"
	 viewBox="0 0 778.2 778.2" style="enable-background:new 0 0 778.2 778.2;" xml:space="preserve">
<g>
	<path d="M631.5,742.7c6.6,0,13.1,0,19.8,0c0-6.7,0-13.2,0-19.8c-6.6,0-13.1,0-19.8,0C631.5,729.6,631.5,736,631.5,742.7z
		 M637.2,728.9c2.8,0,5.4,0,8.3,0c0,2.7,0,5.2,0,8c-2.7,0-5.4,0-8.3,0C637.2,734.3,637.2,731.7,637.2,728.9z"/>
	<polygon points="707.6,723 702.3,723 702.3,742.6 707.6,742.6 707.9,742.6 707.9,736.4 721.9,736.4 721.9,730.6 707.9,730.6 
		707.9,728.7 721.9,728.7 721.9,723 707.9,723 	"/>
	<polygon points="730.8,723 725.5,723 725.5,742.6 730.8,742.6 731.2,742.6 731.2,736.4 745.1,736.4 745.1,730.6 731.2,730.6 
		731.2,728.7 745.1,728.7 745.1,723 731.2,723 	"/>
	<path d="M692.5,723h-8.4h-0.3h-5.3v19.6h5.3h0.3h8.4h5.6h0V723h0H692.5z M692.5,736.9h-8.4v-8.1h8.4V736.9z"/>
	<polygon points="669,723 660.6,723 660.3,723 655,723 655,742.6 660.6,742.6 660.6,728.7 669,728.7 669,742.6 674.6,742.6 
		674.6,723 674.6,723 	"/>
	<polygon points="621,708.8 612.5,708.8 606.8,708.8 606.7,708.8 606.7,722.9 606.7,722.9 606.7,728.6 612.4,728.6 620.9,728.6 
		620.9,736.9 612.4,736.9 606.7,736.9 606.7,742.7 612.1,742.7 612.4,742.7 620.9,742.7 626.6,742.7 626.7,742.7 626.7,728.6 
		626.7,728.6 626.7,722.8 621,722.8 612.5,722.8 612.5,714.5 621,714.5 626.7,714.5 626.7,708.8 621.3,708.8 	"/>
	<path d="M639.8,711.5L639.8,711.5c0,3-0.9,5.2-2.9,6.8c-0.3,0.2-0.3,0.6-0.1,0.8c0.1,0.1,0.3,0.2,0.5,0.2c0.1,0,0.3,0,0.4-0.1
		c2.2-1.8,3.3-4.3,3.3-7.7v-0.1c0-3.3-1.1-5.9-3.3-7.7c-0.2-0.2-0.6-0.2-0.8,0.1c-0.2,0.2-0.2,0.6,0.1,0.8
		C638.8,706.3,639.8,708.5,639.8,711.5z"/>
	<path d="M634.2,716.3c-0.2,0.2-0.3,0.6-0.1,0.8c0.1,0.1,0.3,0.2,0.5,0.2c0.1,0,0.3,0,0.4-0.1c1.6-1.4,2.4-3.2,2.4-5.7v0
		c0-2.5-0.8-4.3-2.4-5.7c-0.2-0.2-0.6-0.2-0.8,0.1c-0.2,0.2-0.2,0.6,0.1,0.8c1.4,1.1,2,2.7,2,4.8v0
		C636.2,713.6,635.5,715.2,634.2,716.3z"/>
	<path d="M632.1,715.1c1-0.9,1.6-2.1,1.6-3.7c0-1.6-0.5-2.8-1.6-3.6c-0.3-0.2-0.6-0.2-0.8,0.1c-0.2,0.2-0.2,0.6,0.1,0.8
		c0.8,0.6,1.1,1.5,1.1,2.7c0,1.2-0.4,2.1-1.1,2.7c-0.3,0.2-0.3,0.6-0.1,0.8c0.1,0.1,0.3,0.2,0.5,0.2
		C631.8,715.3,632,715.2,632.1,715.1z"/>
	<path d="M390.1,159.4c-16.1,0-29.1,13-29.1,29.1c0,16.1,13,29.1,29.1,29.1s29.1-13,29.1-29.1C419.2,172.4,406.2,159.4,390.1,159.4z
		 M392.9,200.6c0,0.9-0.7,1.6-1.6,1.6h-2.9c-0.9,0-1.6-0.7-1.6-1.6v-2.9c0-0.9,0.7-1.6,1.6-1.6h2.9c0.9,0,1.6,0.7,1.6,1.6V200.6z
		 M396.3,193.7c-0.4,0.4-0.9,0.6-1.4,0.6c-0.5,0-0.9-0.2-1.3-0.5c-0.7-0.7-2.6-1.3-3.9-1.3s-3.2,0.6-3.9,1.3
		c-0.8,0.7-1.9,0.7-2.7-0.1c-0.7-0.8-0.7-1.9,0.1-2.7c1.6-1.5,4.5-2.3,6.4-2.3c1.9,0,4.9,0.8,6.4,2.3
		C397,191.8,397.1,193,396.3,193.7z M399.9,188.4c-0.7,0.7-1.9,0.8-2.7,0.1c-1.6-1.5-5.2-2.5-7.4-2.5c-2.2,0-5.8,1-7.4,2.5
		c-0.4,0.3-0.8,0.5-1.3,0.5c-0.5,0-1-0.2-1.4-0.6c-0.7-0.8-0.7-1.9,0.1-2.7c2.4-2.2,6.9-3.6,10-3.6c3.1,0,7.6,1.3,10,3.6
		C400.5,186.5,400.6,187.6,399.9,188.4z M404.2,183.3c-0.4,0.4-0.9,0.6-1.4,0.6c-0.5,0-0.9-0.2-1.3-0.5c-2.6-2.4-8.1-4.1-11.7-4.1
		s-9.2,1.6-11.7,4.1c-0.8,0.7-1.9,0.7-2.7-0.1c-0.7-0.8-0.7-1.9,0.1-2.7c3.4-3.2,9.9-5.1,14.3-5.1s10.9,1.9,14.3,5.1
		C404.9,181.4,404.9,182.6,404.2,183.3z"/>
	<circle cx="187.3" cy="385.9" r="3.3"/>
	<ellipse transform="matrix(0.5 -0.866 0.866 0.5 -215.6909 349.5324)" cx="194.9" cy="361.6" rx="3.7" ry="3.7"/>
	<ellipse transform="matrix(0.866 -0.5 0.5 0.866 -143.4044 152.3768)" cx="212.6" cy="343.8" rx="4.9" ry="4.9"/>
	<circle cx="236.8" cy="337.4" r="6.1"/>
	<ellipse transform="matrix(0.5 -0.866 0.866 0.5 -167.0957 398.0243)" cx="261.1" cy="343.7" rx="7.3" ry="7.3"/>
	<ellipse transform="matrix(0.866 -0.5 0.5 0.866 -142.9649 188.2085)" cx="279.7" cy="360.9" rx="8.6" ry="8.6"/>
	<circle cx="286.3" cy="385.9" r="3.3"/>
	<ellipse transform="matrix(0.5 -0.866 0.866 0.5 -215.8633 446.4607)" cx="278.7" cy="410.2" rx="3.7" ry="3.7"/>
	<ellipse transform="matrix(0.866 -0.5 0.5 0.866 -179.0147 187.7999)" cx="260.9" cy="427.9" rx="4.9" ry="4.9"/>
	<ellipse transform="matrix(0.5 -0.866 0.866 0.5 -264.4584 397.9658)" cx="212.4" cy="428" rx="7.3" ry="7.3"/>
	<ellipse transform="matrix(0.866 -0.5 0.5 0.866 -179.4548 151.9694)" cx="193.9" cy="410.9" rx="8.6" ry="8.6"/>
	<circle cx="236.8" cy="436.3" r="6.1"/>
	<circle cx="494" cy="385.9" r="3.3"/>
	<ellipse transform="matrix(0.5 -0.866 0.866 0.5 -62.3509 615.125)" cx="501.5" cy="361.6" rx="3.7" ry="3.7"/>
	<ellipse transform="matrix(0.866 -0.5 0.5 0.866 -102.3168 305.7172)" cx="519.3" cy="343.8" rx="4.9" ry="4.9"/>
	<circle cx="543.5" cy="337.4" r="6.1"/>
	<ellipse transform="matrix(0.5 -0.866 0.866 0.5 -13.7548 663.6175)" cx="567.8" cy="343.7" rx="7.3" ry="7.3"/>
	<ellipse transform="matrix(0.866 -0.5 0.5 0.866 -101.8774 341.5488)" cx="586.4" cy="360.9" rx="8.6" ry="8.6"/>
	<circle cx="592.9" cy="385.9" r="3.3"/>
	<ellipse transform="matrix(0.5 -0.866 0.866 0.5 -62.5236 712.0497)" cx="585.4" cy="410.2" rx="3.7" ry="3.7"/>
	<ellipse transform="matrix(0.866 -0.5 0.5 0.866 -137.9284 341.1427)" cx="567.6" cy="427.9" rx="4.9" ry="4.9"/>
	<ellipse transform="matrix(0.5 -0.866 0.866 0.5 -111.119 663.558)" cx="519.1" cy="428" rx="7.3" ry="7.3"/>
	<ellipse transform="matrix(0.866 -0.5 0.5 0.866 -138.3675 305.3094)" cx="500.5" cy="410.9" rx="8.6" ry="8.6"/>
	<circle cx="543.5" cy="436.3" r="6.1"/>
	<path d="M768.9,0H9.3C4.2,0,0,4.2,0,9.3v759.6c0,5.1,4.2,9.3,9.3,9.3h759.6c5.1,0,9.3-4.2,9.3-9.3V9.3C778.3,4.2,774.1,0,768.9,0z
		 M770.2,768.9c0,0.7-0.6,1.3-1.3,1.3H9.3c-0.7,0-1.3-0.6-1.3-1.3V9.3C8,8.6,8.6,8,9.3,8h759.6c0.7,0,1.3,0.6,1.3,1.3V768.9z"/>
</g>
</svg>
