<svg id="Layer_1" data-name="Layer 1" xmlns="http://www.w3.org/2000/svg" viewBox="0 0 299.8 641.5"><defs><style>.cls-1,.cls-3{fill-opacity:0;stroke:#000;}.cls-1{stroke-opacity:0;}.cls-2{isolation:isolate;}.cls-3{stroke-width:2px;}</style></defs><title>sonoff th10</title><path id="a3uFxF0zg" d="M326.7,588.5l1.3.2,1.2.3,1.2.4,1.2.5,1.1.5,1.1.6,1.1.7,1,.7,1,.8.9.9.9.9.8,1,.7,1,.7,1.1.6,1.1.5,1.1.5,1.2.4,1.2.3,1.3.2,1.3.1,1.3v2.6l-.1,1.3-.2,1.3-.3,1.2-.4,1.2-.5,1.2-.5,1.1-.6,1.1-.7,1.1-.7,1-.8,1-.9.9-.9.9-1,.8-1,.7-1.1.7-1.1.6-1.1.5-1.2.5-1.2.4-1.2.3-1.3.2-1.3.1h-2.6l-1.3-.1-1.3-.2-1.3-.3-1.2-.4-1.2-.5-1.1-.5-1.1-.6-1.1-.7-1-.7-1-.8-.9-.9-.9-.9-.8-1-.7-1-.7-1.1-.6-1.1-.5-1.1-.5-1.2-.4-1.2-.3-1.2-.2-1.3-.1-1.3v-2.6l.1-1.3.2-1.3.3-1.3.4-1.2.5-1.2.5-1.1.6-1.1.7-1.1.7-1,.8-1,.9-.9.9-.9,1-.8,1-.7,1.1-.7,1.1-.6,1.1-.5,1.2-.5,1.2-.4,1.3-.3,1.3-.2,1.3-.1h2.6Zm-5.4,1.3-1.3.2-1.3.3-1.2.4-1.2.5-1.1.6-1.1.7-1,.7-1,.8-.9.9-.9.9-.8,1-.7,1-.7,1.1-.6,1.2-.5,1.2-.4,1.2-.3,1.3-.2,1.3-.1,1.3v2.8l.1,1.3.2,1.3.3,1.3.4,1.2.5,1.2.6,1.1.7,1.1.7,1,.8,1,.9.9.9.9,1,.8,1,.7,1.1.7,1.1.6,1.2.5,1.2.4,1.3.3,1.3.2,1.3.2h2.8l1.3-.2,1.3-.2,1.3-.3,1.2-.4,1.2-.5,1.1-.6,1.1-.7,1-.7,1-.8.9-.9.9-.9.8-1,.7-1,.7-1.1.6-1.2.5-1.2.4-1.2.3-1.3.2-1.3.1-1.3.1-1.4-.1-1.4-.1-1.3-.2-1.3-.3-1.3-.4-1.2-.5-1.2-.6-1.2-.7-1.1-.7-1-.8-1-.9-.9-.9-.9-1-.8-1-.7-1.1-.7-1.1-.6-1.2-.5-1.2-.4-1.3-.3-1.3-.2-1.3-.1h-2.8Z" transform="translate(-170.3 0.8)"/><path id="a3uFxF0zg-2" data-name="a3uFxF0zg" class="cls-1" d="M326.7,588.5l1.3.2,1.2.3,1.2.4,1.2.5,1.1.5,1.1.6,1.1.7,1,.7,1,.8.9.9.9.9.8,1,.7,1,.7,1.1.6,1.1.5,1.1.5,1.2.4,1.2.3,1.3.2,1.3.1,1.3v2.6l-.1,1.3-.2,1.3-.3,1.2-.4,1.2-.5,1.2-.5,1.1-.6,1.1-.7,1.1-.7,1-.8,1-.9.9-.9.9-1,.8-1,.7-1.1.7-1.1.6-1.1.5-1.2.5-1.2.4-1.2.3-1.3.2-1.3.1h-2.6l-1.3-.1-1.3-.2-1.3-.3-1.2-.4-1.2-.5-1.1-.5-1.1-.6-1.1-.7-1-.7-1-.8-.9-.9-.9-.9-.8-1-.7-1-.7-1.1-.6-1.1-.5-1.1-.5-1.2-.4-1.2-.3-1.2-.2-1.3-.1-1.3v-2.6l.1-1.3.2-1.3.3-1.3.4-1.2.5-1.2.5-1.1.6-1.1.7-1.1.7-1,.8-1,.9-.9.9-.9,1-.8,1-.7,1.1-.7,1.1-.6,1.1-.5,1.2-.5,1.2-.4,1.3-.3,1.3-.2,1.3-.1h2.6Zm-5.4,1.3-1.3.2-1.3.3-1.2.4-1.2.5-1.1.6-1.1.7-1,.7-1,.8-.9.9-.9.9-.8,1-.7,1-.7,1.1-.6,1.2-.5,1.2-.4,1.2-.3,1.3-.2,1.3-.1,1.3v2.8l.1,1.3.2,1.3.3,1.3.4,1.2.5,1.2.6,1.1.7,1.1.7,1,.8,1,.9.9.9.9,1,.8,1,.7,1.1.7,1.1.6,1.2.5,1.2.4,1.3.3,1.3.2,1.3.2h2.8l1.3-.2,1.3-.2,1.3-.3,1.2-.4,1.2-.5,1.1-.6,1.1-.7,1-.7,1-.8.9-.9.9-.9.8-1,.7-1,.7-1.1.6-1.2.5-1.2.4-1.2.3-1.3.2-1.3.1-1.3.1-1.4-.1-1.4-.1-1.3-.2-1.3-.3-1.3-.4-1.2-.5-1.2-.6-1.2-.7-1.1-.7-1-.8-1-.9-.9-.9-.9-1-.8-1-.7-1.1-.7-1.1-.6-1.2-.5-1.2-.4-1.3-.3-1.3-.2-1.3-.1h-2.8Z" transform="translate(-170.3 0.8)"/><path id="b1DHSbEbFE" d="M326.7,593.1l1.3.3,1.2.4,1.2.5,1.1.6,1.1.7,1,.8.9.9.9.9.8,1,.7,1.1.6,1.1.5,1.2.4,1.2.3,1.3.2,1.3.1,1.4-.1,1.4-.2,1.3-.3,1.3L338,613l-.5,1.2-.6,1.1-.7,1.1-.8,1-.9.9-.9.9-1,.8-1.1.7-1.1.6-1.2.5-1.2.4-1.3.3-1.3.2-1.4.1-1.4-.1-1.3-.2-1.3-.3-1.2-.4-1.2-.5-1.1-.6-1.1-.7-1-.8-.9-.9-.9-.9-.8-1-.7-1.1-.6-1.1L310,613l-.4-1.2-.3-1.3-.2-1.3-.1-1.4.1-1.4.2-1.3.3-1.3.4-1.2.5-1.2.6-1.1.7-1.1.8-1,.9-.9.9-.9,1-.8,1.1-.7,1.1-.6,1.2-.5,1.2-.4,1.3-.3,1.3-.2,1.4-.1,1.4.1Zm-5.3,3.5-1.2.4-1.2.5-1.1.6-1,.7-.9.8-.9.9-.7,1-.6,1.1-.5,1.2-.4,1.2-.2,1.3-.1,1.3.1,1.3.2,1.3.4,1.2.5,1.2.6,1.1.7,1,.9.9.9.8,1,.7,1.1.6,1.2.5,1.2.4,1.3.2,1.3.1,1.3-.1,1.3-.2,1.2-.4,1.2-.5,1.1-.6,1-.7,1-.8.8-.9.7-1,.6-1.1.5-1.2.4-1.2.2-1.3.1-1.3-.1-1.3-.2-1.3-.4-1.2-.5-1.2-.6-1.1-.7-1-.8-.9-1-.8-1-.7-1.1-.6-1.2-.5-1.2-.4-1.3-.2-1.3-.1-1.3.1Z" transform="translate(-170.3 0.8)"/><path id="b1DHSbEbFE-2" data-name="b1DHSbEbFE" class="cls-1" d="M326.7,593.1l1.3.3,1.2.4,1.2.5,1.1.6,1.1.7,1,.8.9.9.9.9.8,1,.7,1.1.6,1.1.5,1.2.4,1.2.3,1.3.2,1.3.1,1.4-.1,1.4-.2,1.3-.3,1.3L338,613l-.5,1.2-.6,1.1-.7,1.1-.8,1-.9.9-.9.9-1,.8-1.1.7-1.1.6-1.2.5-1.2.4-1.3.3-1.3.2-1.4.1-1.4-.1-1.3-.2-1.3-.3-1.2-.4-1.2-.5-1.1-.6-1.1-.7-1-.8-.9-.9-.9-.9-.8-1-.7-1.1-.6-1.1L310,613l-.4-1.2-.3-1.3-.2-1.3-.1-1.4.1-1.4.2-1.3.3-1.3.4-1.2.5-1.2.6-1.1.7-1.1.8-1,.9-.9.9-.9,1-.8,1.1-.7,1.1-.6,1.2-.5,1.2-.4,1.3-.3,1.3-.2,1.4-.1,1.4.1Zm-5.3,3.5-1.2.4-1.2.5-1.1.6-1,.7-.9.8-.9.9-.7,1-.6,1.1-.5,1.2-.4,1.2-.2,1.3-.1,1.3.1,1.3.2,1.3.4,1.2.5,1.2.6,1.1.7,1,.9.9.9.8,1,.7,1.1.6,1.2.5,1.2.4,1.3.2,1.3.1,1.3-.1,1.3-.2,1.2-.4,1.2-.5,1.1-.6,1-.7,1-.8.8-.9.7-1,.6-1.1.5-1.2.4-1.2.2-1.3.1-1.3-.1-1.3-.2-1.3-.4-1.2-.5-1.2-.6-1.1-.7-1-.8-.9-1-.8-1-.7-1.1-.6-1.2-.5-1.2-.4-1.3-.2-1.3-.1-1.3.1Z" transform="translate(-170.3 0.8)"/><path id="a1miOHVmAE" d="M326.3,605.6v-3.4A2.18,2.18,0,0,0,324,600a2.24,2.24,0,0,0-2.3,2.2v3.4h-3.4a2.18,2.18,0,0,0-2.2,2.3,2.24,2.24,0,0,0,2.2,2.3h3.4v3.4a2.3,2.3,0,0,0,4.6,0v-3.4h3.4a2.26,2.26,0,0,0,2.3-2.3,2.33,2.33,0,0,0-2.3-2.3Z" transform="translate(-170.3 0.8)"/><path id="a1miOHVmAE-2" data-name="a1miOHVmAE" class="cls-1" d="M326.3,605.6v-3.4A2.18,2.18,0,0,0,324,600a2.24,2.24,0,0,0-2.3,2.2v3.4h-3.4a2.18,2.18,0,0,0-2.2,2.3,2.24,2.24,0,0,0,2.2,2.3h3.4v3.4a2.3,2.3,0,0,0,4.6,0v-3.4h3.4a2.26,2.26,0,0,0,2.3-2.3,2.33,2.33,0,0,0-2.3-2.3Z" transform="translate(-170.3 0.8)"/><path id="b4lQvBTt" d="M281.9,136.2l1.3.2,1.3.3,1.2.4,1.2.5,1.2.5,1.1.6,1.1.7,1,.7,1,.8.9.9.9.9.8,1,.8,1,.7,1.1.6,1.1.5,1.2.5,1.2.4,1.2.3,1.3.2,1.3.1,1.3v2.7l-.1,1.3-.2,1.3-.3,1.3-.4,1.2-.5,1.2-.5,1.2-.6,1.1-.7,1.1-.8,1-.8,1-.9.9-.9.9-1,.8-1,.7-1.1.7-1.1.6-1.2.5-1.2.5-1.2.4-1.3.3-1.3.2-1.3.1h-2.8l-1.3-.1-1.3-.2L274,175l-1.2-.4-1.2-.5-1.2-.5-1.1-.6-1.1-.7-1-.7-1-.8-.9-.9-.9-.9-.8-1-.8-1-.7-1.1-.6-1.1-.5-1.2-.5-1.2-.4-1.2-.3-1.3-.2-1.3-.1-1.3-.1-1.3.1-1.4.1-1.3.2-1.3.3-1.3.4-1.2.5-1.2.5-1.2.6-1.1.7-1.1.8-1,.8-1,.9-.9.9-.9,1-.8,1-.7,1.1-.7,1.1-.6,1.2-.5,1.2-.5,1.2-.4,1.3-.3,1.3-.2,1.3-.1h2.8Zm-5.3,4.6-1.2.3-1.2.4-1.2.5-1.1.6-1.1.6-1,.7-.9.8-.9.9-.8.9-.7,1-.6,1.1-.6,1.1-.5,1.2-.4,1.2-.3,1.2-.2,1.3-.1,1.3.1,1.3.2,1.3.3,1.2.4,1.2.5,1.2.6,1.1.6,1.1.7,1,.8.9.9.9.9.8,1,.7,1.1.6,1.1.6,1.2.5,1.2.4,1.2.3,1.3.2,1.3.1,1.3-.1,1.3-.2,1.2-.3,1.2-.4,1.2-.5,1.1-.6,1.1-.6,1-.7.9-.8.9-.9.8-.9.7-1,.6-1.1.6-1.1.5-1.2.4-1.2.3-1.2.2-1.3.1-1.3-.1-1.3-.2-1.3L294,152l-.4-1.2-.5-1.2-.6-1.1-.6-1.1-.7-1-.8-.9-.9-.9-.9-.8-1-.7-1.1-.6-1.1-.6-1.2-.5L283,141l-1.2-.3-1.3-.2-1.3-.1-1.3.1Z" transform="translate(-170.3 0.8)"/><path id="b4lQvBTt-2" data-name="b4lQvBTt" class="cls-1" d="M281.9,136.2l1.3.2,1.3.3,1.2.4,1.2.5,1.2.5,1.1.6,1.1.7,1,.7,1,.8.9.9.9.9.8,1,.8,1,.7,1.1.6,1.1.5,1.2.5,1.2.4,1.2.3,1.3.2,1.3.1,1.3v2.7l-.1,1.3-.2,1.3-.3,1.3-.4,1.2-.5,1.2-.5,1.2-.6,1.1-.7,1.1-.8,1-.8,1-.9.9-.9.9-1,.8-1,.7-1.1.7-1.1.6-1.2.5-1.2.5-1.2.4-1.3.3-1.3.2-1.3.1h-2.8l-1.3-.1-1.3-.2L274,175l-1.2-.4-1.2-.5-1.2-.5-1.1-.6-1.1-.7-1-.7-1-.8-.9-.9-.9-.9-.8-1-.8-1-.7-1.1-.6-1.1-.5-1.2-.5-1.2-.4-1.2-.3-1.3-.2-1.3-.1-1.3-.1-1.3.1-1.4.1-1.3.2-1.3.3-1.3.4-1.2.5-1.2.5-1.2.6-1.1.7-1.1.8-1,.8-1,.9-.9.9-.9,1-.8,1-.7,1.1-.7,1.1-.6,1.2-.5,1.2-.5,1.2-.4,1.3-.3,1.3-.2,1.3-.1h2.8Zm-5.3,4.6-1.2.3-1.2.4-1.2.5-1.1.6-1.1.6-1,.7-.9.8-.9.9-.8.9-.7,1-.6,1.1-.6,1.1-.5,1.2-.4,1.2-.3,1.2-.2,1.3-.1,1.3.1,1.3.2,1.3.3,1.2.4,1.2.5,1.2.6,1.1.6,1.1.7,1,.8.9.9.9.9.8,1,.7,1.1.6,1.1.6,1.2.5,1.2.4,1.2.3,1.3.2,1.3.1,1.3-.1,1.3-.2,1.2-.3,1.2-.4,1.2-.5,1.1-.6,1.1-.6,1-.7.9-.8.9-.9.8-.9.7-1,.6-1.1.6-1.1.5-1.2.4-1.2.3-1.2.2-1.3.1-1.3-.1-1.3-.2-1.3L294,152l-.4-1.2-.5-1.2-.6-1.1-.6-1.1-.7-1-.8-.9-.9-.9-.9-.8-1-.7-1.1-.6-1.1-.6-1.2-.5L283,141l-1.2-.3-1.3-.2-1.3-.1-1.3.1Z" transform="translate(-170.3 0.8)"/><path id="aOHj2Pbi" d="M254.6,417.1l1.2.4,1.2.5,1.1.6,1,.7.9.8.8.9.7,1,.6,1.1.5,1.2.4,1.2.2,1.3.1,1.3-.1,1.3-.2,1.3-.4,1.2-.5,1.2-.6,1.1-.7,1-.8.9-.9.8-1,.7-1.1.6-1.2.5-1.2.4-1.3.2-1.3.1-1.3-.1-1.3-.2-1.2-.4-1.2-.5-1.1-.6-1-.7-.9-.8-.8-.9-.7-1-.6-1.1-.5-1.2-.4-1.2-.2-1.3-.1-1.3.1-1.3.2-1.3.4-1.2.5-1.2.6-1.1.7-1,.8-.9.9-.8,1-.7,1.1-.6,1.2-.5,1.2-.4,1.3-.2,1.3-.1,1.3.1Zm-5.3,2.3-1.2.5-1.1.6-1,.8-.9.9-.8,1-.6,1.1-.5,1.2-.3,1.3-.1,1.4.1,1.4.3,1.3.5,1.2.6,1.1.8,1,.9.9,1,.8,1.1.6,1.2.5,1.3.3,1.3.1,1.3-.1,1.3-.3,1.2-.5,1.1-.6,1-.8.9-.9.8-1,.6-1.1.5-1.2.3-1.3.1-1.4-.1-1.4-.3-1.3-.5-1.2-.6-1.1-.8-1-.9-.9-1-.8-1.1-.6-1.2-.5-1.3-.3-1.4-.1-1.3.1Z" transform="translate(-170.3 0.8)"/><path id="aOHj2Pbi-2" data-name="aOHj2Pbi" class="cls-1" d="M254.6,417.1l1.2.4,1.2.5,1.1.6,1,.7.9.8.8.9.7,1,.6,1.1.5,1.2.4,1.2.2,1.3.1,1.3-.1,1.3-.2,1.3-.4,1.2-.5,1.2-.6,1.1-.7,1-.8.9-.9.8-1,.7-1.1.6-1.2.5-1.2.4-1.3.2-1.3.1-1.3-.1-1.3-.2-1.2-.4-1.2-.5-1.1-.6-1-.7-.9-.8-.8-.9-.7-1-.6-1.1-.5-1.2-.4-1.2-.2-1.3-.1-1.3.1-1.3.2-1.3.4-1.2.5-1.2.6-1.1.7-1,.8-.9.9-.8,1-.7,1.1-.6,1.2-.5,1.2-.4,1.3-.2,1.3-.1,1.3.1Zm-5.3,2.3-1.2.5-1.1.6-1,.8-.9.9-.8,1-.6,1.1-.5,1.2-.3,1.3-.1,1.4.1,1.4.3,1.3.5,1.2.6,1.1.8,1,.9.9,1,.8,1.1.6,1.2.5,1.3.3,1.3.1,1.3-.1,1.3-.3,1.2-.5,1.1-.6,1-.8.9-.9.8-1,.6-1.1.5-1.2.3-1.3.1-1.4-.1-1.4-.3-1.3-.5-1.2-.6-1.1-.8-1-.9-.9-1-.8-1.1-.6-1.2-.5-1.3-.3-1.4-.1-1.3.1Z" transform="translate(-170.3 0.8)"/><path id="f7g1o1BOWR" d="M352.6,0h1.8l.2.1.2.1.2.1.2.1.2.1.2.1.2.1.1.1.1.1.1.1.1.1,52.1,34h45.8l15.5,82.1v523H170.8v-523L186.3,35h45.8L284.2,1l.1-.1.1-.1.2-.1.1-.1.1-.1.2-.1.1-.1.2-.1.2-.1.2-.1.2-.1h4.2l.2.1.2.1.2.1.2.1.2.1.2.1.1.1.1.1.1.1.1.1.2.1.1.1.1.1.1.1.1.1.1.1.1.1.1.1.1.1.1.1.1.1.1.1.1.1.1.1.1.1.1.1.1.1.1.1.1.2.1.1.1.1.1.2.1.2.1.2.1.2.1.2v.2l.1.2V38.7l.3.4.3.4.4.4.4.4.4.4.5.4.5.4.5.4.5.4.6.4.6.4.6.4.6.3.6.3.7.3.7.3.7.3.7.3.7.3.7.3.8.3.8.3.8.3.8.2.8.2.8.2.8.2.8.2.8.2.8.2.8.1.8.1.8.1.8.1.7.1.7.1.7.1H323l.7-.1.7-.1.7-.1.7-.1.7-.1.8-.1.8-.2.8-.2.8-.2.8-.2.8-.2L331,47l.8-.2.8-.2.8-.3.6-.3.7-.3.7-.3.7-.3.7-.3.7-.3.7-.3.7-.4.7-.3.6-.4.6-.4.6-.4.6-.3.6-.4.5-.4.5-.4.5-.4.5-.4.4-.4.4-.4.4-.4.3-.4V4.1l.1-.2.1-.2.1-.2.1-.2.1-.2.1-.2.1-.1.1-.1.1-.2.1-.1.1-.1.1-.1.1-.1.1-.1.1-.1.1-.1.1-.1.1-.1.1-.1.1-.1.1-.1.1-.1.1-.1.1-.1.1-.1.1-.1.1-.1.2-.1.1-.1.1-.1.2-.1.2-.1.1-.1.2-.1.2-.1.2-.1.2-.1h2.1ZM223.1,630.8H425V557.6H223.1ZM203,622.2H179.9v8.6h40.9V504.7l.5-.4,2.1-1.4,2.1-1.4,2.1-1.3,2.1-1.3,2.2-1.2,2.2-1.2,2.2-1.2,2.2-1.1,2.3-1.1,2.3-1.1,2.3-1,2.3-1,2.4-1,2.4-.9,2.4-.9,2.4-.9,2.5-.8,2.5-.8,2.5-.8,2.5-.7,2.6-.7,2.6-.6,2.6-.6,2.6-.6,2.7-.5,2.7-.5,2.7-.5,2.8-.4,2.8-.4,2.8-.4,2.9-.3,2.9-.3,2.9-.3,2.9-.2,3-.2,3-.2,3-.1,3.1-.1,3.1-.1h6.2l3.1.1,3.1.1,3,.1,3,.2,3,.2,2.9.2,2.9.3,2.9.3,2.9.3,2.8.4,2.8.4,2.8.4,2.7.5,2.7.5,2.7.5,2.6.6,2.6.6,2.6.6,2.6.7,2.6.7,2.5.8,2.5.8,2.5.8,2.4.9,2.4.9,2.4.9,2.4,1,2.3,1,2.3,1,2.3,1.1,2.3,1.1,2.2,1.1,2.2,1.2,2.2,1.2,2.1,1.2,2.1,1.3,2.1,1.3,2.1,1.4,2.1,1.4.5.4V630.9h32.9v-8.6H440.1V462.5H203Zm-23.1-4.5h18.6V457.9h33.7V386.8l-33.2-21v-177l33.3-21v-48H180V617.7ZM407.5,167.8l33.2,21V365.9l-33.2,21V458h37V617.7h15.6V119.8H407.5ZM317.9,478.7l-3,.1-3,.1-3,.1-2.9.2-2.9.2-2.9.2-2.8.3-2.8.3-2.8.4-2.7.4-2.7.4-2.7.4-2.7.5-2.6.5-2.6.6-2.6.6-2.5.6-2.5.7-2.5.7-2.5.7-2.5.8-2.4.8-2.4.8-2.4.9-2.3.9-2.3.9-2.3,1-2.3,1-2.2,1.1-2.2,1.1-2.2,1.1-2.2,1.1-2.1,1.2-2.1,1.2-2.1,1.2-2.1,1.3-2,1.3-2,1.4v49.4H425V505.8l-2-1.4-2-1.3-2.1-1.3-2.1-1.2-2.1-1.2-2.2-1.2-2.2-1.1-2.2-1.1-2.2-1.1-2.2-1.1-2.3-1-2.3-1-2.3-.9-2.3-.9-2.4-.9-2.4-.8-2.4-.8-2.5-.8-2.5-.7-2.5-.7-2.5-.7-2.6-.6-2.6-.6-2.6-.6-2.6-.5-2.7-.5-2.7-.4-2.7-.4-2.8-.4-2.8-.4-2.8-.3-2.8-.3-2.9-.2-2.9-.2-2.9-.2-3-.1-3-.1-3-.1h-12ZM234.4,169l-33.2,21V364.6l33.2,21V458H405.2V385.6l33.2-21V190l-33.2-21V119.7H234.4Zm-54-53.8h51.8v-71H193.9Zm227.1,0h52.1l-13.4-71H407.5Zm-173.1,0H405.2v-71H353l-.4.5-.5.5-.5.5-.5.5-.5.5-.5.5-.5.5-.6.5-.6.4-.6.4-.6.4-.6.4-.6.4-.6.4-.7.4-.7.4-.7.4-.7.3-.7.4-.7.3-.7.3-.7.3-.7.3-.7.3-.7.3-.7.3-.7.3-.7.2-.7.2-.7.2-.7.2-.7.2-.7.2-.7.2-.7.2-.7.2-.7.1-.7.2-.7.1-.7.1H314.8l-.4-.1h-1.1l-.4-.1-.4-.1-.4-.1-.4-.1-.4-.1-.4-.1-.4-.1-.4-.1-.4-.1-.4-.1-.4-.1-.4-.1-.4-.1-.4-.1-.4-.1-.4-.1-.4-.1-.4-.1-.4-.1-.4-.1-.4-.1-.4-.1-.6-.2-.6-.2-.6-.2-.6-.2-.6-.2-.5-.2-.6-.2-.5-.2-.6-.2-.5-.2-.5-.2-.5-.2-.5-.2-.5-.2-.5-.2-.5-.3-.5-.3-.5-.3-.5-.3-.5-.3-.5-.3-.5-.3-.5-.3-.5-.3-.5-.3-.4-.3-.4-.3-.4-.3-.4-.3-.4-.3-.4-.4-.4-.3-.4-.4-.4-.4-.4-.4-.4-.4-.3-.4-.3-.4-.3-.4-.3-.4H233.2v71.7ZM398.3,39.7,355.2,11.6V39.7Zm-113.5,0V11.6L241.7,39.7Z" transform="translate(-170.3 0.8)"/><path id="f7g1o1BOWR-2" data-name="f7g1o1BOWR" class="cls-1" d="M352.6,0h1.8l.2.1.2.1.2.1.2.1.2.1.2.1.2.1.1.1.1.1.1.1.1.1,52.1,34h45.8l15.5,82.1v523H170.8v-523L186.3,35h45.8L284.2,1l.1-.1.1-.1.2-.1.1-.1.1-.1.2-.1.1-.1.2-.1.2-.1.2-.1.2-.1h4.2l.2.1.2.1.2.1.2.1.2.1.2.1.1.1.1.1.1.1.1.1.2.1.1.1.1.1.1.1.1.1.1.1.1.1.1.1.1.1.1.1.1.1.1.1.1.1.1.1.1.1.1.1.1.1.1.1.1.2.1.1.1.1.1.2.1.2.1.2.1.2.1.2v.2l.1.2V38.7l.3.4.3.4.4.4.4.4.4.4.5.4.5.4.5.4.5.4.6.4.6.4.6.4.6.3.6.3.7.3.7.3.7.3.7.3.7.3.7.3.8.3.8.3.8.3.8.2.8.2.8.2.8.2.8.2.8.2.8.2.8.1.8.1.8.1.8.1.7.1.7.1.7.1H323l.7-.1.7-.1.7-.1.7-.1.7-.1.8-.1.8-.2.8-.2.8-.2.8-.2.8-.2L331,47l.8-.2.8-.2.8-.3.6-.3.7-.3.7-.3.7-.3.7-.3.7-.3.7-.3.7-.4.7-.3.6-.4.6-.4.6-.4.6-.3.6-.4.5-.4.5-.4.5-.4.5-.4.4-.4.4-.4.4-.4.3-.4V4.1l.1-.2.1-.2.1-.2.1-.2.1-.2.1-.2.1-.1.1-.1.1-.2.1-.1.1-.1.1-.1.1-.1.1-.1.1-.1.1-.1.1-.1.1-.1.1-.1.1-.1.1-.1.1-.1.1-.1.1-.1.1-.1.1-.1.1-.1.2-.1.1-.1.1-.1.2-.1.2-.1.1-.1.2-.1.2-.1.2-.1.2-.1h2.1ZM223.1,630.8H425V557.6H223.1ZM203,622.2H179.9v8.6h40.9V504.7l.5-.4,2.1-1.4,2.1-1.4,2.1-1.3,2.1-1.3,2.2-1.2,2.2-1.2,2.2-1.2,2.2-1.1,2.3-1.1,2.3-1.1,2.3-1,2.3-1,2.4-1,2.4-.9,2.4-.9,2.4-.9,2.5-.8,2.5-.8,2.5-.8,2.5-.7,2.6-.7,2.6-.6,2.6-.6,2.6-.6,2.7-.5,2.7-.5,2.7-.5,2.8-.4,2.8-.4,2.8-.4,2.9-.3,2.9-.3,2.9-.3,2.9-.2,3-.2,3-.2,3-.1,3.1-.1,3.1-.1h6.2l3.1.1,3.1.1,3,.1,3,.2,3,.2,2.9.2,2.9.3,2.9.3,2.9.3,2.8.4,2.8.4,2.8.4,2.7.5,2.7.5,2.7.5,2.6.6,2.6.6,2.6.6,2.6.7,2.6.7,2.5.8,2.5.8,2.5.8,2.4.9,2.4.9,2.4.9,2.4,1,2.3,1,2.3,1,2.3,1.1,2.3,1.1,2.2,1.1,2.2,1.2,2.2,1.2,2.1,1.2,2.1,1.3,2.1,1.3,2.1,1.4,2.1,1.4.5.4V630.9h32.9v-8.6H440.1V462.5H203Zm-23.1-4.5h18.6V457.9h33.7V386.8l-33.2-21v-177l33.3-21v-48H180V617.7ZM407.5,167.8l33.2,21V365.9l-33.2,21V458h37V617.7h15.6V119.8H407.5ZM317.9,478.7l-3,.1-3,.1-3,.1-2.9.2-2.9.2-2.9.2-2.8.3-2.8.3-2.8.4-2.7.4-2.7.4-2.7.4-2.7.5-2.6.5-2.6.6-2.6.6-2.5.6-2.5.7-2.5.7-2.5.7-2.5.8-2.4.8-2.4.8-2.4.9-2.3.9-2.3.9-2.3,1-2.3,1-2.2,1.1-2.2,1.1-2.2,1.1-2.2,1.1-2.1,1.2-2.1,1.2-2.1,1.2-2.1,1.3-2,1.3-2,1.4v49.4H425V505.8l-2-1.4-2-1.3-2.1-1.3-2.1-1.2-2.1-1.2-2.2-1.2-2.2-1.1-2.2-1.1-2.2-1.1-2.2-1.1-2.3-1-2.3-1-2.3-.9-2.3-.9-2.4-.9-2.4-.8-2.4-.8-2.5-.8-2.5-.7-2.5-.7-2.5-.7-2.6-.6-2.6-.6-2.6-.6-2.6-.5-2.7-.5-2.7-.4-2.7-.4-2.8-.4-2.8-.4-2.8-.3-2.8-.3-2.9-.2-2.9-.2-2.9-.2-3-.1-3-.1-3-.1h-12ZM234.4,169l-33.2,21V364.6l33.2,21V458H405.2V385.6l33.2-21V190l-33.2-21V119.7H234.4Zm-54-53.8h51.8v-71H193.9Zm227.1,0h52.1l-13.4-71H407.5Zm-173.1,0H405.2v-71H353l-.4.5-.5.5-.5.5-.5.5-.5.5-.5.5-.5.5-.6.5-.6.4-.6.4-.6.4-.6.4-.6.4-.6.4-.7.4-.7.4-.7.4-.7.3-.7.4-.7.3-.7.3-.7.3-.7.3-.7.3-.7.3-.7.3-.7.3-.7.2-.7.2-.7.2-.7.2-.7.2-.7.2-.7.2-.7.2-.7.2-.7.1-.7.2-.7.1-.7.1H314.8l-.4-.1h-1.1l-.4-.1-.4-.1-.4-.1-.4-.1-.4-.1-.4-.1-.4-.1-.4-.1-.4-.1-.4-.1-.4-.1-.4-.1-.4-.1-.4-.1-.4-.1-.4-.1-.4-.1-.4-.1-.4-.1-.4-.1-.4-.1-.4-.1-.6-.2-.6-.2-.6-.2-.6-.2-.6-.2-.5-.2-.6-.2-.5-.2-.6-.2-.5-.2-.5-.2-.5-.2-.5-.2-.5-.2-.5-.2-.5-.3-.5-.3-.5-.3-.5-.3-.5-.3-.5-.3-.5-.3-.5-.3-.5-.3-.5-.3-.4-.3-.4-.3-.4-.3-.4-.3-.4-.3-.4-.4-.4-.3-.4-.4-.4-.4-.4-.4-.4-.4-.3-.4-.3-.4-.3-.4-.3-.4H233.2v71.7ZM398.3,39.7,355.2,11.6V39.7Zm-113.5,0V11.6L241.7,39.7Z" transform="translate(-170.3 0.8)"/><path id="f4dyKzHGn" d="M389.5,417.1l1.2.4,1.2.5,1.1.6,1,.7.9.8.8.9.7,1,.6,1.1.5,1.2.4,1.2.2,1.3.1,1.3-.1,1.3-.2,1.3-.4,1.2-.5,1.2-.6,1.1-.7,1-.8.9-.9.8-1,.7-1.1.6-1.2.5-1.2.4-1.3.2-1.3.1-1.3-.1-1.3-.2-1.2-.4-1.2-.5-1.1-.6-1-.7-.9-.8-.8-.9-.7-1-.6-1.1-.5-1.2-.4-1.2-.2-1.3-.1-1.3.1-1.3.2-1.3.4-1.2.5-1.2.6-1.1.7-1,.8-.9.9-.8,1-.7,1.1-.6,1.2-.5,1.2-.4,1.3-.2,1.3-.1,1.3.1Zm-5.2,2.3-1.2.5-1.1.6-1,.8-.9.9-.8,1-.6,1.1-.5,1.2-.3,1.3-.1,1.4.1,1.4.3,1.3.5,1.2.6,1.1.8,1,.9.9,1,.8,1.1.6,1.2.5,1.3.3,1.4.1,1.3-.1,1.3-.3,1.2-.5,1.1-.6,1-.8.9-.9.8-1,.6-1.1.5-1.2.3-1.3.1-1.4-.1-1.4-.3-1.3-.5-1.2-.6-1.1-.8-1-.9-.9-1-.8-1.1-.6-1.2-.5-1.3-.3-1.4-.1-1.4.1Z" transform="translate(-170.3 0.8)"/><path id="f4dyKzHGn-2" data-name="f4dyKzHGn" class="cls-1" d="M389.5,417.1l1.2.4,1.2.5,1.1.6,1,.7.9.8.8.9.7,1,.6,1.1.5,1.2.4,1.2.2,1.3.1,1.3-.1,1.3-.2,1.3-.4,1.2-.5,1.2-.6,1.1-.7,1-.8.9-.9.8-1,.7-1.1.6-1.2.5-1.2.4-1.3.2-1.3.1-1.3-.1-1.3-.2-1.2-.4-1.2-.5-1.1-.6-1-.7-.9-.8-.8-.9-.7-1-.6-1.1-.5-1.2-.4-1.2-.2-1.3-.1-1.3.1-1.3.2-1.3.4-1.2.5-1.2.6-1.1.7-1,.8-.9.9-.8,1-.7,1.1-.6,1.2-.5,1.2-.4,1.3-.2,1.3-.1,1.3.1Zm-5.2,2.3-1.2.5-1.1.6-1,.8-.9.9-.8,1-.6,1.1-.5,1.2-.3,1.3-.1,1.4.1,1.4.3,1.3.5,1.2.6,1.1.8,1,.9.9,1,.8,1.1.6,1.2.5,1.3.3,1.4.1,1.3-.1,1.3-.3,1.2-.5,1.1-.6,1-.8.9-.9.8-1,.6-1.1.5-1.2.3-1.3.1-1.4-.1-1.4-.3-1.3-.5-1.2-.6-1.1-.8-1-.9-.9-1-.8-1.1-.6-1.2-.5-1.3-.3-1.4-.1-1.4.1Z" transform="translate(-170.3 0.8)"/><path id="anvulicaq" d="M255.9,231.1V213H274v18.1Zm5.3-5.4h7.6v-7.3h-7.6Z" transform="translate(-170.3 0.8)"/><path id="anvulicaq-2" data-name="anvulicaq" class="cls-1" d="M255.9,231.1V213H274v18.1Zm5.3-5.4h7.6v-7.3h-7.6Z" transform="translate(-170.3 0.8)"/><path id="b3bwMS7bKq" d="M260.8,209.6a.62.62,0,0,0,.8.1,8.65,8.65,0,0,0,3-7h0a8.72,8.72,0,0,0-3-7.1.57.57,0,0,0-.7.9c1.8,1.4,2.6,3.5,2.6,6.2h0a7.64,7.64,0,0,1-2.6,6.2A.47.47,0,0,0,260.8,209.6Z" transform="translate(-170.3 0.8)"/><path id="b3bwMS7bKq-2" data-name="b3bwMS7bKq" class="cls-1" d="M260.8,209.6a.62.62,0,0,0,.8.1,8.65,8.65,0,0,0,3-7h0a8.72,8.72,0,0,0-3-7.1.57.57,0,0,0-.7.9c1.8,1.4,2.6,3.5,2.6,6.2h0a7.64,7.64,0,0,1-2.6,6.2A.47.47,0,0,0,260.8,209.6Z" transform="translate(-170.3 0.8)"/><path id="c2fOh5fVy" d="M258.3,207.7a.62.62,0,0,0,.8.1,6.26,6.26,0,0,0,2.3-5.2h0a6,6,0,0,0-2.3-5.2.57.57,0,0,0-.7.9,5.37,5.37,0,0,1,1.9,4.4h0a5,5,0,0,1-1.9,4.3A.42.42,0,0,0,258.3,207.7Z" transform="translate(-170.3 0.8)"/><path id="c2fOh5fVy-2" data-name="c2fOh5fVy" class="cls-1" d="M258.3,207.7a.62.62,0,0,0,.8.1,6.26,6.26,0,0,0,2.3-5.2h0a6,6,0,0,0-2.3-5.2.57.57,0,0,0-.7.9,5.37,5.37,0,0,1,1.9,4.4h0a5,5,0,0,1-1.9,4.3A.42.42,0,0,0,258.3,207.7Z" transform="translate(-170.3 0.8)"/><path id="iagmUfIeW" d="M256.1,206a.76.76,0,0,0,.4-.1,4.59,4.59,0,0,0,0-6.6.57.57,0,1,0-.7.9,3,3,0,0,1,1,2.5,3.38,3.38,0,0,1-1,2.5.42.42,0,0,0-.1.7A.6.6,0,0,0,256.1,206Z" transform="translate(-170.3 0.8)"/><path id="iagmUfIeW-2" data-name="iagmUfIeW" class="cls-1" d="M256.1,206a.76.76,0,0,0,.4-.1,4.59,4.59,0,0,0,0-6.6.57.57,0,1,0-.7.9,3,3,0,0,1,1,2.5,3.38,3.38,0,0,1-1,2.5.42.42,0,0,0-.1.7A.6.6,0,0,0,256.1,206Z" transform="translate(-170.3 0.8)"/><path id="akrsT3xZL" d="M325.8,225.3h12.8v-5.2H325.8v-1.7h12.8v-5.2H320.7V231h5.1Z" transform="translate(-170.3 0.8)"/><path id="akrsT3xZL-2" data-name="akrsT3xZL" class="cls-1" d="M325.8,225.3h12.8v-5.2H325.8v-1.7h12.8v-5.2H320.7V231h5.1Z" transform="translate(-170.3 0.8)"/><path id="d3i9k7vx4" d="M347.1,225.3h12.8v-5.2H347.1v-1.7h12.8v-5.2H342V231h5.1v-5.7Z" transform="translate(-170.3 0.8)"/><path id="d3i9k7vx4-2" data-name="d3i9k7vx4" class="cls-1" d="M347.1,225.3h12.8v-5.2H347.1v-1.7h12.8v-5.2H342V231h5.1v-5.7Z" transform="translate(-170.3 0.8)"/><path id="eWU3QFk1O" d="M298.9,231V213.1h18V231Zm5.2-5.2h7.7v-7.4h-7.7Z" transform="translate(-170.3 0.8)"/><path id="eWU3QFk1O-2" data-name="eWU3QFk1O" class="cls-1" d="M298.9,231V213.1h18V231Zm5.2-5.2h7.7v-7.4h-7.7Z" transform="translate(-170.3 0.8)"/><path id="cm45zEsi7" d="M295.4,213.1H277.3V231h5.1V218.4h7.7V231h5.2V213.1Z" transform="translate(-170.3 0.8)"/><path id="cm45zEsi7-2" data-name="cm45zEsi7" class="cls-1" d="M295.4,213.1H277.3V231h5.1V218.4h7.7V231h5.2V213.1Z" transform="translate(-170.3 0.8)"/><path id="b4IosRtOd" d="M251.5,231.1V218.2h0v-5.3h-13v-7.6h13V200H233.2v12.9h0v5.3h13v7.5h-13V231h18.3Z" transform="translate(-170.3 0.8)"/><path id="b4IosRtOd-2" data-name="b4IosRtOd" class="cls-1" d="M251.5,231.1V218.2h0v-5.3h-13v-7.6h13V200H233.2v12.9h0v5.3h13v7.5h-13V231h18.3Z" transform="translate(-170.3 0.8)"/><path id="ag38F0VDU" d="M248.7,421.7v12.6h9v-2.2h-6.4V421.6h-2.6Z" transform="translate(-170.3 0.8)"/><path id="ag38F0VDU-2" data-name="ag38F0VDU" class="cls-1" d="M248.7,421.7v12.6h9v-2.2h-6.4V421.6h-2.6Z" transform="translate(-170.3 0.8)"/><path id="b6T9p9IFH0" d="M357,421.8h-2.5v12.7h2.4v-8.3l5.1,8.3h2.6V421.8h-2.4v8.5Z" transform="translate(-170.3 0.8)"/><path id="b6T9p9IFH0-2" data-name="b6T9p9IFH0" class="cls-1" d="M357,421.8h-2.5v12.7h2.4v-8.3l5.1,8.3h2.6V421.8h-2.4v8.5Z" transform="translate(-170.3 0.8)"/><path id="aJTZZj6vJ" d="M281.8,417.1l1.2.4,1.2.5,1.1.6,1,.7.9.8.8.9.7,1,.6,1.1.5,1.2.4,1.2.2,1.3.1,1.3-.1,1.3-.2,1.3-.4,1.2-.5,1.2-.6,1.1-.7,1-.8.9-.9.8-1,.7-1.1.6-1.2.8-1.2.4-1.3.2-1.3.1-1.3-.1-1.3-.2-1.2-.4-1.2-.5-1.1-.6-1-.7-.9-.8-.8-.9-.7-1-.6-1.1-.5-1.2-.4-1.2-.2-1.3-.1-1.3.1-1.3.2-1.3.4-1.2.5-1.2.6-1.1.7-1,.8-.9.9-.8,1-.7,1.1-.6,1.2-.5,1.2-.4,1.3-.2,1.3-.1,1.3.1Zm-5.3,2.3-1.2.5-1.1.6-1,.8-.9.9-.8,1-.6,1.1-.5,1.2-.3,1.3-.1,1.4.1,1.4.3,1.3.5,1.2.6,1.1.8,1,.9.9,1,.8,1.1.6,1.2.5,1.3.3,1.4.1,1.3-.1,1.3-.3,1.2-.5,1.1-.6,1-.8.9-.9.8-1,.6-1.1.5-1.2.3-1.3.1-1.4-.1-1.4-.3-1.3-.5-1.2-.6-1.1-.8-1-.9-.9-1-.8-1.1-.6-1.2-.5-1.3-.3-1.4-.1-1.4.1Z" transform="translate(-170.3 0.8)"/><path id="aJTZZj6vJ-2" data-name="aJTZZj6vJ" class="cls-1" d="M281.8,417.1l1.2.4,1.2.5,1.1.6,1,.7.9.8.8.9.7,1,.6,1.1.5,1.2.4,1.2.2,1.3.1,1.3-.1,1.3-.2,1.3-.4,1.2-.5,1.2-.6,1.1-.7,1-.8.9-.9.8-1,.7-1.1.6-1.2.8-1.2.4-1.3.2-1.3.1-1.3-.1-1.3-.2-1.2-.4-1.2-.5-1.1-.6-1-.7-.9-.8-.8-.9-.7-1-.6-1.1-.5-1.2-.4-1.2-.2-1.3-.1-1.3.1-1.3.2-1.3.4-1.2.5-1.2.6-1.1.7-1,.8-.9.9-.8,1-.7,1.1-.6,1.2-.5,1.2-.4,1.3-.2,1.3-.1,1.3.1Zm-5.3,2.3-1.2.5-1.1.6-1,.8-.9.9-.8,1-.6,1.1-.5,1.2-.3,1.3-.1,1.4.1,1.4.3,1.3.5,1.2.6,1.1.8,1,.9.9,1,.8,1.1.6,1.2.5,1.3.3,1.4.1,1.3-.1,1.3-.3,1.2-.5,1.1-.6,1-.8.9-.9.8-1,.6-1.1.5-1.2.3-1.3.1-1.4-.1-1.4-.3-1.3-.5-1.2-.6-1.1-.8-1-.9-.9-1-.8-1.1-.6-1.2-.5-1.3-.3-1.4-.1-1.4.1Z" transform="translate(-170.3 0.8)"/><path id="a1t5PYJV2X" d="M308.6,417.1l1.2.4,1.2.5,1.1.6,1,.7.9.8.8.9.7,1,.6,1.1.5,1.2.4,1.2.2,1.3.1,1.3-.1,1.3-.2,1.3-.4,1.2-.5,1.2-.6,1.1-.7,1-.8.9-.9.8-1,.7-1.1.6-1.2.5-1.2.4-1.3.2-1.3.1-1.3-.1-1.3-.2-1.2-.4-1.2-.5-1.1-.6-1-.7-.9-.8-.8-.9-.7-1-.6-1.1-.5-1.2-.4-1.2-.2-1.3-.1-1.3.1-1.3.2-1.3.4-1.2.5-1.2.6-1.1.7-1,.8-.9.9-.8,1-.7,1.1-.6,1.2-.5,1.2-.4,1.3-.2,1.3-.1,1.3.1Zm-5.3,2.3-1.2.5-1.1.6-1,.8-.9.9-.8,1-.6,1.1-.5,1.2-.3,1.3-.1,1.4.1,1.4.3,1.3.5,1.2.6,1.1.8,1,.9.9,1,.8,1.1.6,1.2.5,1.3.3,1.4.1,1.3-.1,1.3-.3,1.2-.5,1.1-.6,1-.8.9-.9.8-1,.6-1.1.5-1.2.3-1.3.1-1.4-.1-1.4-.3-1.3-.5-1.2-.6-1.1-.8-1-.9-.9-1-.8-1.1-.6-1.2-.5-1.3-.3L306,419l-1.4.1Z" transform="translate(-170.3 0.8)"/><path id="a1t5PYJV2X-2" data-name="a1t5PYJV2X" class="cls-1" d="M308.6,417.1l1.2.4,1.2.5,1.1.6,1,.7.9.8.8.9.7,1,.6,1.1.5,1.2.4,1.2.2,1.3.1,1.3-.1,1.3-.2,1.3-.4,1.2-.5,1.2-.6,1.1-.7,1-.8.9-.9.8-1,.7-1.1.6-1.2.5-1.2.4-1.3.2-1.3.1-1.3-.1-1.3-.2-1.2-.4-1.2-.5-1.1-.6-1-.7-.9-.8-.8-.9-.7-1-.6-1.1-.5-1.2-.4-1.2-.2-1.3-.1-1.3.1-1.3.2-1.3.4-1.2.5-1.2.6-1.1.7-1,.8-.9.9-.8,1-.7,1.1-.6,1.2-.5,1.2-.4,1.3-.2,1.3-.1,1.3.1Zm-5.3,2.3-1.2.5-1.1.6-1,.8-.9.9-.8,1-.6,1.1-.5,1.2-.3,1.3-.1,1.4.1,1.4.3,1.3.5,1.2.6,1.1.8,1,.9.9,1,.8,1.1.6,1.2.5,1.3.3,1.4.1,1.3-.1,1.3-.3,1.2-.5,1.1-.6,1-.8.9-.9.8-1,.6-1.1.5-1.2.3-1.3.1-1.4-.1-1.4-.3-1.3-.5-1.2-.6-1.1-.8-1-.9-.9-1-.8-1.1-.6-1.2-.5-1.3-.3L306,419l-1.4.1Z" transform="translate(-170.3 0.8)"/><path id="mxOQ6jsOn" d="M335.3,417.1l1.2.4,1.2.5,1.1.6,1,.7.9.8.8.9.7,1,.6,1.1.5,1.2.4,1.2.2,1.3.1,1.3-.1,1.3-.2,1.3-.4,1.2-.5,1.2-.6,1.1-.7,1-.8.9-.9.8-1,.7-1.1.6-1.2.5-1.2.4-1.3.2-1.3.1-1.3-.1-1.3-.2-1.2-.4-1.2-.5-1.1-.6-1-.7-.9-.8-.8-.9-.7-1-.6-1.1-.5-1.2-.4-1.2-.2-1.3-.1-1.3.1-1.3.2-1.3.4-1.2.5-1.2.6-1.1.7-1,.8-.9.9-.8,1-.7,1.1-.6,1.2-.5,1.2-.4,1.3-.2,1.3-.1,1.3.1Zm-5.2,2.3-1.2.5-1.1.6-1,.8-.9.9-.8,1-.6,1.1-.5,1.2-.3,1.3-.1,1.4.1,1.4.3,1.3.5,1.2.6,1.1.8,1,.9.9,1,.8,1.1.6,1.2.5,1.3.3,1.4.1,1.3-.1,1.3-.3,1.2-.5,1.1-.6,1-.8.9-.9.8-1,.6-1.1.5-1.2.3-1.3.1-1.4-.1-1.4-.3-1.3-.5-1.2-.6-1.1-.8-1-.9-.9-1-.8-1.1-.6-1.2-.5-1.3-.3-1.4-.1-1.4.1Z" transform="translate(-170.3 0.8)"/><path id="mxOQ6jsOn-2" data-name="mxOQ6jsOn" class="cls-1" d="M335.3,417.1l1.2.4,1.2.5,1.1.6,1,.7.9.8.8.9.7,1,.6,1.1.5,1.2.4,1.2.2,1.3.1,1.3-.1,1.3-.2,1.3-.4,1.2-.5,1.2-.6,1.1-.7,1-.8.9-.9.8-1,.7-1.1.6-1.2.5-1.2.4-1.3.2-1.3.1-1.3-.1-1.3-.2-1.2-.4-1.2-.5-1.1-.6-1-.7-.9-.8-.8-.9-.7-1-.6-1.1-.5-1.2-.4-1.2-.2-1.3-.1-1.3.1-1.3.2-1.3.4-1.2.5-1.2.6-1.1.7-1,.8-.9.9-.8,1-.7,1.1-.6,1.2-.5,1.2-.4,1.3-.2,1.3-.1,1.3.1Zm-5.2,2.3-1.2.5-1.1.6-1,.8-.9.9-.8,1-.6,1.1-.5,1.2-.3,1.3-.1,1.4.1,1.4.3,1.3.5,1.2.6,1.1.8,1,.9.9,1,.8,1.1.6,1.2.5,1.3.3,1.4.1,1.3-.1,1.3-.3,1.2-.5,1.1-.6,1-.8.9-.9.8-1,.6-1.1.5-1.2.3-1.3.1-1.4-.1-1.4-.3-1.3-.5-1.2-.6-1.1-.8-1-.9-.9-1-.8-1.1-.6-1.2-.5-1.3-.3-1.4-.1-1.4.1Z" transform="translate(-170.3 0.8)"/><path id="gqOK4R4xx" d="M362.1,417.1l1.2.4,1.2.5,1.1.6,1,.7.9.8.8.9.7,1,.6,1.1.5,1.2.4,1.2.2,1.3.1,1.3-.1,1.3-.2,1.3-.4,1.2-.5,1.2-.6,1.1-.7,1-.8.9-.9.8-1,.7-1.1.6-1.2.5-1.2.4-1.3.2-1.3.1-1.3-.1-1.3-.2-1.2-.4-1.2-.5-1.1-.6-1-.7-.9-.8-.8-.9-.7-1-.6-1.1-.5-1.2-.4-1.2-.2-1.3-.1-1.3.1-1.3.2-1.3.4-1.2.5-1.2.6-1.1.7-1,.8-.9.9-.8,1-.7,1.1-.6,1.2-.5,1.2-.4,1.3-.2,1.3-.1,1.3.1Zm-5.2,2.3-1.2.5-1.1.6-1,.8-.9.9-.8,1-.6,1.1-.5,1.2-.3,1.3-.1,1.4.1,1.4.3,1.3.5,1.2.6,1.1.8,1,.9.9,1,.8,1.1.6,1.2.5,1.3.3,1.4.1,1.3-.1,1.3-.3,1.2-.5,1.1-.6,1-.8.9-.9.8-1,.6-1.1.5-1.2.3-1.3.1-1.4-.1-1.4-.3-1.3-.5-1.2-.6-1.1-.8-1-.9-.9-1-.8-1.1-.6-1.2-.5-1.3-.3-1.4-.1-1.4.1Z" transform="translate(-170.3 0.8)"/><path id="gqOK4R4xx-2" data-name="gqOK4R4xx" class="cls-1" d="M362.1,417.1l1.2.4,1.2.5,1.1.6,1,.7.9.8.8.9.7,1,.6,1.1.5,1.2.4,1.2.2,1.3.1,1.3-.1,1.3-.2,1.3-.4,1.2-.5,1.2-.6,1.1-.7,1-.8.9-.9.8-1,.7-1.1.6-1.2.5-1.2.4-1.3.2-1.3.1-1.3-.1-1.3-.2-1.2-.4-1.2-.5-1.1-.6-1-.7-.9-.8-.8-.9-.7-1-.6-1.1-.5-1.2-.4-1.2-.2-1.3-.1-1.3.1-1.3.2-1.3.4-1.2.5-1.2.6-1.1.7-1,.8-.9.9-.8,1-.7,1.1-.6,1.2-.5,1.2-.4,1.3-.2,1.3-.1,1.3.1Zm-5.2,2.3-1.2.5-1.1.6-1,.8-.9.9-.8,1-.6,1.1-.5,1.2-.3,1.3-.1,1.4.1,1.4.3,1.3.5,1.2.6,1.1.8,1,.9.9,1,.8,1.1.6,1.2.5,1.3.3,1.4.1,1.3-.1,1.3-.3,1.2-.5,1.1-.6,1-.8.9-.9.8-1,.6-1.1.5-1.2.3-1.3.1-1.4-.1-1.4-.3-1.3-.5-1.2-.6-1.1-.8-1-.9-.9-1-.8-1.1-.6-1.2-.5-1.3-.3-1.4-.1-1.4.1Z" transform="translate(-170.3 0.8)"/><path id="b3ZmUD3iea" class="cls-1" d="M0,0" transform="translate(-170.3 0.8)"/><g id="eSq9QJ50u"><g class="cls-2"><path d="M244,405.59a3.16,3.16,0,0,1,.57,1.95,3.41,3.41,0,0,1-.65,2.14,2.9,2.9,0,0,1-4.27.13,3.3,3.3,0,0,1-.68-2.13,3.39,3.39,0,0,1,.58-2,2.51,2.51,0,0,1,2.2-1.06A2.63,2.63,0,0,1,244,405.59Zm-.69,3.66a3.14,3.14,0,0,0,.46-1.69,2.42,2.42,0,0,0-.53-1.63,1.81,1.81,0,0,0-1.45-.62,1.88,1.88,0,0,0-1.45.61,2.58,2.58,0,0,0-.56,1.8,2.64,2.64,0,0,0,.48,1.61,1.81,1.81,0,0,0,1.56.66A1.62,1.62,0,0,0,243.3,409.25Z" transform="translate(-170.3 0.8)"/><path d="M246.09,406.33v2.78a1.2,1.2,0,0,0,.1.52.69.69,0,0,0,.68.38,1,1,0,0,0,1-.66,2.67,2.67,0,0,0,.14-1v-2.05h.7v4.18H248v-.62a1.41,1.41,0,0,1-.33.4,1.45,1.45,0,0,1-1,.33,1.23,1.23,0,0,1-1.2-.6,1.81,1.81,0,0,1-.17-.86v-2.84Z" transform="translate(-170.3 0.8)"/><path d="M250,405.16h.71v1.17h.67v.57h-.67v2.73a.3.3,0,0,0,.15.29.64.64,0,0,0,.27,0h.25v.56l-.25.05-.28,0a.76.76,0,0,1-.67-.25,1.12,1.12,0,0,1-.18-.65V406.9h-.57v-.57H250Z" transform="translate(-170.3 0.8)"/><path d="M252,406.34h.69v.55a1.71,1.71,0,0,1,.46-.44,1.49,1.49,0,0,1,.84-.23,1.58,1.58,0,0,1,1.21.54,2.23,2.23,0,0,1,.5,1.56,2.39,2.39,0,0,1-.72,2,1.63,1.63,0,0,1-1.06.37,1.45,1.45,0,0,1-.8-.21,1.82,1.82,0,0,1-.42-.4v2.14H252Zm2.65,3.28a2,2,0,0,0,.33-1.23,2.29,2.29,0,0,0-.15-.86,1.06,1.06,0,0,0-2,0,2.89,2.89,0,0,0-.15,1,2.1,2.1,0,0,0,.15.82,1.07,1.07,0,0,0,1.82.24Z" transform="translate(-170.3 0.8)"/><path d="M257.22,406.33v2.78a1.2,1.2,0,0,0,.1.52.69.69,0,0,0,.68.38,1,1,0,0,0,1-.66,2.67,2.67,0,0,0,.14-1v-2.05h.7v4.18h-.66v-.62a1.41,1.41,0,0,1-.33.4,1.45,1.45,0,0,1-1,.33,1.23,1.23,0,0,1-1.2-.6,1.81,1.81,0,0,1-.17-.86v-2.84Z" transform="translate(-170.3 0.8)"/><path d="M261.1,405.16h.71v1.17h.67v.57h-.67v2.73a.3.3,0,0,0,.15.29.64.64,0,0,0,.27,0h.25v.56l-.25.05-.28,0a.76.76,0,0,1-.67-.25,1.12,1.12,0,0,1-.18-.65V406.9h-.57v-.57h.57Z" transform="translate(-170.3 0.8)"/></g></g><g id="c29mLbeYMa"><g class="cls-2"><path d="M323.64,404.77h.79v5.74h-.79Z" transform="translate(-170.3 0.8)"/><path d="M325.59,406.33h.67v.59a1.86,1.86,0,0,1,.63-.53,1.68,1.68,0,0,1,.74-.16,1.22,1.22,0,0,1,1.2.62,2.21,2.21,0,0,1,.17,1v2.68h-.71v-2.64a1.43,1.43,0,0,0-.11-.62.69.69,0,0,0-.68-.39,1.37,1.37,0,0,0-.41.05,1.05,1.05,0,0,0-.51.34,1,1,0,0,0-.23.43,2.88,2.88,0,0,0-.05.63v2.19h-.7Z" transform="translate(-170.3 0.8)"/><path d="M330,406.34h.69v.55a1.7,1.7,0,0,1,.46-.44,1.49,1.49,0,0,1,.84-.23,1.58,1.58,0,0,1,1.21.54,2.23,2.23,0,0,1,.5,1.56,2.39,2.39,0,0,1-.72,2,1.63,1.63,0,0,1-1.06.37,1.45,1.45,0,0,1-.8-.21,1.83,1.83,0,0,1-.42-.4v2.14H330Zm2.65,3.28a2,2,0,0,0,.33-1.23,2.29,2.29,0,0,0-.15-.86,1.06,1.06,0,0,0-2,0,2.89,2.89,0,0,0-.14,1,2.1,2.1,0,0,0,.14.82,1.07,1.07,0,0,0,1.83.24Z" transform="translate(-170.3 0.8)"/><path d="M335.19,406.33v2.78a1.21,1.21,0,0,0,.1.52.69.69,0,0,0,.68.38,1,1,0,0,0,1-.66,2.67,2.67,0,0,0,.14-1v-2.05h.7v4.18h-.66v-.62a1.42,1.42,0,0,1-.33.4,1.45,1.45,0,0,1-1,.33,1.23,1.23,0,0,1-1.2-.6,1.82,1.82,0,0,1-.17-.86v-2.84Z" transform="translate(-170.3 0.8)"/><path d="M339.08,405.16h.71v1.17h.67v.57h-.67v2.73a.3.3,0,0,0,.15.29.63.63,0,0,0,.27,0h.25v.56l-.25.05-.28,0a.76.76,0,0,1-.67-.25,1.12,1.12,0,0,1-.18-.65V406.9h-.57v-.57h.57Z" transform="translate(-170.3 0.8)"/></g></g><g id="e2pGpTl1SV"><g class="cls-2"><path d="M372.64,212.67v1.66h-2.8V222h-2v-7.7h-2.81v-1.66Z" transform="translate(-170.3 0.8)"/><path d="M373.77,222v-9.36h1.94v3.57h3.64v-3.57h1.94V222h-1.94v-4.18h-3.64V222Z" transform="translate(-170.3 0.8)"/><path d="M383.08,215.68v-1.23a8,8,0,0,0,1.2-.11,1.69,1.69,0,0,0,.89-.48,1.59,1.59,0,0,0,.35-.66,1.54,1.54,0,0,0,.07-.37h1.51V222h-1.85v-6.35Z" transform="translate(-170.3 0.8)"/><path d="M395.46,214a9.07,9.07,0,0,1,0,7,3.08,3.08,0,0,1-4.93,0,9.07,9.07,0,0,1,0-7,3.07,3.07,0,0,1,4.93,0Zm-3.53,5.94a1,1,0,0,0,1.07.84,1,1,0,0,0,1.06-.84,9,9,0,0,0,.25-2.43,8.85,8.85,0,0,0-.25-2.46,1,1,0,0,0-1.06-.8,1,1,0,0,0-1.07.8,8.6,8.6,0,0,0-.26,2.46A8.7,8.7,0,0,0,391.93,219.94Z" transform="translate(-170.3 0.8)"/></g></g><path id="a2EHGFcr5" d="M328.3,421.4V434h8.9v-2.2h-6.4V421.3h-2.5Z" transform="translate(-170.3 0.8)"/><path id="a2EHGFcr5-2" data-name="a2EHGFcr5" class="cls-1" d="M328.3,421.4V434h8.9v-2.2h-6.4V421.3h-2.5Z" transform="translate(-170.3 0.8)"/><path id="b1T7ZBkzJQ" d="M384.4,421.9h-2.5v12.7h2.4v-8.3l5.1,8.3H392V421.9h-2.4v8.5Z" transform="translate(-170.3 0.8)"/><path id="b1T7ZBkzJQ-2" data-name="b1T7ZBkzJQ" class="cls-1" d="M384.4,421.9h-2.5v12.7h2.4v-8.3l5.1,8.3H392V421.9h-2.4v8.5Z" transform="translate(-170.3 0.8)"/><path id="gcdFEjrSKd" class="cls-3" d="M306,417.8V408H279.2v9.8" transform="translate(-170.3 0.8)"/><path id="b74Lqmf4s4" class="cls-3" d="M386.9,417.8V408H359.5v9.8" transform="translate(-170.3 0.8)"/><path id="b490zacEVl" d="M274.7,421.7v12.6h9v-2.2h-6.4V421.6h-2.6Z" transform="translate(-170.3 0.8)"/><path id="b490zacEVl-2" data-name="b490zacEVl" class="cls-1" d="M274.7,421.7v12.6h9v-2.2h-6.4V421.6h-2.6Z" transform="translate(-170.3 0.8)"/><path id="c1hXTDNdfm" class="cls-3" d="M283.7,422.6h-8.9" transform="translate(-170.3 0.8)"/><path id="a6b0nR7I1M" class="cls-3" d="M283.7,428H276" transform="translate(-170.3 0.8)"/><path id="blA56Xnwa" d="M301.5,421.7v12.6h9v-2.2h-6.4V421.6h-2.6Z" transform="translate(-170.3 0.8)"/><path id="blA56Xnwa-2" data-name="blA56Xnwa" class="cls-1" d="M301.5,421.7v12.6h9v-2.2h-6.4V421.6h-2.6Z" transform="translate(-170.3 0.8)"/><path id="a1NItKn22Y" class="cls-3" d="M310.5,422.6h-9" transform="translate(-170.3 0.8)"/><path id="brAscZHR8" class="cls-3" d="M310.5,428h-7.6" transform="translate(-170.3 0.8)"/></svg>