<?xml version="1.0" encoding="utf-8"?>
<!-- Generator: Adobe Illustrator 21.0.0, SVG Export Plug-In . SVG Version: 6.00 Build 0)  -->
<svg version="1.1" id="Layer_1" xmlns="http://www.w3.org/2000/svg" xmlns:xlink="http://www.w3.org/1999/xlink" x="0px" y="0px"
	 viewBox="0 0 981 714.6" style="enable-background:new 0 0 981 714.6;" xml:space="preserve">
<g>
	<path d="M30.8,532h116.5V93.1H30.8V532z M36.8,526V108.1H49v16.7h80.2v-16.7h12.2V526H36.8z M36.8,105.1v-6h104.5v6h-15.2v16.7H52
		v-16.7H36.8z"/>
	<path d="M89.1,166.8c-14.7,0-26.7,12-26.7,26.7s12,26.7,26.7,26.7s26.7-12,26.7-26.7S103.8,166.8,89.1,166.8z M89.1,214.1
		c-11.4,0-20.7-9.3-20.7-20.7s9.3-20.7,20.7-20.7s20.7,9.3,20.7,20.7S100.5,214.1,89.1,214.1z"/>
	<path d="M89.1,407.6c-14.7,0-26.7,12-26.7,26.7s12,26.7,26.7,26.7s26.7-12,26.7-26.7S103.8,407.6,89.1,407.6z M89.1,455
		c-11.4,0-20.7-9.3-20.7-20.7s9.3-20.7,20.7-20.7s20.7,9.3,20.7,20.7S100.5,455,89.1,455z"/>
	<path d="M89.1,327.3c-14.7,0-26.7,12-26.7,26.7s12,26.7,26.7,26.7s26.7-12,26.7-26.7S103.8,327.3,89.1,327.3z M89.1,374.7
		c-11.4,0-20.7-9.3-20.7-20.7s9.3-20.7,20.7-20.7s20.7,9.3,20.7,20.7S100.5,374.7,89.1,374.7z"/>
	<path d="M89.1,247c-14.7,0-26.7,12-26.7,26.7s12,26.7,26.7,26.7s26.7-12,26.7-26.7S103.8,247,89.1,247z M89.1,294.4
		c-11.4,0-20.7-9.3-20.7-20.7S77.7,253,89.1,253s20.7,9.3,20.7,20.7S100.5,294.4,89.1,294.4z"/>
	<path d="M947.4,93.1H830.9V532h116.5V93.1z M836.9,105.1v-6h104.5v6h-15.2v16.7h-74.2v-16.7H836.9z M836.9,526V108.1h12.2v16.7
		h80.2v-16.7h12.2V526H836.9z"/>
	<path d="M42.5,647c-12.8,0-23.2,10.4-23.2,23.2c0,12.8,10.4,23.2,23.2,23.2s23.2-10.4,23.2-23.2C65.7,657.4,55.3,647,42.5,647z
		 M42.5,687.3c-9.5,0-17.2-7.7-17.2-17.2S33.1,653,42.5,653s17.2,7.7,17.2,17.2S52,687.3,42.5,687.3z"/>
	<path d="M43.5,66.9c12.8,0,23.2-10.4,23.2-23.2S56.3,20.5,43.5,20.5S20.4,30.9,20.4,43.7S30.8,66.9,43.5,66.9z M43.5,26.5
		c9.5,0,17.2,7.7,17.2,17.2S53,60.9,43.5,60.9s-17.2-7.7-17.2-17.2S34.1,26.5,43.5,26.5z"/>
	<path d="M601,132.1H597l-10.6,15.5v4.1h10v4.9h4.5v-4.9h3v-4.1h-3V132.1z M596.4,147.6h-5.6l5.6-8.4V147.6z"/>
	<path d="M624.1,155.1c1.7-1.3,2.9-3.3,3.7-6l-4.8-1.5c-0.4,1.8-1.1,3.1-2,3.9c-0.9,0.8-2.1,1.3-3.4,1.3c-1.8,0-3.2-0.7-4.3-2
		c-1.1-1.3-1.7-3.5-1.7-6.6c0-2.9,0.6-5,1.7-6.3c1.1-1.3,2.6-2,4.4-2c1.3,0,2.4,0.4,3.3,1.1c0.9,0.7,1.5,1.7,1.8,3l4.9-1.2
		c-0.6-2-1.4-3.5-2.5-4.5c-1.9-1.8-4.3-2.7-7.3-2.7c-3.4,0-6.2,1.1-8.3,3.4c-2.1,2.3-3.2,5.4-3.2,9.5c0,3.9,1,6.9,3.1,9.1
		c2.1,2.2,4.8,3.3,8,3.3C620.2,157.1,622.4,156.4,624.1,155.1z"/>
	<polygon points="636.9,145.9 646.6,145.9 646.6,156.6 651.6,156.6 651.6,132.2 646.6,132.2 646.6,141.8 636.9,141.8 636.9,132.2 
		632,132.2 632,156.6 636.9,156.6 	"/>
	<path d="M792.9,30.6H188.2c-6.3,0-11.5,5.2-11.5,11.5v564.3c0,6.3,5.2,11.5,11.5,11.5h604.7c6.3,0,11.5-5.2,11.5-11.5V42.1
		C804.4,35.8,799.2,30.6,792.9,30.6z M798.4,606.4c0,3-2.5,5.5-5.5,5.5H188.2c-3,0-5.5-2.5-5.5-5.5V42.1c0-3,2.5-5.5,5.5-5.5h604.7
		c3,0,5.5,2.5,5.5,5.5V606.4z"/>
	<path d="M375,163.1c11.4,0,22.4,0,33.9,0c0-11.5,0-22.6,0-34c-11.4,0-22.5,0-33.9,0C375,140.6,375,151.7,375,163.1z M384.8,139.4
		c4.8,0,9.3,0,14.2,0c0,4.6,0,9,0,13.8c-4.7,0-9.3,0-14.2,0C384.8,148.6,384.8,144.2,384.8,139.4z"/>
	<path d="M389.2,109.5L389.2,109.5c0,5.2-1.6,9-4.9,11.7c-0.4,0.4-0.5,1-0.1,1.4c0.2,0.2,0.5,0.4,0.8,0.4c0.2,0,0.5-0.1,0.6-0.2
		c3.8-3.1,5.7-7.5,5.7-13.2v-0.1c0-5.7-1.9-10.1-5.7-13.2c-0.4-0.4-1.1-0.3-1.4,0.1c-0.4,0.4-0.3,1.1,0.1,1.4
		C387.6,100.6,389.2,104.4,389.2,109.5z"/>
	<path d="M379.6,117.8c-0.4,0.4-0.5,1-0.1,1.4c0.2,0.2,0.5,0.4,0.8,0.4c0.2,0,0.5-0.1,0.6-0.2c2.8-2.3,4.2-5.5,4.2-9.8v-0.1
		c0-4.2-1.4-7.4-4.2-9.8c-0.4-0.4-1.1-0.3-1.4,0.1c-0.4,0.4-0.3,1.1,0.1,1.4c2.3,1.9,3.5,4.6,3.5,8.2v0.1
		C383.1,113.2,381.9,115.9,379.6,117.8z"/>
	<path d="M374.8,114.2c-0.4,0.4-0.5,1-0.1,1.4c0.2,0.2,0.5,0.4,0.8,0.4c0.2,0,0.5-0.1,0.6-0.2c1.8-1.5,2.7-3.6,2.7-6.3
		c0-2.7-0.9-4.8-2.7-6.2c-0.4-0.4-1.1-0.3-1.4,0.1c-0.4,0.4-0.3,1.1,0.1,1.4c1.3,1.1,2,2.6,2,4.7
		C376.7,111.6,376.1,113.2,374.8,114.2z"/>
	<polygon points="506.2,162.9 506.2,152.2 530.2,152.2 530.2,142.4 506.2,142.4 506.2,139.1 530.2,139.1 530.2,129.3 506.2,129.3 
		505.7,129.3 496.6,129.3 496.6,162.9 505.7,162.9 	"/>
	<polygon points="546.2,162.9 546.2,152.2 570.2,152.2 570.2,142.4 546.2,142.4 546.2,139.1 570.2,139.1 570.2,129.3 546.2,129.3 
		545.6,129.3 536.5,129.3 536.5,162.9 545.6,162.9 	"/>
	<path d="M465.4,162.9h14.4h9.6h0.1v-33.6h-0.1h-9.6h-14.4h-0.6h-9.1v33.6h9.1H465.4z M465.4,139.1h14.4v14h-14.4V139.1z"/>
	<polygon points="439.4,129.3 425.1,129.3 424.5,129.3 415.4,129.3 415.4,162.9 425.1,162.9 425.1,139.1 439.4,139.1 439.4,162.9 
		449.1,162.9 449.1,129.3 449.1,129.3 	"/>
	<polygon points="342.3,163.1 356.9,163.1 366.7,163.1 366.7,163.1 366.7,138.9 366.8,138.9 366.8,129 356.9,129 342.3,129 
		342.3,114.8 356.9,114.8 366.8,114.8 366.8,104.8 357.5,104.8 356.9,104.8 342.3,104.8 332.6,104.8 332.5,104.8 332.5,129 
		332.5,129 332.5,139 342.3,139 356.9,139 356.9,153.2 342.3,153.2 332.5,153.2 332.5,163.1 341.7,163.1 	"/>
	<path d="M960.5,0h-940C9.2,0,0,9.2,0,20.5v673.6c0,11.3,9.2,20.5,20.5,20.5h54.8c6.3,0,11.4-5.1,11.4-11.4v-66.9h83.8v40.4
		c0,4.4,3.6,8,8,8h179.6c4.4,0,8-3.6,8-8v-40.4h26.9v40.4c0,4.4,3.6,8,8,8h179.6c4.4,0,8-3.6,8-8v-40.4h26.9v40.4c0,4.4,3.6,8,8,8
		h179.6c4.4,0,8-3.6,8-8v-40.4h83.8v66.9c0,6.3,5.1,11.4,11.4,11.4h54.8c11.3,0,20.5-9.2,20.5-20.5V20.5C981,9.2,971.8,0,960.5,0z
		 M359.9,676.6c0,1.1-0.9,2-2,2H178.4c-1.1,0-2-0.9-2-2v-40.4h183.5V676.6z M582.2,676.6c0,1.1-0.9,2-2,2H400.7c-1.1,0-2-0.9-2-2
		v-40.4h183.5V676.6z M804.6,676.6c0,1.1-0.9,2-2,2H623.1c-1.1,0-2-0.9-2-2v-40.4h183.5V676.6z M969,694.1c0,4.7-3.8,8.5-8.5,8.5
		h-54.1v-66.9c0-6.3-5.1-11.4-11.4-11.4H86c-6.3,0-11.4,5.1-11.4,11.4v66.9H20.5c-4.7,0-8.5-3.8-8.5-8.5V20.5c0-4.7,3.8-8.5,8.5-8.5
		h940c4.7,0,8.5,3.8,8.5,8.5V694.1z"/>
	<path d="M938.5,647c-12.8,0-23.2,10.4-23.2,23.2c0,12.8,10.4,23.2,23.2,23.2c12.8,0,23.2-10.4,23.2-23.2
		C961.7,657.4,951.3,647,938.5,647z M938.5,687.3c-9.5,0-17.2-7.7-17.2-17.2S929,653,938.5,653s17.2,7.7,17.2,17.2
		S948,687.3,938.5,687.3z"/>
	<path d="M937.5,66.9c12.8,0,23.2-10.4,23.2-23.2s-10.4-23.2-23.2-23.2c-12.8,0-23.2,10.4-23.2,23.2S924.7,66.9,937.5,66.9z
		 M937.5,26.5c9.5,0,17.2,7.7,17.2,17.2s-7.7,17.2-17.2,17.2s-17.2-7.7-17.2-17.2S928,26.5,937.5,26.5z"/>
	<polygon points="635,567.6 635,564.9 623.1,564.9 623.1,580.9 635.3,580.9 635.3,578.2 626.4,578.2 626.4,573.9 634.4,573.9 
		634.4,571.1 626.4,571.1 626.4,567.6 	"/>
	<polygon points="668.8,567.6 668.8,564.9 656.9,564.9 656.9,580.9 669.1,580.9 669.1,578.2 660.2,578.2 660.2,573.9 668.2,573.9 
		668.2,571.1 660.2,571.1 660.2,567.6 	"/>
	<polygon points="226.7,564.9 226.7,580.9 229.7,580.9 229.7,570.5 236.2,580.9 239.4,580.9 239.4,564.9 236.4,564.9 236.4,575.6 
		229.8,564.9 	"/>
	<polygon points="260.5,564.9 260.5,580.9 263.5,580.9 263.5,570.5 270,580.9 273.2,580.9 273.2,564.9 270.2,564.9 270.2,575.6 
		263.7,564.9 	"/>
	<polygon points="295.4,564.9 295.4,580.9 298.4,580.9 298.4,570.5 304.9,580.9 308.2,580.9 308.2,564.9 305.1,564.9 305.1,575.6 
		298.6,564.9 	"/>
	<polygon points="329.2,564.9 329.2,580.9 332.2,580.9 332.2,570.5 338.7,580.9 342,580.9 342,564.9 339,564.9 339,575.6 
		332.4,564.9 	"/>
	<path d="M371.9,558.4v-17.3h-34.1h-3.5h-25.5h-8.6h-31.1h-20.4h-17.2v17.3c-7.3,0.9-13,7.1-13,14.6c0,8.1,6.6,14.7,14.7,14.7
		c8.1,0,14.7-6.6,14.7-14.7c0-7.5-5.7-13.8-13-14.6v-13.8h13.7h16.9v13.8c-7.3,0.9-13,7.1-13,14.6c0,8.1,6.6,14.7,14.7,14.7
		s14.7-6.6,14.7-14.7c0-7.5-5.7-13.8-13-14.6v-13.8h31.1v13.8c-7.3,0.9-13,7.1-13,14.6c0,8.1,6.6,14.7,14.7,14.7s14.7-6.6,14.7-14.7
		c0-7.5-5.7-13.8-13-14.6v-13.8h5.1h25.5v13.8c-7.3,0.9-13,7.1-13,14.6c0,8.1,6.6,14.7,14.7,14.7s14.7-6.6,14.7-14.7
		c0-7.5-5.7-13.8-13-14.6v-13.8h30.6v13.8c-7.3,0.9-13,7.1-13,14.6c0,8.1,6.6,14.7,14.7,14.7s14.7-6.6,14.7-14.7
		C384.9,565.5,379.2,559.3,371.9,558.4z M244.5,573c0,6.2-5,11.2-11.2,11.2s-11.2-5-11.2-11.2c0-6.2,5-11.2,11.2-11.2
		S244.5,566.8,244.5,573z M278.6,573c0,6.2-5,11.2-11.2,11.2s-11.2-5-11.2-11.2c0-6.2,5-11.2,11.2-11.2S278.6,566.8,278.6,573z
		 M313.3,573c0,6.2-5,11.2-11.2,11.2s-11.2-5-11.2-11.2c0-6.2,5-11.2,11.2-11.2S313.3,566.8,313.3,573z M347.3,573
		c0,6.2-5,11.2-11.2,11.2s-11.2-5-11.2-11.2c0-6.2,5-11.2,11.2-11.2S347.3,566.8,347.3,573z M370.2,584.3c-6.2,0-11.2-5-11.2-11.2
		c0-6.2,5-11.2,11.2-11.2s11.2,5,11.2,11.2C381.4,579.2,376.4,584.3,370.2,584.3z"/>
	<polygon points="373,575.6 366.5,564.9 363.3,564.9 363.3,580.9 366.3,580.9 366.3,570.5 372.8,580.9 376.1,580.9 376.1,564.9 
		373,564.9 	"/>
	<polygon points="702.9,567.6 702.9,564.9 691,564.9 691,580.9 703.2,580.9 703.2,578.2 694.2,578.2 694.2,573.9 702.3,573.9 
		702.3,571.1 694.2,571.1 694.2,567.6 	"/>
	<polygon points="737,567.6 737,564.9 725.1,564.9 725.1,580.9 737.3,580.9 737.3,578.2 728.3,578.2 728.3,573.9 736.4,573.9 
		736.4,571.1 728.3,571.1 728.3,567.6 	"/>
	<path d="M767.1,558.4v-17.3h-34.1h-3.5H699h-3.5h-30.6h-3.5h-34.1v17.3c-7.3,0.9-13,7.1-13,14.6c0,8.1,6.6,14.7,14.7,14.7
		s14.7-6.6,14.7-14.7c0-7.5-5.7-13.8-13-14.6v-13.8h30.6v13.8c-7.3,0.9-13,7.1-13,14.6c0,8.1,6.6,14.7,14.7,14.7s14.7-6.6,14.7-14.7
		c0-7.5-5.7-13.8-13-14.6v-13.8h30.6v13.8c-7.3,0.9-13,7.1-13,14.6c0,8.1,6.6,14.7,14.7,14.7S712,581.2,712,573
		c0-7.5-5.7-13.8-13-14.6v-13.8h30.6v13.8c-7.3,0.9-13,7.1-13,14.6c0,8.1,6.6,14.7,14.7,14.7S746,581.2,746,573
		c0-7.5-5.7-13.8-13-14.6v-13.8h30.6v13.8c-7.3,0.9-13,7.1-13,14.6c0,8.1,6.6,14.7,14.7,14.7s14.7-6.6,14.7-14.7
		C780.1,565.5,774.4,559.3,767.1,558.4z M640.3,573c0,6.2-5,11.2-11.2,11.2s-11.2-5-11.2-11.2s5-11.2,11.2-11.2
		S640.3,566.8,640.3,573z M674.4,573c0,6.2-5,11.2-11.2,11.2s-11.2-5-11.2-11.2s5-11.2,11.2-11.2S674.4,566.8,674.4,573z M708.5,573
		c0,6.2-5,11.2-11.2,11.2c-6.2,0-11.2-5-11.2-11.2s5-11.2,11.2-11.2C703.4,561.8,708.5,566.8,708.5,573z M742.5,573
		c0,6.2-5,11.2-11.2,11.2s-11.2-5-11.2-11.2s5-11.2,11.2-11.2S742.5,566.8,742.5,573z M765.4,584.3c-6.2,0-11.2-5-11.2-11.2
		s5-11.2,11.2-11.2s11.2,5,11.2,11.2S771.6,584.3,765.4,584.3z"/>
	<polygon points="762.4,573.9 770.5,573.9 770.5,571.1 762.4,571.1 762.4,567.6 771.1,567.6 771.1,564.9 759.2,564.9 759.2,580.9 
		771.4,580.9 771.4,578.2 762.4,578.2 	"/>
	<path d="M431.4,558.3c-8.1,0-14.7,6.6-14.7,14.7s6.6,14.7,14.7,14.7s14.7-6.6,14.7-14.7S439.6,558.3,431.4,558.3z M431.4,584.3
		c-6.2,0-11.2-5-11.2-11.2s5-11.2,11.2-11.2s11.2,5,11.2,11.2S437.6,584.3,431.4,584.3z"/>
	<polygon points="429.9,564.9 426.8,564.9 426.8,580.1 437.7,580.1 437.7,577.5 429.9,577.5 	"/>
	<path d="M465.5,558.3c-8.1,0-14.7,6.6-14.7,14.7s6.6,14.7,14.7,14.7s14.7-6.6,14.7-14.7S473.7,558.3,465.5,558.3z M465.5,584.3
		c-6.2,0-11.2-5-11.2-11.2s5-11.2,11.2-11.2s11.2,5,11.2,11.2S471.7,584.3,465.5,584.3z"/>
	<polygon points="464,564.9 460.9,564.9 460.9,580.1 471.7,580.1 471.7,577.5 464,577.5 	"/>
	<path d="M499.6,558.3c-8.1,0-14.7,6.6-14.7,14.7s6.6,14.7,14.7,14.7s14.7-6.6,14.7-14.7S507.7,558.3,499.6,558.3z M499.6,584.3
		c-6.2,0-11.2-5-11.2-11.2s5-11.2,11.2-11.2s11.2,5,11.2,11.2S505.8,584.3,499.6,584.3z"/>
	<polygon points="498.1,564.9 495,564.9 495,580.1 505.8,580.1 505.8,577.5 498.1,577.5 	"/>
	<path d="M533.7,558.3c-8.1,0-14.7,6.6-14.7,14.7s6.6,14.7,14.7,14.7s14.7-6.6,14.7-14.7S541.8,558.3,533.7,558.3z M533.7,584.3
		c-6.2,0-11.2-5-11.2-11.2s5-11.2,11.2-11.2s11.2,5,11.2,11.2S539.9,584.3,533.7,584.3z"/>
	<polygon points="532.2,564.9 529.1,564.9 529.1,580.1 539.9,580.1 539.9,577.5 532.2,577.5 	"/>
	<path d="M567.8,558.3c-8.1,0-14.7,6.6-14.7,14.7s6.6,14.7,14.7,14.7s14.7-6.6,14.7-14.7S575.9,558.3,567.8,558.3z M567.8,584.3
		c-6.2,0-11.2-5-11.2-11.2s5-11.2,11.2-11.2s11.2,5,11.2,11.2S574,584.3,567.8,584.3z"/>
	<polygon points="566.3,564.9 563.2,564.9 563.2,580.1 574,580.1 574,577.5 566.3,577.5 	"/>
	<polygon points="253.9,200.5 245.2,200.5 245.2,186.2 241.7,186.2 241.7,203.4 253.9,203.4 	"/>
	<path d="M260.8,203.4h3.3V186h-2.7c-0.4,1.1-1.1,2-2.1,2.8c-1,0.8-2,1.3-2.8,1.6v3c1.6-0.5,3.1-1.4,4.3-2.5V203.4z"/>
	<polygon points="253.9,276.8 245.2,276.8 245.2,262.6 241.7,262.6 241.7,279.7 253.9,279.7 	"/>
	<path d="M260.1,272.3c-1.9,1.7-3.1,3.1-3.7,4.2c-0.6,1-1,2.1-1.1,3.3h11.6v-3.1h-6.6c0.2-0.3,0.4-0.6,0.7-0.9s0.9-1,2-1.9
		c1-1,1.8-1.7,2.2-2.2c0.6-0.8,1-1.5,1.3-2.2s0.4-1.4,0.4-2.2c0-1.4-0.5-2.5-1.5-3.4c-1-0.9-2.3-1.4-4-1.4c-1.6,0-2.9,0.4-3.9,1.2
		c-1,0.8-1.7,2.1-1.9,3.9l3.3,0.3c0.1-1,0.3-1.7,0.7-2.1c0.4-0.4,1-0.6,1.7-0.6c0.7,0,1.2,0.2,1.6,0.6c0.4,0.4,0.6,1,0.6,1.7
		c0,0.7-0.2,1.3-0.7,2C262.5,269.9,261.6,270.9,260.1,272.3z"/>
	<polygon points="253.9,351.1 245.2,351.1 245.2,336.8 241.7,336.8 241.7,354 253.9,354 	"/>
	<path d="M261.2,351.6c-0.6,0-1.2-0.2-1.6-0.6c-0.4-0.4-0.7-1.1-0.8-1.9l-3.2,0.4c0.2,1.5,0.8,2.6,1.8,3.5s2.3,1.4,3.9,1.4
		c1.7,0,3-0.5,4.1-1.6c1.1-1.1,1.7-2.4,1.7-3.9c0-1-0.3-1.9-0.9-2.7c-0.6-0.7-1.4-1.2-2.4-1.4c1.7-0.9,2.5-2.1,2.5-3.6
		c0-1.1-0.4-2-1.2-2.9c-1-1-2.3-1.6-3.9-1.6c-1,0-1.8,0.2-2.6,0.5s-1.4,0.9-1.8,1.5c-0.4,0.6-0.7,1.5-1,2.5l3.1,0.5
		c0.1-0.8,0.3-1.3,0.7-1.7c0.4-0.4,0.9-0.6,1.5-0.6c0.6,0,1,0.2,1.4,0.5c0.3,0.3,0.5,0.8,0.5,1.4c0,0.7-0.2,1.2-0.7,1.6
		c-0.5,0.4-1.2,0.6-2.1,0.6l-0.4,2.7c0.6-0.2,1.1-0.2,1.5-0.2c0.6,0,1.2,0.2,1.6,0.7c0.4,0.5,0.7,1.1,0.7,2c0,0.9-0.2,1.6-0.7,2.1
		C262.4,351.3,261.9,351.6,261.2,351.6z"/>
	<polygon points="253.9,431.4 245.2,431.4 245.2,417.1 241.7,417.1 241.7,434.3 253.9,434.3 	"/>
	<path d="M262.1,434.3h3.2v-3.5h2.1v-2.9h-2.1v-11h-2.8l-7.5,11v2.9h7.1V434.3z M258.2,427.9l4-5.9v5.9H258.2z"/>
	<polygon points="751.2,200.5 742.5,200.5 742.5,186.2 739.1,186.2 739.1,203.4 751.2,203.4 	"/>
	<path d="M758.2,203.4h3.3V186h-2.7c-0.4,1.1-1.1,2-2.1,2.8c-1,0.8-2,1.3-2.8,1.6v3c1.6-0.5,3.1-1.4,4.3-2.5V203.4z"/>
	<polygon points="751.2,276.8 742.5,276.8 742.5,262.6 739.1,262.6 739.1,279.7 751.2,279.7 	"/>
	<path d="M757.4,272.3c-1.9,1.7-3.1,3.1-3.7,4.2c-0.6,1-1,2.1-1.1,3.3h11.6v-3.1h-6.6c0.2-0.3,0.4-0.6,0.7-0.9s0.9-1,2-1.9
		s1.8-1.7,2.2-2.2c0.6-0.8,1-1.5,1.3-2.2s0.4-1.4,0.4-2.2c0-1.4-0.5-2.5-1.5-3.4c-1-0.9-2.3-1.4-4-1.4c-1.6,0-2.9,0.4-3.9,1.2
		c-1,0.8-1.7,2.1-1.9,3.9l3.3,0.3c0.1-1,0.3-1.7,0.7-2.1c0.4-0.4,1-0.6,1.7-0.6c0.7,0,1.2,0.2,1.6,0.6s0.6,1,0.6,1.7
		c0,0.7-0.2,1.3-0.7,2C759.8,269.9,758.9,270.9,757.4,272.3z"/>
	<polygon points="751.2,351.1 742.5,351.1 742.5,336.8 739.1,336.8 739.1,354 751.2,354 	"/>
	<path d="M758.5,351.6c-0.6,0-1.2-0.2-1.6-0.6s-0.7-1.1-0.8-1.9l-3.2,0.4c0.2,1.5,0.8,2.6,1.8,3.5s2.3,1.4,3.9,1.4
		c1.7,0,3-0.5,4.1-1.6c1.1-1.1,1.7-2.4,1.7-3.9c0-1-0.3-1.9-0.9-2.7c-0.6-0.7-1.4-1.2-2.4-1.4c1.7-0.9,2.5-2.1,2.5-3.6
		c0-1.1-0.4-2-1.2-2.9c-1-1-2.3-1.6-3.9-1.6c-1,0-1.8,0.2-2.6,0.5s-1.4,0.9-1.8,1.5s-0.8,1.5-1,2.5l3.1,0.5c0.1-0.8,0.3-1.3,0.7-1.7
		c0.4-0.4,0.9-0.6,1.5-0.6c0.6,0,1,0.2,1.4,0.5c0.3,0.3,0.5,0.8,0.5,1.4c0,0.7-0.2,1.2-0.7,1.6c-0.5,0.4-1.2,0.6-2.1,0.6l-0.4,2.7
		c0.6-0.2,1.1-0.2,1.5-0.2c0.6,0,1.2,0.2,1.6,0.7c0.4,0.5,0.7,1.1,0.7,2c0,0.9-0.2,1.6-0.7,2.1S759.2,351.6,758.5,351.6z"/>
	<polygon points="751.2,431.4 742.5,431.4 742.5,417.1 739.1,417.1 739.1,434.3 751.2,434.3 	"/>
	<path d="M759.5,434.3h3.2v-3.5h2.1v-2.9h-2.1v-11h-2.8l-7.5,11v2.9h7.1V434.3z M755.5,427.9l4-5.9v5.9H755.5z"/>
</g>
</svg>
