<?xml version="1.0" encoding="utf-8"?>
<!-- Generator: Adobe Illustrator 21.0.0, SVG Export Plug-In . SVG Version: 6.00 Build 0)  -->
<svg version="1.1" id="Layer_1" xmlns="http://www.w3.org/2000/svg" xmlns:xlink="http://www.w3.org/1999/xlink" x="0px" y="0px"
	 viewBox="0 0 1417.3 1417.3" style="enable-background:new 0 0 1417.3 1417.3;" xml:space="preserve">
<g>
	<path d="M1133.1,0.5H285.3C128.3,0.5,0.6,128.2,0.6,285.3v847.8c0,157,127.7,284.8,284.8,284.8h847.8
		c157,0,284.8-127.7,284.8-284.8V285.3C1417.9,128.2,1290.1,0.5,1133.1,0.5z M1397.5,1133.1c0,145.8-118.6,264.3-264.3,264.3H285.3
		c-145.8,0-264.3-118.6-264.3-264.3V285.3C21,139.5,139.6,20.9,285.3,20.9h847.8c145.8,0,264.3,118.6,264.3,264.3V1133.1z"/>
	<path d="M1122.9,46.9H295.5c-137.1,0-248.6,111.5-248.6,248.6v827.4c0,137.1,111.5,248.6,248.6,248.6h827.4
		c137.1,0,248.6-111.5,248.6-248.6V295.5C1371.5,158.4,1260,46.9,1122.9,46.9z M1361.3,1122.9c0,131.5-106.9,238.4-238.4,238.4
		H295.5c-131.5,0-238.4-106.9-238.4-238.4V295.5C57.1,164,164.1,57.1,295.5,57.1h827.4c131.5,0,238.4,106.9,238.4,238.4V1122.9z"/>
	<path d="M566.9,782.1c22.1,0,43.6,0,65.9,0c0-22.3,0-43.9,0-65.9c-22.2,0-43.7,0-65.9,0C566.9,738.4,566.9,760,566.9,782.1z
		 M586,736c9.4,0,18.1,0,27.6,0c0,9,0,17.5,0,26.7c-9.1,0-18,0-27.6,0C586,754,586,745.5,586,736z"/>
	<path d="M594.5,678v0.2c0,9.9-3.1,17.3-9.6,22.6c-0.8,0.7-1,1.9-0.3,2.8c0.4,0.5,0.9,0.7,1.5,0.7c0.4,0,0.9-0.1,1.2-0.4
		c7.4-6.1,11-14.5,11-25.6V678c0-11.2-3.6-19.5-11-25.6c-0.8-0.7-2.1-0.6-2.8,0.3c-0.7,0.8-0.6,2.1,0.3,2.8
		C591.4,660.7,594.5,668.1,594.5,678z"/>
	<path d="M575.8,694.1c-0.8,0.7-1,1.9-0.3,2.8c0.4,0.5,0.9,0.7,1.5,0.7c0.4,0,0.9-0.1,1.2-0.4c5.5-4.5,8.2-10.7,8.2-19v-0.1
		c0-8.2-2.7-14.4-8.2-19c-0.8-0.7-2.1-0.6-2.8,0.3c-0.7,0.8-0.6,2.1,0.3,2.8c4.5,3.7,6.7,8.9,6.7,15.9v0.1
		C582.5,685.2,580.3,690.4,575.8,694.1z"/>
	<path d="M568.9,690.3c3.5-2.9,5.2-6.9,5.2-12.2c0-5.2-1.8-9.2-5.2-12.1c-0.8-0.7-2.1-0.6-2.8,0.3c-0.7,0.8-0.6,2.1,0.3,2.8
		c2.6,2.1,3.8,5.1,3.8,9.2c0,4-1.2,7-3.8,9.1c-0.8,0.7-1,1.9-0.3,2.8c0.4,0.5,0.9,0.7,1.5,0.7C568.1,690.7,568.5,690.6,568.9,690.3z
		"/>
	<polygon points="820.6,716.5 802.9,716.5 802.9,781.8 820.6,781.8 821.7,781.8 821.7,761 868.3,761 868.3,742 821.7,742 
		821.7,735.6 868.3,735.6 868.3,716.5 821.7,716.5 	"/>
	<polygon points="898.3,716.5 880.6,716.5 880.6,781.8 898.3,781.8 899.4,781.8 899.4,761 946,761 946,742 899.4,742 899.4,735.6 
		946,735.6 946,716.5 899.4,716.5 	"/>
	<path d="M770.3,716.5h-27.9h-1.1h-17.7v65.3h17.7h1.1h27.9H789h0.1v-65.3H789H770.3z M770.3,762.8h-27.9v-27.2h27.9V762.8z"/>
	<polygon points="692,716.5 664.1,716.5 663,716.5 645.3,716.5 645.3,781.8 664.1,781.8 664.1,735.6 692,735.6 692,781.8 
		710.8,781.8 710.8,716.5 710.7,716.5 	"/>
	<polygon points="531.8,668.9 503.4,668.9 484.5,668.9 484.4,668.9 484.4,716 484.3,716 484.3,735.3 503.4,735.3 531.7,735.3 
		531.7,762.8 503.4,762.8 484.3,762.8 484.3,782.2 502.3,782.2 503.4,782.2 531.7,782.2 550.7,782.2 550.8,782.2 550.8,735.2 
		550.9,735.2 550.9,715.8 531.8,715.8 503.4,715.8 503.4,688.3 531.8,688.3 550.9,688.3 550.9,668.9 532.9,668.9 	"/>
</g>
</svg>
