<?xml version="1.0" encoding="utf-8"?>
<!-- Generator: Adobe Illustrator 21.0.0, SVG Export Plug-In . SVG Version: 6.00 Build 0)  -->
<svg version="1.1" id="Layer_1" xmlns="http://www.w3.org/2000/svg" xmlns:xlink="http://www.w3.org/1999/xlink" x="0px" y="0px"
	 viewBox="0 0 413.1 116.5" style="enable-background:new 0 0 413.1 116.5;" xml:space="preserve">
<g>
	<path d="M132.8,116.4c-20,0-39.2,0-58.9,0c0-19.8,0-39.1,0-59c19.8,0,39.1,0,58.9,0C132.8,77.1,132.8,96.4,132.8,116.4z M91,75.2
		c0,8.4,0,16.1,0,23.9c8.6,0,16.5,0,24.7,0c0-8.3,0-15.9,0-23.9C107.2,75.2,99.3,75.2,91,75.2z"/>
	<g>
		<path d="M91.1,46.8c-0.5,0-1-0.2-1.4-0.6c-0.6-0.7-0.5-1.8,0.2-2.5c5.8-4.7,8.6-11.4,8.6-20.2v-0.2c0-8.9-2.8-15.5-8.6-20.2
			c-0.7-0.6-0.9-1.7-0.2-2.5s1.7-0.9,2.5-0.2c6.6,5.4,9.8,13,9.8,22.9v0.2c0,10-3.2,17.5-9.8,22.9C91.9,46.7,91.5,46.8,91.1,46.8z"
			/>
	</g>
	<g>
		<path d="M83,40.8c-0.5,0-1-0.2-1.4-0.6c-0.6-0.7-0.5-1.8,0.2-2.5c4.1-3.3,6-8,6-14.3v-0.1c0-6.3-2-10.9-6-14.3
			c-0.7-0.6-0.9-1.7-0.2-2.5c0.6-0.7,1.7-0.9,2.5-0.2c4.9,4,7.3,9.6,7.3,17v0.1c0,7.4-2.4,12.9-7.3,17C83.8,40.7,83.4,40.8,83,40.8z
			"/>
	</g>
	<g>
		<path d="M74.6,34.7c-0.5,0-1-0.2-1.4-0.6c-0.6-0.7-0.5-1.8,0.2-2.5c2.3-1.9,3.4-4.5,3.4-8.1c0-3.7-1.1-6.3-3.4-8.2
			c-0.7-0.6-0.9-1.7-0.2-2.5c0.6-0.7,1.7-0.9,2.5-0.2c3.1,2.6,4.7,6.2,4.7,10.8c0,4.7-1.6,8.3-4.7,10.9C75.4,34.5,75,34.7,74.6,34.7
			z"/>
	</g>
	<polygon points="343.6,74.8 343.6,57.8 301.9,57.8 300.9,57.8 285.1,57.8 285.1,116.2 300.9,116.2 301.9,116.2 301.9,97.6 
		343.6,97.6 343.6,80.5 301.9,80.5 301.9,74.8 	"/>
	<polygon points="413.1,74.8 413.1,57.8 371.4,57.8 370.4,57.8 354.6,57.8 354.6,116.2 370.4,116.2 371.4,116.2 371.4,97.6 
		413.1,97.6 413.1,80.5 371.4,80.5 371.4,74.8 	"/>
	<path d="M272.6,57.8h-16.7h-25h-1h-15.8v58.4h15.8h1h25h16.7h0.1V57.8H272.6z M230.9,99.1V74.8h25v24.3H230.9z"/>
	<polygon points="202.5,57.8 185.9,57.8 160.8,57.8 159.9,57.8 144,57.8 144,116.2 160.8,116.2 160.8,74.8 185.9,74.8 185.9,116.2 
		202.7,116.2 202.7,57.8 	"/>
	<polygon points="42.5,32.5 59.5,32.5 59.5,15.2 43.5,15.2 42.5,15.2 17.1,15.2 0.2,15.2 0,15.2 0,57.3 0,57.3 0,74.6 17.1,74.6 
		42.4,74.6 42.4,99.2 17.1,99.2 0,99.2 0,116.5 16,116.5 17.1,116.5 42.4,116.5 59.4,116.5 59.5,116.5 59.5,74.5 59.5,74.5 
		59.5,57.2 42.5,57.2 17.1,57.2 17.1,32.5 	"/>
</g>
<g>
	<path d="M132.8,116.4c-20,0-39.2,0-58.9,0c0-19.8,0-39.1,0-59c19.8,0,39.1,0,58.9,0C132.8,77.1,132.8,96.4,132.8,116.4z M91,75.2
		c0,8.4,0,16.1,0,23.9c8.6,0,16.5,0,24.7,0c0-8.3,0-15.9,0-23.9C107.2,75.2,99.3,75.2,91,75.2z"/>
	<g>
		<path d="M91.1,46.8c-0.5,0-1-0.2-1.4-0.6c-0.6-0.7-0.5-1.8,0.2-2.5c5.8-4.7,8.6-11.4,8.6-20.2v-0.2c0-8.9-2.8-15.5-8.6-20.2
			c-0.7-0.6-0.9-1.7-0.2-2.5s1.7-0.9,2.5-0.2c6.6,5.4,9.8,13,9.8,22.9v0.2c0,10-3.2,17.5-9.8,22.9C91.9,46.7,91.5,46.8,91.1,46.8z"
			/>
	</g>
	<g>
		<path d="M83,40.8c-0.5,0-1-0.2-1.4-0.6c-0.6-0.7-0.5-1.8,0.2-2.5c4.1-3.3,6-8,6-14.3v-0.1c0-6.3-2-10.9-6-14.3
			c-0.7-0.6-0.9-1.7-0.2-2.5c0.6-0.7,1.7-0.9,2.5-0.2c4.9,4,7.3,9.6,7.3,17v0.1c0,7.4-2.4,12.9-7.3,17C83.8,40.7,83.4,40.8,83,40.8z
			"/>
	</g>
	<g>
		<path d="M74.6,34.7c-0.5,0-1-0.2-1.4-0.6c-0.6-0.7-0.5-1.8,0.2-2.5c2.3-1.9,3.4-4.5,3.4-8.1c0-3.7-1.1-6.3-3.4-8.2
			c-0.7-0.6-0.9-1.7-0.2-2.5c0.6-0.7,1.7-0.9,2.5-0.2c3.1,2.6,4.7,6.2,4.7,10.8c0,4.7-1.6,8.3-4.7,10.9C75.4,34.5,75,34.7,74.6,34.7
			z"/>
	</g>
	<polygon points="343.6,74.8 343.6,57.8 301.9,57.8 300.9,57.8 285.1,57.8 285.1,116.2 300.9,116.2 301.9,116.2 301.9,97.6 
		343.6,97.6 343.6,80.5 301.9,80.5 301.9,74.8 	"/>
	<polygon points="413.1,74.8 413.1,57.8 371.4,57.8 370.4,57.8 354.6,57.8 354.6,116.2 370.4,116.2 371.4,116.2 371.4,97.6 
		413.1,97.6 413.1,80.5 371.4,80.5 371.4,74.8 	"/>
	<path d="M272.6,57.8h-16.7h-25h-1h-15.8v58.4h15.8h1h25h16.7h0.1V57.8H272.6z M230.9,99.1V74.8h25v24.3H230.9z"/>
	<polygon points="202.5,57.8 185.9,57.8 160.8,57.8 159.9,57.8 144,57.8 144,116.2 160.8,116.2 160.8,74.8 185.9,74.8 185.9,116.2 
		202.7,116.2 202.7,57.8 	"/>
	<polygon points="42.5,32.5 59.5,32.5 59.5,15.2 43.5,15.2 42.5,15.2 17.1,15.2 0.2,15.2 0,15.2 0,57.3 0,57.3 0,74.6 17.1,74.6 
		42.4,74.6 42.4,99.2 17.1,99.2 0,99.2 0,116.5 16,116.5 17.1,116.5 42.4,116.5 59.4,116.5 59.5,116.5 59.5,74.5 59.5,74.5 
		59.5,57.2 42.5,57.2 17.1,57.2 17.1,32.5 	"/>
</g>
</svg>
