<?xml version="1.0" encoding="utf-8"?>
<!-- Generator: Adobe Illustrator 21.0.0, SVG Export Plug-In . SVG Version: 6.00 Build 0)  -->
<svg version="1.1" id="Layer_1" xmlns="http://www.w3.org/2000/svg" xmlns:xlink="http://www.w3.org/1999/xlink" x="0px" y="0px"
	 viewBox="0 0 1293.2 1417.3" style="enable-background:new 0 0 1293.2 1417.3;" xml:space="preserve">
<g>
	<circle cx="647.9" cy="178.9" r="22.8"/>
	<path d="M1288.6,321.4c-2.2-1.7-4.3-3.2-6.3-4.7c-16.6-12.2-25.1-18.5-36.3-39.4c-14.2-76.7-55-146.7-114.9-197.3
		C1070,28.4,992.3,0,912.2,0H381c-80.1,0-157.9,28.4-219,80.1C102.1,130.7,61.4,200.7,47.1,277.4c-11.2,20.9-19.7,27.1-36.3,39.4
		c-2,1.5-4.1,3-6.3,4.7L0,324.8v765.8l4.6,3.4c2.2,1.6,4.3,3.2,6.3,4.7c16.4,12.1,24.9,18.3,35.8,38.4c6.3,35.5,18.2,69.5,35,100.9
		c-0.1,0.2-0.3,0.4-0.4,0.6l1.1,0.7c19.8,36.6,46.4,69.6,78.6,97c61.3,52.2,139.5,81,220.1,81h531.1c80.6,0,158.8-28.8,220.1-81
		c32.2-27.4,58.7-60.4,78.5-97l1.1-0.7c-0.1-0.2-0.3-0.4-0.4-0.6c16.9-31.4,28.8-65.5,35-100.9c10.9-20.1,19.4-26.4,35.8-38.4
		c2-1.5,4.1-3,6.3-4.7l4.6-3.4V324.8L1288.6,321.4z M1117.5,1319.1c-57.2,48.7-130.1,75.6-205.4,75.6H381
		c-75.2,0-148.2-26.8-205.4-75.6c-30.3-25.8-55.2-56.9-73.8-91.4c32.3-52.3,64-123.2,86.6-194.2c18.4-57.7,28.8-108.7,30.3-146.7
		c28.9,69.2,74.5,131.1,133.1,179.4c40.6,33.5,86.2,59.7,135.4,77.7c51,18.7,104.6,28.1,159.3,28.1c123.8,0,240.1-48.2,327.7-135.7
		c43.5-43.5,77.2-94,100.2-149.1c1.6,38,12,88.8,30.3,146.3c22.6,71,54.3,141.9,86.6,194.2
		C1172.8,1262.2,1147.8,1293.3,1117.5,1319.1z M1077.2,846.9L1077.2,846.9c-0.1,0.2-0.1,0.3-0.2,0.5
		c-21.7,67.5-59.2,129.4-110.8,180.9c-85.4,85.4-198.9,132.4-319.6,132.4c-104.8,0-206.9-36.7-287.5-103.2
		c-79.6-65.7-134.8-157.2-155.3-257.7c-6.1-29.8-9.2-60.4-9.2-91.1c0-120.7,47-234.3,132.4-319.6c85.4-85.4,198.9-132.4,319.6-132.4
		s234.3,47,319.6,132.4s132.4,198.9,132.4,319.6C1098.6,756.3,1091.3,802.8,1077.2,846.9z M1270.5,1079.2c-0.5,0.4-1.1,0.8-1.6,1.2
		c-17.7,13.1-29.5,21.7-43.2,47.7l-0.9,1.6l-0.3,1.8c-5,29.4-14.2,57.8-27.1,84.4c-68.9-114.4-124.3-296-109.4-365.5
		c14.4-45.2,22-92.8,22-141.6c0-123.8-48.2-240.1-135.7-327.7c-87.5-87.5-203.9-135.7-327.7-135.7c-123.8,0-240.1,48.2-327.7,135.7
		c-87.5,87.5-135.7,203.9-135.7,327.7c0,31.4,3.2,62.9,9.4,93.4c3.3,16,7.4,31.8,12.4,47.3l0,0c15.6,68.8-40,251.5-109.2,366.5
		c-12.9-26.6-22.1-55-27.1-84.4l-0.3-1.8l-0.9-1.6c-13.8-26-25.5-34.6-43.2-47.7c-0.5-0.4-1.1-0.8-1.6-1.2v-743
		c0.6-0.4,1.1-0.8,1.7-1.2c16.5-12.1,27.8-20.5,40.4-42.5h2.8l1.7-9.3C82.1,211,120.3,145,176.7,97.4c57-48.2,129.6-74.7,204.4-74.7
		h531.1c74.8,0,147.3,26.5,204.4,74.7c56.4,47.6,94.5,113.6,107.5,185.8l1.7,9.3h2.8c12.6,22,23.9,30.4,40.4,42.5
		c0.5,0.4,1.1,0.8,1.7,1.2V1079.2z"/>
	<path d="M647.8,290.6c-111.1,0-215.9,43.4-295.1,122.2c-78.8,78.8-122.2,183.4-122.2,294.7c0,111.5,43.4,216.3,122.2,295.1
		c79.2,78.8,184,122.1,295.1,122.1c111.1,0,215.9-43.4,295.1-122.2c78.8-78.8,122.2-183.6,122.2-295.1c0-111.3-43.4-216-122.2-294.7
		C863.8,334,759,290.6,647.8,290.6z M930,989.7c-75.2,75.2-175.4,116.7-282.1,116.7s-206.9-41.4-282.1-116.7
		C290.4,914.1,249,813.9,249,707.5c0-106.3,41.4-206.5,116.7-282.1c75.6-75.2,175.8-116.7,282.1-116.7S854.3,350.1,930,425.4
		c75.2,75.6,116.7,175.8,116.7,282.2C1046.6,813.9,1005.2,914,930,989.7z"/>
	<path d="M647.9,330.5c-100.8,0-195.6,39.2-266.7,110.3c-19.2,19.2-35.7,39.7-50.6,62.7v-0.6l-7.1,12c-0.4,0.7-0.7,1.3-1.3,1.9
		l-1,2.2c-0.3,0.5-0.6,1.3-0.9,1.5l-1.2,2.3l-1.5,1.9l-0.9,2.1c-0.2,0.3-0.4,0.8-0.7,1.2c-0.3,0.5-0.6,1-0.8,1.4l-1.8,3.5l-0.2,0.2
		l-0.4,0.7l-0.4,0l-0.3,0.8c-0.3,1-0.7,1.7-1,2.4l-0.8,1.6c-0.3,1-0.7,1.7-1,2.4l-1.2,1.9l-2.9,6.5l-0.7,1.1l-0.2,0.3
		c-0.3,1-0.7,2.1-1,2.6l-0.7,1.1l-0.1,0.3c-0.2,0.5-0.4,1-0.5,1.4c-0.2,0.5-0.4,1-0.6,1.5l-0.7,1.8l-1.2,2.3l-1.9,4.5l-0.4,1.1
		l-0.1,0.5c-0.1,0.2-0.2,0.4-0.2,0.6c-0.3,0.6-0.6,1.3-1,2l-0.5,1.4c-0.2,0.5-0.4,1-0.5,1.4c-0.2,0.5-0.4,1-0.6,1.5l-0.4,1.1
		l-0.1,0.6c-0.2,0.4-0.3,0.8-0.5,1.2c-0.2,0.4-0.3,0.8-0.5,1.3l-2.3,5.8c-0.2,0.6-0.3,1.1-0.4,1.7c-0.1,0.4-0.1,0.7-0.2,1l-0.4,0.4
		l-1.9,6.4c-0.2,0.5-0.4,1-0.5,1.4c-0.1,0.3-0.2,0.6-0.3,1l-1.5,4.9l-0.3,1.2c-0.2,0.5-0.8,1.8-0.9,3.3l-0.3,1
		c-0.4,1.1-0.8,2.3-0.8,3.5l-0.3,1c-5.6,20.7-9.3,41.2-11.2,62.9l0,0.3c-0.8,10.9-1.1,21.9-1.1,32.6c0,15.5,0.6,26.8,1.9,37.8v3.5
		l0.4,0.4c0,1,0.1,2,0.4,3v1.3l0.1,0.7c0.3,0.9,0.3,1.9,0.3,3l0.4,1.3v0.2c0,0.6,0.1,1.2,0.2,1.9c0.1,0.5,0.2,1,0.2,1.5l0.4,1.6
		l0.4,2.4v1.1l0.1,0.7c0.2,0.5,0.2,1,0.3,1.5c0.1,0.6,0.2,1.1,0.4,1.7l0,1.1c6.6,37.9,18.9,74.7,36.8,109.2l0.3,0.7l0.3,0
		c0.1,0.3,0.3,0.7,0.5,1c0.3,0.5,0.5,1,0.7,1.5l0.8,1.6c0.2,0.3,0.4,0.6,0.6,1c0.3,0.4,0.6,0.9,0.9,1.6l0.8,1.6l2,3.2l0.2,0.2
		c0.2,0.6,0.5,1,0.7,1.4c0.3,0.4,0.5,0.8,0.6,1.2l0.7,1.1v0.5l0.3,0.3c0.6,0.6,0.9,1.2,1.3,2l7,11.9v-0.6
		c14.8,23,31.4,43.5,50.6,62.7c71.4,71.4,166.1,110.7,266.7,110.7c100.6,0,195.3-39.3,266.7-110.7
		c71.1-71.1,110.3-165.9,110.3-266.7c0-100.8-39.2-195.6-110.3-266.7C843.4,369.7,748.7,330.5,647.9,330.5z M322.7,532.2v136.3
		h-41.9C285.7,620.7,299.8,574.9,322.7,532.2z M322.6,882.9c-22.2-41-36.2-85-41.5-130.8h41.5V882.9z M998.1,824.5
		c-7,20.7-15.6,40.4-25.5,58.4V752h41.9C1011.5,777.1,1006,801.5,998.1,824.5z M972.6,532.2c10.6,19.7,19.4,40.2,26.2,60.9
		c8.1,24.8,13.6,50.1,16.1,75.5h-42.3V532.2z M1015.9,676.1c0.6,9.3,1.4,20.8,1.4,31.4c0,11.3-0.5,22.6-1.8,36.6l-50.5,0v153
		c-15.6,25.7-34.4,49.8-55.9,71.7C839,1038.6,746.2,1077,647.8,1077c-98.8,0-191.6-38.4-261.3-108.1c-21.2-21.5-40-45.8-55.9-72.1
		V744.1h-50.5v0c-1.2-14-1.8-25.3-1.8-36.6c0-10.6,0.8-22,1.4-31.4h50.8V518.3c16.1-26.6,35-50.7,55.9-71.7
		c69.6-70,162.4-108.5,261.3-108.5c98.5,0,191.3,38.5,261.3,108.5c21.5,21.5,40.4,45.7,55.9,71.7v157.9H1015.9z"/>
	<circle cx="457.9" cy="707.5" r="53.7"/>
	<circle cx="836.1" cy="720.6" r="53.7"/>
</g>
</svg>
