<?xml version="1.0" encoding="utf-8"?>
<!-- Generator: Adobe Illustrator 21.0.0, SVG Export Plug-In . SVG Version: 6.00 Build 0)  -->
<svg version="1.1" id="Layer_1" xmlns="http://www.w3.org/2000/svg" xmlns:xlink="http://www.w3.org/1999/xlink" x="0px" y="0px"
	 viewBox="0 0 967.3 967.3" style="enable-background:new 0 0 967.3 967.3;" xml:space="preserve">
<g>
	<path d="M775.1,916.8c8.3,0,16.3,0,24.7,0c0-8.4,0-16.5,0-24.7c-8.3,0-16.4,0-24.7,0C775.1,900.4,775.1,908.5,775.1,916.8z
		 M782.2,899.5c3.5,0,6.8,0,10.3,0c0,3.4,0,6.6,0,10c-3.4,0-6.7,0-10.3,0C782.2,906.3,782.2,903.1,782.2,899.5z"/>
	<polygon points="870.1,892.2 863.5,892.2 863.5,916.7 870.1,916.7 870.5,916.7 870.5,908.9 888,908.9 888,901.7 870.5,901.7 
		870.5,899.4 888,899.4 888,892.2 870.5,892.2 	"/>
	<polygon points="899.2,892.2 892.6,892.2 892.6,916.7 899.2,916.7 899.6,916.7 899.6,908.9 917.1,908.9 917.1,901.7 899.6,901.7 
		899.6,899.4 917.1,899.4 917.1,892.2 899.6,892.2 	"/>
	<path d="M851.3,892.2h-10.5h-0.4h-6.6v24.4h6.6h0.4h10.5h7h0.1v-24.4h-0.1H851.3z M851.3,909.5h-10.5v-10.2h10.5V909.5z"/>
	<polygon points="822,892.2 811.5,892.2 811.1,892.2 804.5,892.2 804.5,916.7 811.5,916.7 811.5,899.4 822,899.4 822,916.7 
		829,916.7 829,892.2 828.9,892.2 	"/>
	<polygon points="761.9,874.4 751.3,874.4 744.2,874.4 744.2,874.4 744.2,892 744.2,892 744.2,899.2 751.3,899.2 761.9,899.2 
		761.9,909.6 751.3,909.6 744.2,909.6 744.2,916.8 750.9,916.8 751.3,916.8 761.9,916.8 769,916.8 769.1,916.8 769.1,899.2 
		769.1,899.2 769.1,892 761.9,892 751.3,892 751.3,881.6 761.9,881.6 769.1,881.6 769.1,874.4 762.4,874.4 	"/>
	<path d="M785.4,877.8L785.4,877.8c0,3.8-1.2,6.6-3.6,8.5c-0.3,0.3-0.4,0.7-0.1,1c0.1,0.2,0.4,0.3,0.6,0.3c0.2,0,0.3-0.1,0.5-0.2
		c2.8-2.3,4.1-5.4,4.1-9.6v-0.1c0-4.2-1.3-7.3-4.1-9.6c-0.3-0.3-0.8-0.2-1,0.1c-0.3,0.3-0.2,0.8,0.1,1
		C784.3,871.3,785.4,874.1,785.4,877.8z"/>
	<path d="M778.4,883.8c-0.3,0.3-0.4,0.7-0.1,1c0.1,0.2,0.4,0.3,0.6,0.3c0.2,0,0.3-0.1,0.5-0.2c2.1-1.7,3.1-4,3.1-7.1v-0.1
		c0-3.1-1-5.4-3.1-7.1c-0.3-0.3-0.8-0.2-1,0.1c-0.3,0.3-0.2,0.8,0.1,1c1.7,1.4,2.5,3.3,2.5,6v0.1C781,880.5,780.1,882.4,778.4,883.8
		z"/>
	<path d="M775.8,882.4c1.3-1.1,2-2.6,2-4.6c0-1.9-0.7-3.5-2-4.5c-0.3-0.3-0.8-0.2-1,0.1c-0.3,0.3-0.2,0.8,0.1,1
		c1,0.8,1.4,1.9,1.4,3.4c0,1.5-0.5,2.6-1.4,3.4c-0.3,0.3-0.4,0.7-0.1,1c0.1,0.2,0.4,0.3,0.6,0.3
		C775.5,882.5,775.7,882.5,775.8,882.4z"/>
	<path d="M955.7,0H11.6C5.2,0,0,5.2,0,11.6v944.1c0,6.4,5.2,11.6,11.6,11.6h944.1c6.4,0,11.6-5.2,11.6-11.6V11.6
		C967.3,5.2,962.1,0,955.7,0z M957.3,955.7c0,0.9-0.7,1.6-1.6,1.6H11.6c-0.9,0-1.6-0.7-1.6-1.6V11.6c0-0.9,0.7-1.6,1.6-1.6h944.1
		c0.9,0,1.6,0.7,1.6,1.6V955.7z"/>
	<circle cx="412.5" cy="531.3" r="4.7"/>
	<ellipse transform="matrix(0.5 -0.866 0.866 0.5 -218.1742 614.752)" cx="423.3" cy="496.3" rx="5.3" ry="5.3"/>
	<ellipse transform="matrix(0.866 -0.5 0.5 0.866 -175.2502 287.499)" cx="448.9" cy="470.8" rx="7" ry="7"/>
	<circle cx="483.5" cy="461.5" r="8.8"/>
	<ellipse transform="matrix(0.5 -0.866 0.866 0.5 -148.3291 684.4475)" cx="518.6" cy="470.7" rx="10.5" ry="10.5"/>
	<ellipse transform="matrix(0.866 -0.5 0.5 0.866 -174.6189 339.0003)" cx="545.3" cy="495.3" rx="12.3" ry="12.3"/>
	<circle cx="554.7" cy="531.3" r="4.7"/>
	<ellipse transform="matrix(0.5 -0.866 0.866 0.5 -218.4219 754.0628)" cx="543.8" cy="566.2" rx="5.3" ry="5.3"/>
	<ellipse transform="matrix(0.866 -0.5 0.5 0.866 -226.4342 338.4154)" cx="518.3" cy="591.7" rx="7" ry="7"/>
	<ellipse transform="matrix(0.5 -0.866 0.866 0.5 -288.2671 684.3671)" cx="448.5" cy="591.8" rx="10.5" ry="10.5"/>
	<ellipse transform="matrix(0.866 -0.5 0.5 0.866 -227.0658 286.9151)" cx="421.9" cy="567.2" rx="12.3" ry="12.3"/>
	<circle cx="483.5" cy="603.7" r="8.8"/>
	<path d="M483.5,329.2c20,0,36.3-16.3,36.3-36.3c0-20-16.3-36.3-36.3-36.3c-20,0-36.3,16.3-36.3,36.3
		C447.2,313,463.5,329.2,483.5,329.2z M487,308.2c0,1.1-0.9,2-2,2h-3.6c-1.1,0-2-0.9-2-2v-3.7c0-1.1,0.9-2,2-2h3.6c1.1,0,2,0.9,2,2
		V308.2z M491.3,299.5c-0.5,0.5-1.1,0.7-1.7,0.7c-0.6,0-1.2-0.2-1.6-0.6c-0.9-0.8-3.2-1.6-4.8-1.6c-1.6,0-3.9,0.8-4.8,1.6
		c-0.9,0.9-2.4,0.9-3.3-0.1c-0.9-0.9-0.9-2.4,0.1-3.3c2-1.9,5.6-2.9,8.1-2.9c2.4,0,6.1,1,8.1,2.9
		C492.2,297.1,492.2,298.6,491.3,299.5z M495.7,292.9c-0.9,0.9-2.4,1-3.3,0.1c-2-1.9-6.4-3.2-9.2-3.2c-2.8,0-7.3,1.3-9.2,3.2
		c-0.5,0.4-1,0.6-1.6,0.6c-0.6,0-1.2-0.2-1.7-0.7c-0.9-0.9-0.9-2.4,0.1-3.3c2.9-2.8,8.6-4.5,12.4-4.5c3.8,0,9.5,1.7,12.4,4.5
		C496.6,290.5,496.6,291.9,495.7,292.9z M465.3,283.3c4.2-4,12.4-6.4,17.9-6.4c5.5,0,13.7,2.4,17.9,6.4c0.9,0.9,1,2.4,0.1,3.3
		c-0.5,0.5-1.1,0.7-1.7,0.7c-0.6,0-1.2-0.2-1.6-0.6c-3.2-3-10.1-5.1-14.6-5.1c-4.5,0-11.4,2-14.6,5.1c-0.9,0.9-2.4,0.9-3.3-0.1
		C464.3,285.6,464.4,284.2,465.3,283.3z"/>
</g>
</svg>
