<svg id="Layer_1" data-name="Layer 1" xmlns="http://www.w3.org/2000/svg" viewBox="0 0 299.48 640.98"><defs><style>.cls-1,.cls-3{fill-opacity:0;stroke:#000;}.cls-1{stroke-opacity:0;}.cls-2{isolation:isolate;}.cls-3{stroke-width:2px;}</style></defs><title>sonoff th16</title><path id="a3uFxF0zg" d="M326.67,588.47l1.29.22,1.25.3,1.23.39,1.19.45,1.15.53,1.1.61,1.07.67,1,.73,1,.8.91.86.86.91.8,1,.73,1,.67,1.06.6,1.11.53,1.15.46,1.19.38,1.22.3,1.26.22,1.29.14,1.31,0,1.34,0,1.34-.14,1.31-.22,1.29-.3,1.25-.38,1.23-.46,1.19-.53,1.15-.6,1.1-.67,1.07-.73,1-.8,1-.86.91-.91.86-1,.8-1,.73-1.07.67-1.1.6-1.15.53-1.19.46-1.23.38L328,627l-1.29.22-1.31.14-1.34,0-1.34,0-1.31-.14-1.29-.22-1.26-.3-1.22-.38-1.19-.46-1.15-.53-1.11-.6-1.06-.67-1-.73-1-.8-.91-.86-.86-.91-.8-1-.73-1-.67-1.07-.6-1.1-.54-1.15-.45-1.19-.38-1.23-.31-1.25-.22-1.29-.13-1.31,0-1.34,0-1.34.13-1.31.22-1.29.31-1.26.38-1.22.45-1.19.54-1.15.6-1.11.67-1.06.73-1,.8-1,.86-.91.91-.86,1-.8,1-.73,1.06-.67,1.11-.61,1.15-.53,1.19-.45,1.22-.39,1.26-.3,1.29-.22,1.31-.13,1.34,0,1.34,0Zm-5.35,1.38-1.3.24-1.27.33-1.23.42-1.19.51-1.15.58-1.09.66-1,.73-1,.81-.93.87-.87.93-.8,1-.73,1-.66,1.1-.59,1.15-.5,1.19-.42,1.23-.33,1.27-.25,1.3-.14,1.33,0,1.36,0,1.36.14,1.34.25,1.3.33,1.27.42,1.23.5,1.19.59,1.15.66,1.1.73,1,.8,1,.87.93.93.87,1,.8,1,.74,1.09.66,1.15.58,1.19.5,1.23.42,1.27.34,1.3.24,1.34.15,1.36,0,1.36,0,1.33-.15,1.31-.25,1.27-.33,1.23-.42,1.19-.51,1.14-.58,1.1-.66,1-.74,1-.8.93-.88.87-.93.8-1,.73-1,.66-1.1.59-1.15.5-1.19.42-1.23.33-1.26.24-1.3.15-1.33.05-1.36-.05-1.36-.15-1.33-.24-1.3-.33-1.27-.42-1.23-.5-1.19-.59-1.15-.66-1.1-.73-1-.8-1-.87-.93-.93-.87-1-.81-1-.73-1.1-.66-1.14-.58-1.19-.51-1.23-.42-1.27-.33-1.31-.24-1.33-.15-1.36,0-1.36,0Z" transform="translate(-170.26 0.48)"/><path id="a3uFxF0zg-2" data-name="a3uFxF0zg" class="cls-1" d="M326.67,588.47l1.29.22,1.25.3,1.23.39,1.19.45,1.15.53,1.1.61,1.07.67,1,.73,1,.8.91.86.86.91.8,1,.73,1,.67,1.06.6,1.11.53,1.15.46,1.19.38,1.22.3,1.26.22,1.29.14,1.31,0,1.34,0,1.34-.14,1.31-.22,1.29-.3,1.25-.38,1.23-.46,1.19-.53,1.15-.6,1.1-.67,1.07-.73,1-.8,1-.86.91-.91.86-1,.8-1,.73-1.07.67-1.1.6-1.15.53-1.19.46-1.23.38L328,627l-1.29.22-1.31.14-1.34,0-1.34,0-1.31-.14-1.29-.22-1.26-.3-1.22-.38-1.19-.46-1.15-.53-1.11-.6-1.06-.67-1-.73-1-.8-.91-.86-.86-.91-.8-1-.73-1-.67-1.07-.6-1.1-.54-1.15-.45-1.19-.38-1.23-.31-1.25-.22-1.29-.13-1.31,0-1.34,0-1.34.13-1.31.22-1.29.31-1.26.38-1.22.45-1.19.54-1.15.6-1.11.67-1.06.73-1,.8-1,.86-.91.91-.86,1-.8,1-.73,1.06-.67,1.11-.61,1.15-.53,1.19-.45,1.22-.39,1.26-.3,1.29-.22,1.31-.13,1.34,0,1.34,0Zm-5.35,1.38-1.3.24-1.27.33-1.23.42-1.19.51-1.15.58-1.09.66-1,.73-1,.81-.93.87-.87.93-.8,1-.73,1-.66,1.1-.59,1.15-.5,1.19-.42,1.23-.33,1.27-.25,1.3-.14,1.33,0,1.36,0,1.36.14,1.34.25,1.3.33,1.27.42,1.23.5,1.19.59,1.15.66,1.1.73,1,.8,1,.87.93.93.87,1,.8,1,.74,1.09.66,1.15.58,1.19.5,1.23.42,1.27.34,1.3.24,1.34.15,1.36,0,1.36,0,1.33-.15,1.31-.25,1.27-.33,1.23-.42,1.19-.51,1.14-.58,1.1-.66,1-.74,1-.8.93-.88.87-.93.8-1,.73-1,.66-1.1.59-1.15.5-1.19.42-1.23.33-1.26.24-1.3.15-1.33.05-1.36-.05-1.36-.15-1.33-.24-1.3-.33-1.27-.42-1.23-.5-1.19-.59-1.15-.66-1.1-.73-1-.8-1-.87-.93-.93-.87-1-.81-1-.73-1.1-.66-1.14-.58-1.19-.51-1.23-.42-1.27-.33-1.31-.24-1.33-.15-1.36,0-1.36,0Z" transform="translate(-170.26 0.48)"/><path id="b1DHSbEbFE" d="M326.7,593.14l1.28.3,1.24.4,1.19.51,1.14.6,1.08.7,1,.78.94.87.87.94.78,1,.7,1.07.61,1.14.51,1.2.41,1.24.3,1.29.18,1.33.07,1.36-.06,1.37-.18,1.32-.3,1.29-.4,1.25-.51,1.19-.6,1.14-.7,1.08-.78,1-.87.94-.94.86-1,.79-1.08.7-1.14.6-1.2.51-1.24.4-1.29.29-1.33.18-1.36.07-1.36-.07-1.33-.18-1.29-.29-1.25-.4-1.19-.51-1.14-.6-1.08-.7-1-.79-.95-.86-.86-.94-.79-1-.69-1.08-.61-1.14-.5-1.19-.41-1.25-.29-1.29-.18-1.32-.06-1.37.06-1.36.18-1.33.29-1.29.41-1.24.5-1.2.61-1.14.69-1.07.79-1,.86-.94.95-.87,1-.78,1.08-.7,1.14-.6,1.19-.51,1.25-.4,1.29-.3,1.33-.18,1.36-.06,1.35.06Zm-5.33,3.5-1.24.37-1.19.5-1.11.63-1,.74-.95.85-.85.94-.74,1-.62,1.12-.51,1.18-.36,1.25-.23,1.3-.08,1.34.08,1.35.23,1.3.36,1.25.51,1.18.62,1.11.74,1,.85.94.95.85,1,.74,1.11.63,1.19.5,1.24.37,1.3.23,1.35.07,1.34-.07,1.3-.23,1.25-.37,1.19-.5,1.11-.63,1-.74,1-.85.84-.94.74-1,.63-1.11.5-1.18.37-1.25.23-1.3.08-1.35-.08-1.34-.23-1.3L334.9,604l-.5-1.18-.63-1.12-.74-1-.84-.94-1-.85-1-.74-1.11-.63-1.19-.5-1.25-.37-1.3-.23-1.34-.08-1.35.08Z" transform="translate(-170.26 0.48)"/><path id="b1DHSbEbFE-2" data-name="b1DHSbEbFE" class="cls-1" d="M326.7,593.14l1.28.3,1.24.4,1.19.51,1.14.6,1.08.7,1,.78.94.87.87.94.78,1,.7,1.07.61,1.14.51,1.2.41,1.24.3,1.29.18,1.33.07,1.36-.06,1.37-.18,1.32-.3,1.29-.4,1.25-.51,1.19-.6,1.14-.7,1.08-.78,1-.87.94-.94.86-1,.79-1.08.7-1.14.6-1.2.51-1.24.4-1.29.29-1.33.18-1.36.07-1.36-.07-1.33-.18-1.29-.29-1.25-.4-1.19-.51-1.14-.6-1.08-.7-1-.79-.95-.86-.86-.94-.79-1-.69-1.08-.61-1.14-.5-1.19-.41-1.25-.29-1.29-.18-1.32-.06-1.37.06-1.36.18-1.33.29-1.29.41-1.24.5-1.2.61-1.14.69-1.07.79-1,.86-.94.95-.87,1-.78,1.08-.7,1.14-.6,1.19-.51,1.25-.4,1.29-.3,1.33-.18,1.36-.06,1.35.06Zm-5.33,3.5-1.24.37-1.19.5-1.11.63-1,.74-.95.85-.85.94-.74,1-.62,1.12-.51,1.18-.36,1.25-.23,1.3-.08,1.34.08,1.35.23,1.3.36,1.25.51,1.18.62,1.11.74,1,.85.94.95.85,1,.74,1.11.63,1.19.5,1.24.37,1.3.23,1.35.07,1.34-.07,1.3-.23,1.25-.37,1.19-.5,1.11-.63,1-.74,1-.85.84-.94.74-1,.63-1.11.5-1.18.37-1.25.23-1.3.08-1.35-.08-1.34-.23-1.3L334.9,604l-.5-1.18-.63-1.12-.74-1-.84-.94-1-.85-1-.74-1.11-.63-1.19-.5-1.25-.37-1.3-.23-1.34-.08-1.35.08Z" transform="translate(-170.26 0.48)"/><path id="a1miOHVmAE" d="M326.28,605.59V602.2a2.26,2.26,0,0,0-4.52,0v3.39h-3.39a2.26,2.26,0,0,0,0,4.52h3.39v3.38a2.26,2.26,0,1,0,4.52,0v-3.38h3.38a2.24,2.24,0,0,0,2.26-2.26,2.3,2.3,0,0,0-2.26-2.26Z" transform="translate(-170.26 0.48)"/><path id="a1miOHVmAE-2" data-name="a1miOHVmAE" class="cls-1" d="M326.28,605.59V602.2a2.26,2.26,0,0,0-4.52,0v3.39h-3.39a2.26,2.26,0,0,0,0,4.52h3.39v3.38a2.26,2.26,0,1,0,4.52,0v-3.38h3.38a2.24,2.24,0,0,0,2.26-2.26,2.3,2.3,0,0,0-2.26-2.26Z" transform="translate(-170.26 0.48)"/><path id="b4lQvBTt" d="M281.91,136.24l1.3.22,1.28.31,1.24.38,1.2.47,1.17.54,1.12.61,1.08.68,1,.74,1,.81.92.87.87.93.81,1,.75,1,.68,1.08L297,147l.54,1.16.46,1.21.39,1.24.3,1.27.23,1.3.13,1.33,0,1.36,0,1.35-.13,1.34-.23,1.3-.3,1.27-.39,1.24-.46,1.21-.54,1.16-.61,1.13-.68,1.07-.75,1-.81,1-.87.93-.92.87-1,.81-1,.74-1.08.68-1.12.61-1.17.54-1.2.47-1.24.38-1.28.31-1.3.22-1.33.14-1.36,0-1.35,0-1.33-.14-1.31-.22L274,175l-1.24-.38-1.2-.47-1.17-.54-1.12-.61-1.08-.68-1-.74-1-.81-.93-.87-.86-.93-.81-1-.75-1-.68-1.07-.61-1.13-.54-1.16-.46-1.21-.39-1.24-.31-1.27-.22-1.3-.13-1.34-.05-1.35.05-1.36.13-1.33.22-1.3.31-1.27.39-1.24.46-1.21.54-1.16.61-1.13.68-1.08.75-1,.81-1,.86-.93.93-.87,1-.81,1-.74,1.08-.68,1.12-.61,1.17-.54,1.2-.47,1.24-.38,1.27-.31,1.31-.22,1.33-.14,1.35,0,1.36,0Zm-5.29,4.6-1.25.27-1.21.37-1.17.47-1.12.55-1.06.65-1,.72-.94.8-.87.87-.8.94-.72,1-.64,1.06-.56,1.11-.46,1.17-.37,1.21-.27,1.24-.16,1.29-.06,1.31.06,1.32.16,1.29.27,1.25.37,1.21.47,1.16.56,1.12.64,1.06.72,1,.8.94.88.87.94.8,1,.73,1.06.64,1.12.55,1.16.46,1.21.37,1.25.27,1.28.17,1.31.05,1.32-.05,1.29-.17,1.25-.27,1.21-.37,1.17-.47,1.11-.55,1.07-.65,1-.72.94-.8.87-.87.8-.95.72-1,.64-1.06.55-1.12.47-1.16.37-1.21.27-1.25.16-1.28.06-1.31-.06-1.32-.17-1.29L294,152l-.37-1.21-.46-1.16-.56-1.12-.64-1.06-.73-1-.8-.94-.87-.88-.94-.79-1-.73-1.07-.64-1.11-.55-1.17-.47-1.2-.36-1.25-.27-1.28-.17-1.32-.05-1.32.05Z" transform="translate(-170.26 0.48)"/><path id="b4lQvBTt-2" data-name="b4lQvBTt" class="cls-1" d="M281.91,136.24l1.3.22,1.28.31,1.24.38,1.2.47,1.17.54,1.12.61,1.08.68,1,.74,1,.81.92.87.87.93.81,1,.75,1,.68,1.08L297,147l.54,1.16.46,1.21.39,1.24.3,1.27.23,1.3.13,1.33,0,1.36,0,1.35-.13,1.34-.23,1.3-.3,1.27-.39,1.24-.46,1.21-.54,1.16-.61,1.13-.68,1.07-.75,1-.81,1-.87.93-.92.87-1,.81-1,.74-1.08.68-1.12.61-1.17.54-1.2.47-1.24.38-1.28.31-1.3.22-1.33.14-1.36,0-1.35,0-1.33-.14-1.31-.22L274,175l-1.24-.38-1.2-.47-1.17-.54-1.12-.61-1.08-.68-1-.74-1-.81-.93-.87-.86-.93-.81-1-.75-1-.68-1.07-.61-1.13-.54-1.16-.46-1.21-.39-1.24-.31-1.27-.22-1.3-.13-1.34-.05-1.35.05-1.36.13-1.33.22-1.3.31-1.27.39-1.24.46-1.21.54-1.16.61-1.13.68-1.08.75-1,.81-1,.86-.93.93-.87,1-.81,1-.74,1.08-.68,1.12-.61,1.17-.54,1.2-.47,1.24-.38,1.27-.31,1.31-.22,1.33-.14,1.35,0,1.36,0Zm-5.29,4.6-1.25.27-1.21.37-1.17.47-1.12.55-1.06.65-1,.72-.94.8-.87.87-.8.94-.72,1-.64,1.06-.56,1.11-.46,1.17-.37,1.21-.27,1.24-.16,1.29-.06,1.31.06,1.32.16,1.29.27,1.25.37,1.21.47,1.16.56,1.12.64,1.06.72,1,.8.94.88.87.94.8,1,.73,1.06.64,1.12.55,1.16.46,1.21.37,1.25.27,1.28.17,1.31.05,1.32-.05,1.29-.17,1.25-.27,1.21-.37,1.17-.47,1.11-.55,1.07-.65,1-.72.94-.8.87-.87.8-.95.72-1,.64-1.06.55-1.12.47-1.16.37-1.21.27-1.25.16-1.28.06-1.31-.06-1.32-.17-1.29L294,152l-.37-1.21-.46-1.16-.56-1.12-.64-1.06-.73-1-.8-.94-.87-.88-.94-.79-1-.73-1.07-.64-1.11-.55-1.17-.47-1.2-.36-1.25-.27-1.28-.17-1.32-.05-1.32.05Z" transform="translate(-170.26 0.48)"/><path id="aOHj2Pbi" d="M254.56,417.1l1.23.36,1.17.5,1.1.62,1,.73.94.84.83.94.74,1,.62,1.1.49,1.17.37,1.23.23,1.28.07,1.33-.07,1.32-.23,1.29-.36,1.23-.5,1.17-.61,1.1-.73,1-.84.93-.93.84-1,.73-1.1.62-1.17.5-1.24.37-1.29.22-1.33.08-1.33-.08-1.28-.22-1.23-.37-1.17-.5-1.1-.62-1-.73-.94-.84-.83-.93-.74-1-.62-1.1-.5-1.17-.36-1.23-.23-1.29-.08-1.32.08-1.33.23-1.28.36-1.23.49-1.17.62-1.1.73-1,.84-.94.93-.84,1-.73,1.1-.62,1.17-.5,1.24-.36,1.28-.23,1.34-.08,1.33.08Zm-5.26,2.34-1.21.46-1.13.63-1,.77-.91.91-.77,1-.62,1.12-.47,1.22-.29,1.29-.1,1.36.1,1.35.29,1.29.47,1.22.62,1.13.77,1,.91.9,1,.78,1.13.62,1.21.47,1.3.28,1.35.1,1.34-.1,1.28-.28,1.21-.47,1.13-.62,1-.78.9-.9.78-1,.63-1.13.47-1.22.3-1.29.11-1.35-.1-1.36-.29-1.29-.47-1.22-.62-1.12-.77-1-.91-.91-1-.77-1.13-.63-1.21-.46-1.3-.29-1.35-.1-1.35.1Z" transform="translate(-170.26 0.48)"/><path id="aOHj2Pbi-2" data-name="aOHj2Pbi" class="cls-1" d="M254.56,417.1l1.23.36,1.17.5,1.1.62,1,.73.94.84.83.94.74,1,.62,1.1.49,1.17.37,1.23.23,1.28.07,1.33-.07,1.32-.23,1.29-.36,1.23-.5,1.17-.61,1.1-.73,1-.84.93-.93.84-1,.73-1.1.62-1.17.5-1.24.37-1.29.22-1.33.08-1.33-.08-1.28-.22-1.23-.37-1.17-.5-1.1-.62-1-.73-.94-.84-.83-.93-.74-1-.62-1.1-.5-1.17-.36-1.23-.23-1.29-.08-1.32.08-1.33.23-1.28.36-1.23.49-1.17.62-1.1.73-1,.84-.94.93-.84,1-.73,1.1-.62,1.17-.5,1.24-.36,1.28-.23,1.34-.08,1.33.08Zm-5.26,2.34-1.21.46-1.13.63-1,.77-.91.91-.77,1-.62,1.12-.47,1.22-.29,1.29-.1,1.36.1,1.35.29,1.29.47,1.22.62,1.13.77,1,.91.9,1,.78,1.13.62,1.21.47,1.3.28,1.35.1,1.34-.1,1.28-.28,1.21-.47,1.13-.62,1-.78.9-.9.78-1,.63-1.13.47-1.22.3-1.29.11-1.35-.1-1.36-.29-1.29-.47-1.22-.62-1.12-.77-1-.91-.91-1-.77-1.13-.63-1.21-.46-1.3-.29-1.35-.1-1.35.1Z" transform="translate(-170.26 0.48)"/><path id="f7g1o1BOWR" d="M352.59,0h.33l.17,0,.16,0,.17,0,.16,0,.16,0,.17,0,.16,0,.16.05.16.05.16.06.15.06.16.07.15.07.16.07.15.08.15.09.15.09.14.09,52.11,34h45.84l15.53,82.05V640H170.76V117.05L186.29,35h45.84L284.28,1l.15-.09.15-.09.15-.09.15-.08L285,.62l.16-.07.15-.07.16-.06.16-.06.16-.05L286,.26l.16,0,.16,0,.16,0,.17,0,.16,0,.17,0,.16,0h1.16l.17,0,.16,0,.17,0,.16,0,.17,0,.16,0,.16,0,.16.05.16.05.16.06.16.06.16.06.16.07.15.08.15.08.15.08.15.09.15.09.14.09.14.1.13.1.14.11.13.11.12.11.13.11.12.12.11.12.11.12.11.13.11.13.1.13.1.14.1.13.09.14.08.14.09.15.08.15.07.14.07.15.07.16.07.15.06.16.05.16,0,.16.05.16,0,.16,0,.16,0,.17,0,.17,0,.16,0,.17,0,.17V38.43l.29.42.33.41.36.41.4.41.42.4.46.4.49.4.51.38.54.38.56.38.59.37.61.36.63.35.65.35.67.34.68.33.7.32.71.31.73.3.73.29.75.28.75.27.77.26.76.25.78.24.77.22.78.21.78.19.77.19.78.17.77.15.76.14.76.13.75.11.74.09.73.08.72.06.71,0,.69,0h1.33l.67,0,.69,0,.7-.06.71-.08.72-.09.73-.11.74-.13.75-.14.75-.16.75-.17.76-.18.76-.2.77-.21L331,47l.76-.24.75-.25.75-.26L334,46l.74-.28.73-.29.72-.31.71-.32.7-.32.68-.33.67-.35.66-.35.64-.36.61-.37.6-.38L342,42l.56-.39.53-.4.5-.4.49-.41.45-.41.42-.42.4-.42.36-.43.34-.43V5.93l0-.17V5.59l0-.17,0-.16,0-.17,0-.17,0-.16,0-.16,0-.16.05-.16.06-.16L346.5,4l.06-.15.07-.16.07-.15.08-.14.08-.15.08-.15.09-.14.09-.14.09-.13.1-.14.11-.13.1-.13.11-.13.11-.12.12-.12.12-.12.12-.11.13-.11.13-.11.13-.11.14-.1.14-.1.14-.09L349,.94l.15-.09.15-.08.15-.08.16-.08.16-.07L350,.48l.16-.06.16-.06.16-.05.16-.05.16,0,.17,0,.16,0,.17,0,.16,0,.17,0,.16,0h.83ZM223.05,630.83H425V557.59H223.05ZM203,622.21H179.88v8.62h40.87V504.67l.49-.36,2.06-1.4,2.08-1.36,2.11-1.32,2.13-1.28,2.15-1.25,2.18-1.22,2.2-1.18,2.23-1.14,2.26-1.1,2.27-1.07,2.31-1,2.33-1,2.36-1,2.38-.93,2.41-.89,2.43-.85,2.46-.82,2.49-.79,2.52-.75,2.54-.71,2.57-.68,2.6-.65,2.62-.61,2.65-.57,2.69-.54,2.7-.5,2.74-.47,2.77-.43,2.79-.4,2.83-.37,2.85-.32,2.88-.3,2.92-.26,2.94-.22,3-.19,3-.16,3-.12,3.07-.08,3.09-.05,3.12,0,3.13,0,3.09.05,3.06.08,3,.12,3,.16,3,.19,2.95.22,2.91.26,2.88.3,2.86.32,2.82.37,2.8.4,2.77.43,2.74.47,2.71.5,2.68.54,2.65.57,2.63.61,2.6.65,2.57.68,2.55.71,2.51.75,2.49.79,2.47.82,2.43.85,2.41.89,2.39.93,2.35,1,2.34,1,2.3,1,2.28,1.07,2.26,1.1,2.23,1.14,2.2,1.18,2.18,1.22,2.15,1.25,2.13,1.28,2.11,1.32,2.08,1.36,2.06,1.4.5.36V630.83h32.87v-8.62H439.94V462.49H203Zm-23.12-4.56h18.56V457.93h33.69V386.85l-33.24-21V188.75l33.28-21v-48H179.88ZM407.51,167.76l33.24,21V365.86l-33.24,21v71.08h37V617.65h15.58V119.75H407.51Zm-89.6,311-3,.09-3,.12-3,.15-2.92.18-2.89.22-2.86.25-2.84.29-2.8.32-2.78.35-2.74.39-2.72.43-2.69.45-2.66.49-2.64.53-2.61.56-2.58.59-2.55.63-2.52.66-2.5.69-2.47.74-2.45.76-2.42.8-2.39.83-2.37.87-2.34.91-2.32.93-2.29,1-2.26,1L242.12,495,239.9,496l-2.19,1.12-2.17,1.14-2.14,1.19-2.12,1.21L229.19,502l-2.07,1.29-2,1.32-2,1.36v49.4H425v-49.4l-2-1.36-2-1.32L418.85,502l-2.1-1.25-2.11-1.21-2.15-1.19-2.16-1.14L408.14,496,405.92,495l-2.24-1.05-2.26-1-2.29-1-2.32-.93-2.34-.91-2.37-.87-2.39-.83-2.42-.8-2.45-.76-2.47-.74-2.5-.69-2.52-.66-2.56-.63-2.58-.59-2.6-.56-2.64-.53-2.66-.49-2.69-.45-2.72-.43-2.75-.39-2.77-.35-2.81-.32-2.83-.29-2.86-.25-2.89-.22-2.92-.18-3-.15-3-.12-3-.09-3,0H321ZM234.43,169l-33.24,21V364.59l33.24,21V458H405.21V385.59l33.23-21V190l-33.23-21V119.75H234.43Zm-54-53.83h51.75v-71H193.83Zm227.09,0h52.11l-13.45-71H407.51Zm-173.08,0H405.21v-71H353l-.43.52-.45.52-.47.5-.49.5-.51.48-.53.48-.54.46-.57.46-.57.44-.6.44-.6.43-.62.41-.64.41-.64.4-.66.38-.66.38-.68.37-.69.35-.69.35-.7.34-.71.32-.72.32-.72.3-.72.3-.73.28-.73.28-.73.26-.74.25-.74.25-.73.23-.74.22-.74.21-.73.2-.73.19-.73.18-.72.17-.72.15-.71.15-.7.13-.7.13-.18,0-.19,0-.18,0-.18,0-.18,0-.18,0-.18,0-.18,0-.18,0-.18,0-.18,0-.18,0-.18,0-.17,0-.18,0-.18,0-.17,0-.18,0-.17,0-.17,0H323l-.17,0h-.17l-.17,0h-4.24l-.32,0-.33,0-.34,0-.33,0-.34,0-.34,0-.35,0-.34,0-.35,0-.36-.05-.35,0-.36,0-.35,0-.36-.06L313,57.4l-.37-.06-.36-.07L312,57.2l-.37-.07-.37-.08-.37-.07-.37-.09-.37-.08-.37-.09-.38-.08-.37-.1-.38-.09-.37-.1-.38-.1-.37-.1L307.1,56l-.38-.11-.37-.11L306,55.7l-.37-.11-.56-.17-.56-.18-.56-.19-.55-.19-.56-.19-.55-.2-.55-.21-.54-.22-.55-.22-.54-.22-.53-.23-.54-.24-.52-.24-.53-.25-.52-.25-.51-.26-.51-.27-.5-.27-.5-.28-.49-.28-.49-.29-.47-.29-.47-.3-.47-.3-.45-.32-.45-.31-.44-.32-.43-.33-.42-.33-.41-.34-.4-.35-.39-.35-.38-.35-.37-.36-.36-.37-.35-.37-.34-.38-.33-.38-.31-.39-.3-.39H234.43ZM398.26,39.65,355.18,11.56V39.65Zm-113.44,0V11.56L241.74,39.65Z" transform="translate(-170.26 0.48)"/><path id="f7g1o1BOWR-2" data-name="f7g1o1BOWR" class="cls-1" d="M352.59,0h.33l.17,0,.16,0,.17,0,.16,0,.16,0,.17,0,.16,0,.16.05.16.05.16.06.15.06.16.07.15.07.16.07.15.08.15.09.15.09.14.09,52.11,34h45.84l15.53,82.05V640H170.76V117.05L186.29,35h45.84L284.28,1l.15-.09.15-.09.15-.09.15-.08L285,.62l.16-.07.15-.07.16-.06.16-.06.16-.05L286,.26l.16,0,.16,0,.16,0,.17,0,.16,0,.17,0,.16,0h1.16l.17,0,.16,0,.17,0,.16,0,.17,0,.16,0,.16,0,.16.05.16.05.16.06.16.06.16.06.16.07.15.08.15.08.15.08.15.09.15.09.14.09.14.1.13.1.14.11.13.11.12.11.13.11.12.12.11.12.11.12.11.13.11.13.1.13.1.14.1.13.09.14.08.14.09.15.08.15.07.14.07.15.07.16.07.15.06.16.05.16,0,.16.05.16,0,.16,0,.16,0,.17,0,.17,0,.16,0,.17,0,.17V38.43l.29.42.33.41.36.41.4.41.42.4.46.4.49.4.51.38.54.38.56.38.59.37.61.36.63.35.65.35.67.34.68.33.7.32.71.31.73.3.73.29.75.28.75.27.77.26.76.25.78.24.77.22.78.21.78.19.77.19.78.17.77.15.76.14.76.13.75.11.74.09.73.08.72.06.71,0,.69,0h1.33l.67,0,.69,0,.7-.06.71-.08.72-.09.73-.11.74-.13.75-.14.75-.16.75-.17.76-.18.76-.2.77-.21L331,47l.76-.24.75-.25.75-.26L334,46l.74-.28.73-.29.72-.31.71-.32.7-.32.68-.33.67-.35.66-.35.64-.36.61-.37.6-.38L342,42l.56-.39.53-.4.5-.4.49-.41.45-.41.42-.42.4-.42.36-.43.34-.43V5.93l0-.17V5.59l0-.17,0-.16,0-.17,0-.17,0-.16,0-.16,0-.16.05-.16.06-.16L346.5,4l.06-.15.07-.16.07-.15.08-.14.08-.15.08-.15.09-.14.09-.14.09-.13.1-.14.11-.13.1-.13.11-.13.11-.12.12-.12.12-.12.12-.11.13-.11.13-.11.13-.11.14-.1.14-.1.14-.09L349,.94l.15-.09.15-.08.15-.08.16-.08.16-.07L350,.48l.16-.06.16-.06.16-.05.16-.05.16,0,.17,0,.16,0,.17,0,.16,0,.17,0,.16,0h.83ZM223.05,630.83H425V557.59H223.05ZM203,622.21H179.88v8.62h40.87V504.67l.49-.36,2.06-1.4,2.08-1.36,2.11-1.32,2.13-1.28,2.15-1.25,2.18-1.22,2.2-1.18,2.23-1.14,2.26-1.1,2.27-1.07,2.31-1,2.33-1,2.36-1,2.38-.93,2.41-.89,2.43-.85,2.46-.82,2.49-.79,2.52-.75,2.54-.71,2.57-.68,2.6-.65,2.62-.61,2.65-.57,2.69-.54,2.7-.5,2.74-.47,2.77-.43,2.79-.4,2.83-.37,2.85-.32,2.88-.3,2.92-.26,2.94-.22,3-.19,3-.16,3-.12,3.07-.08,3.09-.05,3.12,0,3.13,0,3.09.05,3.06.08,3,.12,3,.16,3,.19,2.95.22,2.91.26,2.88.3,2.86.32,2.82.37,2.8.4,2.77.43,2.74.47,2.71.5,2.68.54,2.65.57,2.63.61,2.6.65,2.57.68,2.55.71,2.51.75,2.49.79,2.47.82,2.43.85,2.41.89,2.39.93,2.35,1,2.34,1,2.3,1,2.28,1.07,2.26,1.1,2.23,1.14,2.2,1.18,2.18,1.22,2.15,1.25,2.13,1.28,2.11,1.32,2.08,1.36,2.06,1.4.5.36V630.83h32.87v-8.62H439.94V462.49H203Zm-23.12-4.56h18.56V457.93h33.69V386.85l-33.24-21V188.75l33.28-21v-48H179.88ZM407.51,167.76l33.24,21V365.86l-33.24,21v71.08h37V617.65h15.58V119.75H407.51Zm-89.6,311-3,.09-3,.12-3,.15-2.92.18-2.89.22-2.86.25-2.84.29-2.8.32-2.78.35-2.74.39-2.72.43-2.69.45-2.66.49-2.64.53-2.61.56-2.58.59-2.55.63-2.52.66-2.5.69-2.47.74-2.45.76-2.42.8-2.39.83-2.37.87-2.34.91-2.32.93-2.29,1-2.26,1L242.12,495,239.9,496l-2.19,1.12-2.17,1.14-2.14,1.19-2.12,1.21L229.19,502l-2.07,1.29-2,1.32-2,1.36v49.4H425v-49.4l-2-1.36-2-1.32L418.85,502l-2.1-1.25-2.11-1.21-2.15-1.19-2.16-1.14L408.14,496,405.92,495l-2.24-1.05-2.26-1-2.29-1-2.32-.93-2.34-.91-2.37-.87-2.39-.83-2.42-.8-2.45-.76-2.47-.74-2.5-.69-2.52-.66-2.56-.63-2.58-.59-2.6-.56-2.64-.53-2.66-.49-2.69-.45-2.72-.43-2.75-.39-2.77-.35-2.81-.32-2.83-.29-2.86-.25-2.89-.22-2.92-.18-3-.15-3-.12-3-.09-3,0H321ZM234.43,169l-33.24,21V364.59l33.24,21V458H405.21V385.59l33.23-21V190l-33.23-21V119.75H234.43Zm-54-53.83h51.75v-71H193.83Zm227.09,0h52.11l-13.45-71H407.51Zm-173.08,0H405.21v-71H353l-.43.52-.45.52-.47.5-.49.5-.51.48-.53.48-.54.46-.57.46-.57.44-.6.44-.6.43-.62.41-.64.41-.64.4-.66.38-.66.38-.68.37-.69.35-.69.35-.7.34-.71.32-.72.32-.72.3-.72.3-.73.28-.73.28-.73.26-.74.25-.74.25-.73.23-.74.22-.74.21-.73.2-.73.19-.73.18-.72.17-.72.15-.71.15-.7.13-.7.13-.18,0-.19,0-.18,0-.18,0-.18,0-.18,0-.18,0-.18,0-.18,0-.18,0-.18,0-.18,0-.18,0-.17,0-.18,0-.18,0-.17,0-.18,0-.17,0-.17,0H323l-.17,0h-.17l-.17,0h-4.24l-.32,0-.33,0-.34,0-.33,0-.34,0-.34,0-.35,0-.34,0-.35,0-.36-.05-.35,0-.36,0-.35,0-.36-.06L313,57.4l-.37-.06-.36-.07L312,57.2l-.37-.07-.37-.08-.37-.07-.37-.09-.37-.08-.37-.09-.38-.08-.37-.1-.38-.09-.37-.1-.38-.1-.37-.1L307.1,56l-.38-.11-.37-.11L306,55.7l-.37-.11-.56-.17-.56-.18-.56-.19-.55-.19-.56-.19-.55-.2-.55-.21-.54-.22-.55-.22-.54-.22-.53-.23-.54-.24-.52-.24-.53-.25-.52-.25-.51-.26-.51-.27-.5-.27-.5-.28-.49-.28-.49-.29-.47-.29-.47-.3-.47-.3-.45-.32-.45-.31-.44-.32-.43-.33-.42-.33-.41-.34-.4-.35-.39-.35-.38-.35-.37-.36-.36-.37-.35-.37-.34-.38-.33-.38-.31-.39-.3-.39H234.43ZM398.26,39.65,355.18,11.56V39.65Zm-113.44,0V11.56L241.74,39.65Z" transform="translate(-170.26 0.48)"/><path id="f4dyKzHGn" d="M389.53,417.1l1.23.36,1.17.5,1.1.62,1,.73.94.84.84.94.73,1,.62,1.1.5,1.17.36,1.23.23,1.28.08,1.33-.08,1.32-.22,1.29-.37,1.23-.49,1.17-.62,1.1-.73,1-.84.93-.93.84-1,.73-1.1.62-1.17.5-1.23.37-1.29.22-1.34.08-1.32-.08-1.29-.22-1.23-.37-1.17-.5-1.1-.62-1-.73-.93-.84-.84-.93-.74-1-.62-1.1-.49-1.17-.37-1.23-.23-1.29-.07-1.32.07-1.33.23-1.28.36-1.23.5-1.17.61-1.1.73-1,.84-.94.93-.84,1-.73,1.1-.62,1.17-.5,1.24-.36,1.29-.23,1.33-.08,1.33.08Zm-5.25,2.34-1.22.46-1.13.63-1,.77-.9.91-.78,1-.62,1.12-.47,1.22-.29,1.29-.1,1.36.1,1.35.29,1.29.47,1.22.62,1.13.78,1,.9.9,1,.78,1.13.62,1.22.47,1.29.28,1.35.1,1.34-.1,1.29-.28,1.21-.47,1.12-.62,1-.78.9-.9.78-1,.63-1.13.47-1.22.3-1.29.11-1.35-.1-1.36-.29-1.29-.46-1.22-.63-1.12-.77-1-.91-.91-1-.77-1.13-.63-1.21-.46-1.29-.29-1.36-.1-1.35.1Z" transform="translate(-170.26 0.48)"/><path id="f4dyKzHGn-2" data-name="f4dyKzHGn" class="cls-1" d="M389.53,417.1l1.23.36,1.17.5,1.1.62,1,.73.94.84.84.94.73,1,.62,1.1.5,1.17.36,1.23.23,1.28.08,1.33-.08,1.32-.22,1.29-.37,1.23-.49,1.17-.62,1.1-.73,1-.84.93-.93.84-1,.73-1.1.62-1.17.5-1.23.37-1.29.22-1.34.08-1.32-.08-1.29-.22-1.23-.37-1.17-.5-1.1-.62-1-.73-.93-.84-.84-.93-.74-1-.62-1.1-.49-1.17-.37-1.23-.23-1.29-.07-1.32.07-1.33.23-1.28.36-1.23.5-1.17.61-1.1.73-1,.84-.94.93-.84,1-.73,1.1-.62,1.17-.5,1.24-.36,1.29-.23,1.33-.08,1.33.08Zm-5.25,2.34-1.22.46-1.13.63-1,.77-.9.91-.78,1-.62,1.12-.47,1.22-.29,1.29-.1,1.36.1,1.35.29,1.29.47,1.22.62,1.13.78,1,.9.9,1,.78,1.13.62,1.22.47,1.29.28,1.35.1,1.34-.1,1.29-.28,1.21-.47,1.12-.62,1-.78.9-.9.78-1,.63-1.13.47-1.22.3-1.29.11-1.35-.1-1.36-.29-1.29-.46-1.22-.63-1.12-.77-1-.91-.91-1-.77-1.13-.63-1.21-.46-1.29-.29-1.36-.1-1.35.1Z" transform="translate(-170.26 0.48)"/><path id="anvulicaq" d="M255.92,231.06V213H274v18.06Zm5.24-5.32h7.59v-7.32h-7.59Z" transform="translate(-170.26 0.48)"/><path id="anvulicaq-2" data-name="anvulicaq" class="cls-1" d="M255.92,231.06V213H274v18.06Zm5.24-5.32h7.59v-7.32h-7.59Z" transform="translate(-170.26 0.48)"/><path id="b3bwMS7bKq" d="M260.8,209.57a.48.48,0,0,0,.41.18.61.61,0,0,0,.36-.13,8.56,8.56,0,0,0,3-7v0a8.55,8.55,0,0,0-3-7.05.57.57,0,0,0-.77.09.56.56,0,0,0,.09.77,7.5,7.5,0,0,1,2.62,6.19v0a7.58,7.58,0,0,1-2.62,6.23A.56.56,0,0,0,260.8,209.57Z" transform="translate(-170.26 0.48)"/><path id="b3bwMS7bKq-2" data-name="b3bwMS7bKq" class="cls-1" d="M260.8,209.57a.48.48,0,0,0,.41.18.61.61,0,0,0,.36-.13,8.56,8.56,0,0,0,3-7v0a8.55,8.55,0,0,0-3-7.05.57.57,0,0,0-.77.09.56.56,0,0,0,.09.77,7.5,7.5,0,0,1,2.62,6.19v0a7.58,7.58,0,0,1-2.62,6.23A.56.56,0,0,0,260.8,209.57Z" transform="translate(-170.26 0.48)"/><path id="c2fOh5fVy" d="M258.27,207.72a.51.51,0,0,0,.41.18.63.63,0,0,0,.36-.14,6.32,6.32,0,0,0,2.26-5.19v0a6.23,6.23,0,0,0-2.26-5.2.55.55,0,1,0-.68.86,5.37,5.37,0,0,1,1.85,4.38v0a5.19,5.19,0,0,1-1.85,4.33A.57.57,0,0,0,258.27,207.72Z" transform="translate(-170.26 0.48)"/><path id="c2fOh5fVy-2" data-name="c2fOh5fVy" class="cls-1" d="M258.27,207.72a.51.51,0,0,0,.41.18.63.63,0,0,0,.36-.14,6.32,6.32,0,0,0,2.26-5.19v0a6.23,6.23,0,0,0-2.26-5.2.55.55,0,1,0-.68.86,5.37,5.37,0,0,1,1.85,4.38v0a5.19,5.19,0,0,1-1.85,4.33A.57.57,0,0,0,258.27,207.72Z" transform="translate(-170.26 0.48)"/><path id="iagmUfIeW" d="M256.15,206a.61.61,0,0,0,.36-.13,4.53,4.53,0,0,0,0-6.64.56.56,0,0,0-.77.09.57.57,0,0,0,.09.77,3,3,0,0,1,1,2.53,3.1,3.1,0,0,1-1,2.48.47.47,0,0,0-.09.72A.48.48,0,0,0,256.15,206Z" transform="translate(-170.26 0.48)"/><path id="iagmUfIeW-2" data-name="iagmUfIeW" class="cls-1" d="M256.15,206a.61.61,0,0,0,.36-.13,4.53,4.53,0,0,0,0-6.64.56.56,0,0,0-.77.09.57.57,0,0,0,.09.77,3,3,0,0,1,1,2.53,3.1,3.1,0,0,1-1,2.48.47.47,0,0,0-.09.72A.48.48,0,0,0,256.15,206Z" transform="translate(-170.26 0.48)"/><path id="akrsT3xZL" d="M325.83,225.28H338.6v-5.23H325.83v-1.72H338.6v-5.24H320.68V231h5.15Z" transform="translate(-170.26 0.48)"/><path id="akrsT3xZL-2" data-name="akrsT3xZL" class="cls-1" d="M325.83,225.28H338.6v-5.23H325.83v-1.72H338.6v-5.24H320.68V231h5.15Z" transform="translate(-170.26 0.48)"/><path id="d3i9k7vx4" d="M347.09,225.28h12.78v-5.23H347.09v-1.72h12.78v-5.24H342V231h5.14Z" transform="translate(-170.26 0.48)"/><path id="d3i9k7vx4-2" data-name="d3i9k7vx4" class="cls-1" d="M347.09,225.28h12.78v-5.23H347.09v-1.72h12.78v-5.24H342V231h5.14Z" transform="translate(-170.26 0.48)"/><path id="eWU3QFk1O" d="M298.91,231V213.09h18V231Zm5.15-5.19h7.68v-7.45h-7.68Z" transform="translate(-170.26 0.48)"/><path id="eWU3QFk1O-2" data-name="eWU3QFk1O" class="cls-1" d="M298.91,231V213.09h18V231Zm5.15-5.19h7.68v-7.45h-7.68Z" transform="translate(-170.26 0.48)"/><path id="cm45zEsi7" d="M295.39,213.09h-18V231h5.15V218.33h7.67V231h5.15Z" transform="translate(-170.26 0.48)"/><path id="cm45zEsi7-2" data-name="cm45zEsi7" class="cls-1" d="M295.39,213.09h-18V231h5.15V218.33h7.67V231h5.15Z" transform="translate(-170.26 0.48)"/><path id="b4IosRtOd" d="M251.54,231.06V218.2h0v-5.29h-13v-7.58h13V200H233.3v12.87h0v5.33h13v7.54h-13v5.28h18.24Z" transform="translate(-170.26 0.48)"/><path id="b4IosRtOd-2" data-name="b4IosRtOd" class="cls-1" d="M251.54,231.06V218.2h0v-5.29h-13v-7.58h13V200H233.3v12.87h0v5.33h13v7.54h-13v5.28h18.24Z" transform="translate(-170.26 0.48)"/><path id="ag38F0VDU" d="M248.7,421.67v12.64h9v-2.16h-6.41V421.67Z" transform="translate(-170.26 0.48)"/><path id="ag38F0VDU-2" data-name="ag38F0VDU" class="cls-1" d="M248.7,421.67v12.64h9v-2.16h-6.41V421.67Z" transform="translate(-170.26 0.48)"/><path id="b6T9p9IFH0" d="M357,421.76h-2.53v12.73h2.4v-8.31l5.15,8.31h2.57V421.76h-2.39v8.53Z" transform="translate(-170.26 0.48)"/><path id="b6T9p9IFH0-2" data-name="b6T9p9IFH0" class="cls-1" d="M357,421.76h-2.53v12.73h2.4v-8.31l5.15,8.31h2.57V421.76h-2.39v8.53Z" transform="translate(-170.26 0.48)"/><path id="aJTZZj6vJ" d="M281.8,417.1l1.23.36,1.17.5,1.1.62,1,.73.94.84.84.94.73,1,.62,1.1.5,1.17.36,1.23.23,1.28.08,1.33-.08,1.32-.23,1.29-.36,1.23-.49,1.17-.62,1.1-.73,1-.84.93-.93.84-1,.73-1.1.62L283,439l-1.24.37-1.28.22-1.34.08-1.32-.08-1.29-.22-1.23-.37-1.17-.5-1.1-.62-1-.73-.93-.84-.84-.93-.74-1-.62-1.1-.49-1.17-.37-1.23-.23-1.29-.07-1.32.07-1.33.23-1.28.36-1.23.5-1.17.61-1.1.73-1,.84-.94.93-.84,1-.73,1.1-.62,1.17-.5,1.24-.36,1.29-.23,1.33-.08,1.33.08Zm-5.25,2.34-1.22.46-1.13.63-1,.77-.91.91-.77,1-.62,1.12-.47,1.22-.29,1.29-.1,1.36.1,1.35.29,1.29.47,1.22.62,1.13.77,1,.91.9,1,.78,1.13.62,1.22.47,1.29.28,1.35.1,1.34-.1,1.29-.28,1.21-.47,1.12-.62,1-.78.9-.9.78-1,.63-1.13.47-1.22.3-1.29.11-1.35-.1-1.36-.29-1.29-.46-1.22-.63-1.12-.77-1-.91-.91-1-.77L283,419.9l-1.21-.46-1.3-.29-1.35-.1-1.35.1Z" transform="translate(-170.26 0.48)"/><path id="aJTZZj6vJ-2" data-name="aJTZZj6vJ" class="cls-1" d="M281.8,417.1l1.23.36,1.17.5,1.1.62,1,.73.94.84.84.94.73,1,.62,1.1.5,1.17.36,1.23.23,1.28.08,1.33-.08,1.32-.23,1.29-.36,1.23-.49,1.17-.62,1.1-.73,1-.84.93-.93.84-1,.73-1.1.62L283,439l-1.24.37-1.28.22-1.34.08-1.32-.08-1.29-.22-1.23-.37-1.17-.5-1.1-.62-1-.73-.93-.84-.84-.93-.74-1-.62-1.1-.49-1.17-.37-1.23-.23-1.29-.07-1.32.07-1.33.23-1.28.36-1.23.5-1.17.61-1.1.73-1,.84-.94.93-.84,1-.73,1.1-.62,1.17-.5,1.24-.36,1.29-.23,1.33-.08,1.33.08Zm-5.25,2.34-1.22.46-1.13.63-1,.77-.91.91-.77,1-.62,1.12-.47,1.22-.29,1.29-.1,1.36.1,1.35.29,1.29.47,1.22.62,1.13.77,1,.91.9,1,.78,1.13.62,1.22.47,1.29.28,1.35.1,1.34-.1,1.29-.28,1.21-.47,1.12-.62,1-.78.9-.9.78-1,.63-1.13.47-1.22.3-1.29.11-1.35-.1-1.36-.29-1.29-.46-1.22-.63-1.12-.77-1-.91-.91-1-.77L283,419.9l-1.21-.46-1.3-.29-1.35-.1-1.35.1Z" transform="translate(-170.26 0.48)"/><path id="a1t5PYJV2X" d="M308.59,417.1l1.23.36,1.17.5,1.1.62,1,.73.93.84.84.94.73,1,.62,1.1.5,1.17.37,1.23.22,1.28.08,1.33-.08,1.32-.22,1.29-.37,1.23-.49,1.17-.62,1.1-.73,1-.83.93-.94.84-1,.73-1.1.62-1.17.5-1.23.37-1.29.22-1.34.08-1.32-.08-1.29-.22-1.23-.37-1.17-.5-1.1-.62-1-.73-.93-.84-.84-.93-.73-1-.62-1.1-.5-1.17-.37-1.23-.22-1.29-.08-1.32.08-1.33.22-1.28.36-1.23.5-1.17.62-1.1.73-1,.83-.94.93-.84,1-.73L301,418l1.18-.5,1.23-.36,1.29-.23,1.33-.08,1.33.08Zm-5.25,2.34-1.22.46-1.13.63-1,.77-.9.91-.77,1-.63,1.12-.46,1.22-.29,1.29-.1,1.36.1,1.35.29,1.29.46,1.22.63,1.13.77,1,.9.9,1,.78,1.13.62,1.22.47,1.29.28,1.35.1,1.35-.1,1.28-.28,1.21-.47,1.12-.62,1-.78.91-.9.77-1,.63-1.13.47-1.22.3-1.29.11-1.35-.1-1.36-.29-1.29-.46-1.22-.63-1.12-.77-1-.9-.91-1-.77-1.12-.63-1.22-.46-1.29-.29L306,419l-1.35.1Z" transform="translate(-170.26 0.48)"/><path id="a1t5PYJV2X-2" data-name="a1t5PYJV2X" class="cls-1" d="M308.59,417.1l1.23.36,1.17.5,1.1.62,1,.73.93.84.84.94.73,1,.62,1.1.5,1.17.37,1.23.22,1.28.08,1.33-.08,1.32-.22,1.29-.37,1.23-.49,1.17-.62,1.1-.73,1-.83.93-.94.84-1,.73-1.1.62-1.17.5-1.23.37-1.29.22-1.34.08-1.32-.08-1.29-.22-1.23-.37-1.17-.5-1.1-.62-1-.73-.93-.84-.84-.93-.73-1-.62-1.1-.5-1.17-.37-1.23-.22-1.29-.08-1.32.08-1.33.22-1.28.36-1.23.5-1.17.62-1.1.73-1,.83-.94.93-.84,1-.73L301,418l1.18-.5,1.23-.36,1.29-.23,1.33-.08,1.33.08Zm-5.25,2.34-1.22.46-1.13.63-1,.77-.9.91-.77,1-.63,1.12-.46,1.22-.29,1.29-.1,1.36.1,1.35.29,1.29.46,1.22.63,1.13.77,1,.9.9,1,.78,1.13.62,1.22.47,1.29.28,1.35.1,1.35-.1,1.28-.28,1.21-.47,1.12-.62,1-.78.91-.9.77-1,.63-1.13.47-1.22.3-1.29.11-1.35-.1-1.36-.29-1.29-.46-1.22-.63-1.12-.77-1-.9-.91-1-.77-1.12-.63-1.22-.46-1.29-.29L306,419l-1.35.1Z" transform="translate(-170.26 0.48)"/><path id="mxOQ6jsOn" d="M335.34,417.1l1.23.36,1.17.5,1.1.62,1,.73.93.84.84.94.73,1,.62,1.1.5,1.17.37,1.23.22,1.28.08,1.33-.08,1.32-.22,1.29-.37,1.23-.49,1.17-.62,1.1-.73,1-.83.93-.94.84-1,.73-1.1.62-1.17.5-1.23.37-1.29.22-1.34.08-1.32-.08-1.29-.22-1.23-.37-1.17-.5-1.1-.62-1-.73-.93-.84-.84-.93-.73-1-.62-1.1-.5-1.17-.37-1.23-.22-1.29-.08-1.32.08-1.33.22-1.28.36-1.23.5-1.17.62-1.1.73-1,.83-.94.93-.84,1-.73,1.1-.62,1.18-.5,1.23-.36,1.29-.23,1.33-.08,1.33.08Zm-5.25,2.34-1.22.46-1.13.63-1,.77-.9.91-.77,1-.63,1.12-.46,1.22-.29,1.29-.1,1.36.1,1.35.29,1.29.46,1.22.63,1.13.77,1,.9.9,1,.78,1.13.62,1.22.47,1.29.28,1.35.1,1.35-.1,1.28-.28,1.21-.47,1.12-.62,1-.78.91-.9.77-1,.63-1.13.47-1.22.3-1.29.11-1.35-.1-1.36-.29-1.29-.46-1.22-.63-1.12-.77-1-.9-.91-1-.77-1.12-.63-1.22-.46-1.29-.29-1.36-.1-1.35.1Z" transform="translate(-170.26 0.48)"/><path id="mxOQ6jsOn-2" data-name="mxOQ6jsOn" class="cls-1" d="M335.34,417.1l1.23.36,1.17.5,1.1.62,1,.73.93.84.84.94.73,1,.62,1.1.5,1.17.37,1.23.22,1.28.08,1.33-.08,1.32-.22,1.29-.37,1.23-.49,1.17-.62,1.1-.73,1-.83.93-.94.84-1,.73-1.1.62-1.17.5-1.23.37-1.29.22-1.34.08-1.32-.08-1.29-.22-1.23-.37-1.17-.5-1.1-.62-1-.73-.93-.84-.84-.93-.73-1-.62-1.1-.5-1.17-.37-1.23-.22-1.29-.08-1.32.08-1.33.22-1.28.36-1.23.5-1.17.62-1.1.73-1,.83-.94.93-.84,1-.73,1.1-.62,1.18-.5,1.23-.36,1.29-.23,1.33-.08,1.33.08Zm-5.25,2.34-1.22.46-1.13.63-1,.77-.9.91-.77,1-.63,1.12-.46,1.22-.29,1.29-.1,1.36.1,1.35.29,1.29.46,1.22.63,1.13.77,1,.9.9,1,.78,1.13.62,1.22.47,1.29.28,1.35.1,1.35-.1,1.28-.28,1.21-.47,1.12-.62,1-.78.91-.9.77-1,.63-1.13.47-1.22.3-1.29.11-1.35-.1-1.36-.29-1.29-.46-1.22-.63-1.12-.77-1-.9-.91-1-.77-1.12-.63-1.22-.46-1.29-.29-1.36-.1-1.35.1Z" transform="translate(-170.26 0.48)"/><path id="gqOK4R4xx" d="M362.12,417.1l1.23.36,1.17.5,1.1.62,1,.73.94.84.84.94.73,1,.62,1.1.5,1.17.36,1.23.23,1.28.08,1.33-.08,1.32-.22,1.29-.37,1.23-.49,1.17-.62,1.1-.73,1-.84.93-.93.84-1,.73-1.1.62-1.17.5-1.23.37-1.29.22-1.34.08-1.32-.08-1.29-.22-1.23-.37-1.17-.5-1.1-.62-1-.73-.93-.84-.84-.93-.74-1-.62-1.1-.49-1.17-.37-1.23-.23-1.29-.07-1.32.07-1.33.23-1.28.36-1.23.5-1.17.61-1.1.73-1,.84-.94.93-.84,1-.73,1.1-.62,1.17-.5,1.24-.36,1.29-.23,1.33-.08,1.33.08Zm-5.25,2.34-1.22.46-1.13.63-1,.77-.9.91-.78,1-.62,1.12-.47,1.22-.29,1.29-.09,1.36.09,1.35.29,1.29.47,1.22.62,1.13.78,1,.9.9,1,.78,1.13.62,1.22.47,1.29.28,1.35.1,1.34-.1,1.29-.28,1.21-.47,1.12-.62,1-.78.9-.9.78-1,.63-1.13.47-1.22.3-1.29.11-1.35-.1-1.36-.29-1.29-.46-1.22-.63-1.12-.77-1-.91-.91-1-.77-1.13-.63-1.21-.46-1.29-.29-1.36-.1-1.35.1Z" transform="translate(-170.26 0.48)"/><path id="gqOK4R4xx-2" data-name="gqOK4R4xx" class="cls-1" d="M362.12,417.1l1.23.36,1.17.5,1.1.62,1,.73.94.84.84.94.73,1,.62,1.1.5,1.17.36,1.23.23,1.28.08,1.33-.08,1.32-.22,1.29-.37,1.23-.49,1.17-.62,1.1-.73,1-.84.93-.93.84-1,.73-1.1.62-1.17.5-1.23.37-1.29.22-1.34.08-1.32-.08-1.29-.22-1.23-.37-1.17-.5-1.1-.62-1-.73-.93-.84-.84-.93-.74-1-.62-1.1-.49-1.17-.37-1.23-.23-1.29-.07-1.32.07-1.33.23-1.28.36-1.23.5-1.17.61-1.1.73-1,.84-.94.93-.84,1-.73,1.1-.62,1.17-.5,1.24-.36,1.29-.23,1.33-.08,1.33.08Zm-5.25,2.34-1.22.46-1.13.63-1,.77-.9.91-.78,1-.62,1.12-.47,1.22-.29,1.29-.09,1.36.09,1.35.29,1.29.47,1.22.62,1.13.78,1,.9.9,1,.78,1.13.62,1.22.47,1.29.28,1.35.1,1.34-.1,1.29-.28,1.21-.47,1.12-.62,1-.78.9-.9.78-1,.63-1.13.47-1.22.3-1.29.11-1.35-.1-1.36-.29-1.29-.46-1.22-.63-1.12-.77-1-.91-.91-1-.77-1.13-.63-1.21-.46-1.29-.29-1.36-.1-1.35.1Z" transform="translate(-170.26 0.48)"/><path id="b3ZmUD3iea" class="cls-1" d="M0,0" transform="translate(-170.26 0.48)"/><g id="eSq9QJ50u"><g id="eldKnVelj" class="cls-2"><g class="cls-2"><path d="M244,405.59a3.16,3.16,0,0,1,.57,1.95,3.41,3.41,0,0,1-.65,2.14,2.9,2.9,0,0,1-4.27.13,3.3,3.3,0,0,1-.68-2.13,3.39,3.39,0,0,1,.58-2,2.51,2.51,0,0,1,2.2-1.06A2.63,2.63,0,0,1,244,405.59Zm-.69,3.66a3.14,3.14,0,0,0,.46-1.69,2.42,2.42,0,0,0-.53-1.63,1.81,1.81,0,0,0-1.45-.62,1.88,1.88,0,0,0-1.45.61,2.58,2.58,0,0,0-.56,1.8,2.64,2.64,0,0,0,.48,1.61,1.81,1.81,0,0,0,1.56.66A1.62,1.62,0,0,0,243.3,409.25Z" transform="translate(-170.26 0.48)"/><path d="M246.09,406.33v2.78a1.2,1.2,0,0,0,.1.52.69.69,0,0,0,.68.38,1,1,0,0,0,1-.66,2.67,2.67,0,0,0,.14-1v-2.05h.7v4.18H248v-.62a1.41,1.41,0,0,1-.33.4,1.45,1.45,0,0,1-1,.33,1.23,1.23,0,0,1-1.2-.6,1.81,1.81,0,0,1-.17-.86v-2.84Z" transform="translate(-170.26 0.48)"/><path d="M250,405.16h.71v1.17h.67v.57h-.67v2.73a.3.3,0,0,0,.15.29.64.64,0,0,0,.27,0h.25v.56l-.25.05-.28,0a.76.76,0,0,1-.67-.25,1.12,1.12,0,0,1-.18-.65V406.9h-.57v-.57H250Z" transform="translate(-170.26 0.48)"/><path d="M252,406.34h.69v.55a1.71,1.71,0,0,1,.46-.44,1.49,1.49,0,0,1,.84-.23,1.58,1.58,0,0,1,1.21.54,2.23,2.23,0,0,1,.5,1.56,2.39,2.39,0,0,1-.72,2,1.63,1.63,0,0,1-1.06.37,1.45,1.45,0,0,1-.8-.21,1.82,1.82,0,0,1-.42-.4v2.14H252Zm2.65,3.28a2,2,0,0,0,.33-1.23,2.29,2.29,0,0,0-.15-.86,1.06,1.06,0,0,0-2,0,2.89,2.89,0,0,0-.15,1,2.1,2.1,0,0,0,.15.82,1.07,1.07,0,0,0,1.82.24Z" transform="translate(-170.26 0.48)"/><path d="M257.22,406.33v2.78a1.2,1.2,0,0,0,.1.52.69.69,0,0,0,.68.38,1,1,0,0,0,1-.66,2.67,2.67,0,0,0,.14-1v-2.05h.7v4.18h-.66v-.62a1.41,1.41,0,0,1-.33.4,1.45,1.45,0,0,1-1,.33,1.23,1.23,0,0,1-1.2-.6,1.81,1.81,0,0,1-.17-.86v-2.84Z" transform="translate(-170.26 0.48)"/><path d="M261.1,405.16h.71v1.17h.67v.57h-.67v2.73a.3.3,0,0,0,.15.29.64.64,0,0,0,.27,0h.25v.56l-.25.05-.28,0a.76.76,0,0,1-.67-.25,1.12,1.12,0,0,1-.18-.65V406.9h-.57v-.57h.57Z" transform="translate(-170.26 0.48)"/></g></g></g><g id="c29mLbeYMa"><g id="bAxaeS7vi" class="cls-2"><g class="cls-2"><path d="M323.64,404.77h.79v5.74h-.79Z" transform="translate(-170.26 0.48)"/><path d="M325.59,406.33h.67v.59a1.86,1.86,0,0,1,.63-.53,1.68,1.68,0,0,1,.74-.16,1.22,1.22,0,0,1,1.2.62,2.21,2.21,0,0,1,.17,1v2.68h-.71v-2.64a1.43,1.43,0,0,0-.11-.62.69.69,0,0,0-.68-.39,1.37,1.37,0,0,0-.41.05,1.05,1.05,0,0,0-.51.34,1,1,0,0,0-.23.43,2.88,2.88,0,0,0-.05.63v2.19h-.7Z" transform="translate(-170.26 0.48)"/><path d="M330,406.34h.69v.55a1.7,1.7,0,0,1,.46-.44,1.49,1.49,0,0,1,.84-.23,1.58,1.58,0,0,1,1.21.54,2.23,2.23,0,0,1,.5,1.56,2.39,2.39,0,0,1-.72,2,1.63,1.63,0,0,1-1.06.37,1.45,1.45,0,0,1-.8-.21,1.83,1.83,0,0,1-.42-.4v2.14H330Zm2.65,3.28a2,2,0,0,0,.33-1.23,2.29,2.29,0,0,0-.15-.86,1.06,1.06,0,0,0-2,0,2.89,2.89,0,0,0-.14,1,2.1,2.1,0,0,0,.14.82,1.07,1.07,0,0,0,1.83.24Z" transform="translate(-170.26 0.48)"/><path d="M335.19,406.33v2.78a1.21,1.21,0,0,0,.1.52.69.69,0,0,0,.68.38,1,1,0,0,0,1-.66,2.67,2.67,0,0,0,.14-1v-2.05h.7v4.18h-.66v-.62a1.42,1.42,0,0,1-.33.4,1.45,1.45,0,0,1-1,.33,1.23,1.23,0,0,1-1.2-.6,1.82,1.82,0,0,1-.17-.86v-2.84Z" transform="translate(-170.26 0.48)"/><path d="M339.08,405.16h.71v1.17h.67v.57h-.67v2.73a.3.3,0,0,0,.15.29.63.63,0,0,0,.27,0h.25v.56l-.25.05-.28,0a.76.76,0,0,1-.67-.25,1.12,1.12,0,0,1-.18-.65V406.9h-.57v-.57h.57Z" transform="translate(-170.26 0.48)"/></g></g></g><g id="e2pGpTl1SV"><g id="bl1BuUd5" class="cls-2"><g class="cls-2"><path d="M372.64,212.67v1.66h-2.8V222h-2v-7.7h-2.81v-1.66Z" transform="translate(-170.26 0.48)"/><path d="M373.77,222v-9.36h1.94v3.57h3.64v-3.57h1.94V222h-1.94v-4.18h-3.64V222Z" transform="translate(-170.26 0.48)"/><path d="M383.08,215.68v-1.23a8,8,0,0,0,1.2-.11,1.69,1.69,0,0,0,.89-.48,1.59,1.59,0,0,0,.35-.66,1.54,1.54,0,0,0,.07-.37h1.51V222h-1.85v-6.35Z" transform="translate(-170.26 0.48)"/><path d="M394.18,215.14a.92.92,0,0,0-.17-.49,1,1,0,0,0-.88-.43,1.3,1.3,0,0,0-1.26,1,6.13,6.13,0,0,0-.28,1.61,2,2,0,0,1,.78-.58,2.86,2.86,0,0,1,3,.65,3,3,0,0,1,.78,2.13,3.59,3.59,0,0,1-.77,2.27,2.84,2.84,0,0,1-2.39,1,2.75,2.75,0,0,1-2.56-1.45,5.92,5.92,0,0,1-.64-2.93,13.47,13.47,0,0,1,.09-1.71,5.26,5.26,0,0,1,.62-2,3.14,3.14,0,0,1,1-1.07,2.78,2.78,0,0,1,1.53-.41,3,3,0,0,1,2,.66,2.5,2.5,0,0,1,.86,1.75ZM392,220.33a1.27,1.27,0,0,0,1,.47,1.13,1.13,0,0,0,.95-.45,1.89,1.89,0,0,0,.35-1.18,1.77,1.77,0,0,0-.39-1.23,1.26,1.26,0,0,0-1-.43,1.29,1.29,0,0,0-.82.28,1.58,1.58,0,0,0-.53,1.33A1.81,1.81,0,0,0,392,220.33Z" transform="translate(-170.26 0.48)"/></g></g></g><path id="a2EHGFcr5" d="M328.26,421.44v12.65h8.94v-2.17h-6.41V421.44Z" transform="translate(-170.26 0.48)"/><path id="a2EHGFcr5-2" data-name="a2EHGFcr5" class="cls-1" d="M328.26,421.44v12.65h8.94v-2.17h-6.41V421.44Z" transform="translate(-170.26 0.48)"/><path id="b1T7ZBkzJQ" d="M384.39,421.85h-2.53v12.73h2.4v-8.3l5.15,8.3H392V421.85h-2.39v8.53Z" transform="translate(-170.26 0.48)"/><path id="b1T7ZBkzJQ-2" data-name="b1T7ZBkzJQ" class="cls-1" d="M384.39,421.85h-2.53v12.73h2.4v-8.3l5.15,8.3H392V421.85h-2.39v8.53Z" transform="translate(-170.26 0.48)"/><path id="gcdFEjrSKd" class="cls-3" d="M306,417.83v-9.77H279.19v9.77" transform="translate(-170.26 0.48)"/><path id="b74Lqmf4s4" class="cls-3" d="M386.92,417.83v-9.77H359.51v9.77" transform="translate(-170.26 0.48)"/><path id="b490zacEVl" d="M274.7,421.67v12.64h9v-2.16h-6.41V421.67Z" transform="translate(-170.26 0.48)"/><path id="b490zacEVl-2" data-name="b490zacEVl" class="cls-1" d="M274.7,421.67v12.64h9v-2.16h-6.41V421.67Z" transform="translate(-170.26 0.48)"/><path id="c1hXTDNdfm" class="cls-3" d="M283.68,422.59h-9" transform="translate(-170.26 0.48)"/><path id="a6b0nR7I1M" class="cls-3" d="M283.68,428H276" transform="translate(-170.26 0.48)"/><path id="blA56Xnwa" d="M301.49,421.67v12.64h9v-2.16h-6.42V421.67Z" transform="translate(-170.26 0.48)"/><path id="blA56Xnwa-2" data-name="blA56Xnwa" class="cls-1" d="M301.49,421.67v12.64h9v-2.16h-6.42V421.67Z" transform="translate(-170.26 0.48)"/><path id="a1NItKn22Y" class="cls-3" d="M310.48,422.59h-9" transform="translate(-170.26 0.48)"/><path id="brAscZHR8" class="cls-3" d="M310.48,428h-7.67" transform="translate(-170.26 0.48)"/></svg>