<?xml version="1.0" encoding="utf-8"?>
<!-- Generator: Adobe Illustrator 21.0.0, SVG Export Plug-In . SVG Version: 6.00 Build 0)  -->
<svg version="1.1" id="Layer_1" xmlns="http://www.w3.org/2000/svg" xmlns:xlink="http://www.w3.org/1999/xlink" x="0px" y="0px"
	 viewBox="0 0 1417.3 1417.3" style="enable-background:new 0 0 1417.3 1417.3;" xml:space="preserve">
<g>
	<path d="M1382.8-0.2H36.4c-29.2,0-52.9,23.7-52.9,52.9v1311.5c0,29.2,23.7,52.9,52.9,52.9h1346.5c29.2,0,52.9-23.7,52.9-52.9V52.7
		C1435.7,23.5,1412-0.2,1382.8-0.2z M1415.6,1364.2c0,18.1-14.7,32.8-32.8,32.8H36.4c-18.1,0-32.8-14.7-32.8-32.8V52.7
		c0-18.1,14.7-32.8,32.8-32.8h1346.5c18.1,0,32.8,14.7,32.8,32.8V1364.2z"/>
	<path d="M1327.1,242c-0.3-15.7-13.2-28.4-28.9-28.4H121c-15.7,0-28.7,12.8-28.9,28.4l-15.9,955.4c-0.1,6.2,2.2,12.1,6.6,16.5
		c4.4,4.4,19.3,13.3,22.5,13.3h1208.5c3.2,0,18.2-8.9,22.5-13.3c4.4-4.4,6.7-10.3,6.6-16.5L1327.1,242L1327.1,242z M1331.3,1197.7
		c0,3-1.1,5.9-3.2,8.1c-2.1,2.2-5,3.4-8,3.4H99.2c-3,0-5.9-1.2-8-3.4c-2.1-2.2-3.3-5-3.2-8.1l15.9-955.4c0.2-9.3,7.9-16.9,17.2-16.9
		h1177.2c9.3,0,17.1,7.6,17.2,16.9L1331.3,1197.7z"/>
	<path d="M796.1,1041.9H623.1c-11.9,0-21.5,9.6-21.5,21.5c0,11.9,9.6,21.5,21.5,21.5h173.1c11.9,0,21.5-9.6,21.5-21.5
		C817.7,1051.5,808,1041.9,796.1,1041.9z"/>
</g>
</svg>
