<?xml version="1.0" standalone="no"?>
<!DOCTYPE svg PUBLIC "-//W3C//DTD SVG 20010904//EN"
 "http://www.w3.org/TR/2001/REC-SVG-20010904/DTD/svg10.dtd">
<svg version="1.0" xmlns="http://www.w3.org/2000/svg"
 width="504.000000pt" height="160.000000pt" viewBox="0 0 504.000000 160.000000"
 preserveAspectRatio="xMidYMid meet">

<g transform="translate(0.000000,160.000000) scale(0.100000,-0.100000)"
fill="#000000" stroke="none">
<path d="M1112 1578 c-17 -17 -15 -25 18 -66 41 -52 79 -140 91 -211 18 -112
-21 -254 -90 -333 -17 -20 -31 -40 -31 -45 0 -16 38 -45 49 -38 23 13 94 130
114 184 25 69 33 198 18 272 -15 71 -60 165 -101 212 -34 39 -49 44 -68 25z"/>
<path d="M1013 1469 l-21 -22 33 -49 c74 -106 66 -254 -18 -346 l-21 -22 23
-23 22 -22 33 36 c53 57 79 138 74 234 -5 87 -26 144 -75 203 l-28 33 -22 -22z"/>
<path d="M895 1350 c-18 -20 -18 -22 -2 -49 22 -37 22 -91 0 -131 -17 -30 -17
-32 2 -46 27 -20 37 -14 63 36 28 54 25 122 -8 176 -25 40 -31 41 -55 14z"/>
<path d="M80 950 l0 -380 245 0 245 0 0 -160 0 -160 -245 0 -245 0 0 -95 0
-95 345 0 345 0 0 355 0 355 -247 2 -248 3 0 180 0 180 248 3 247 2 0 95 0 95
-345 0 -345 0 0 -380z"/>
<path d="M960 410 l0 -350 345 0 345 0 0 350 0 350 -345 0 -345 0 0 -350z
m498 2 l3 -153 -153 3 -153 3 -3 140 c-1 76 0 145 2 152 4 11 38 13 153 11
l148 -3 3 -153z"/>
<path d="M1800 410 l0 -351 93 3 92 3 3 248 2 247 155 0 155 0 2 -247 3 -248
93 -3 92 -3 0 351 0 350 -345 0 -345 0 0 -350z"/>
<path d="M2632 413 l3 -348 345 0 345 0 3 348 2 347 -350 0 -350 0 2 -347z
m498 -3 l0 -150 -150 0 -150 0 0 150 0 150 150 0 150 0 0 -150z"/>
<path d="M3470 410 l0 -350 95 0 95 0 0 110 0 110 248 2 247 3 3 103 3 102
-251 0 -250 0 0 40 0 40 250 0 250 0 0 95 0 95 -345 0 -345 0 0 -350z"/>
<path d="M4300 410 l0 -350 95 0 95 0 0 110 0 110 250 0 250 0 0 105 0 105
-250 0 -250 0 0 40 0 40 253 2 252 3 3 93 3 92 -351 0 -350 0 0 -350z"/>
</g>
</svg>
