<?xml version="1.0" encoding="utf-8"?>
<!-- Generator: Adobe Illustrator 21.0.0, SVG Export Plug-In . SVG Version: 6.00 Build 0)  -->
<svg version="1.1" id="Layer_1" xmlns="http://www.w3.org/2000/svg" xmlns:xlink="http://www.w3.org/1999/xlink" x="0px" y="0px"
	 viewBox="0 0 413.1 169.2" style="enable-background:new 0 0 413.1 169.2;" xml:space="preserve">
<g>
	<path d="M132.8,118.9c-20,0-39.2,0-58.9,0c0-19.8,0-39.1,0-59c19.8,0,39.1,0,58.9,0C132.8,79.6,132.8,98.9,132.8,118.9z M91,77.7
		c0,8.4,0,16.1,0,23.9c8.6,0,16.5,0,24.7,0c0-8.3,0-15.9,0-23.9C107.2,77.7,99.3,77.7,91,77.7z"/>
	<g>
		<path d="M91.1,49.3c-0.5,0-1-0.2-1.4-0.6c-0.6-0.7-0.5-1.8,0.2-2.5c5.8-4.7,8.6-11.4,8.6-20.2v-0.2c0-8.9-2.8-15.5-8.6-20.2
			C89.2,5,89,3.9,89.7,3.1s1.7-0.9,2.5-0.2c6.6,5.4,9.8,13,9.8,22.9V26c0,10-3.2,17.5-9.8,22.9C91.9,49.2,91.5,49.3,91.1,49.3z"/>
	</g>
	<g>
		<path d="M83,43.3c-0.5,0-1-0.2-1.4-0.6c-0.6-0.7-0.5-1.8,0.2-2.5c4.1-3.3,6-8,6-14.3v-0.1c0-6.3-2-10.9-6-14.3
			c-0.7-0.6-0.9-1.7-0.2-2.5c0.6-0.7,1.7-0.9,2.5-0.2c4.9,4,7.3,9.6,7.3,17v0.1c0,7.4-2.4,12.9-7.3,17C83.8,43.2,83.4,43.3,83,43.3z
			"/>
	</g>
	<g>
		<path d="M74.6,37.2c-0.5,0-1-0.2-1.4-0.6c-0.6-0.7-0.5-1.8,0.2-2.5c2.3-1.9,3.4-4.5,3.4-8.1c0-3.7-1.1-6.3-3.4-8.2
			c-0.7-0.6-0.9-1.7-0.2-2.5c0.6-0.7,1.7-0.9,2.5-0.2c3.1,2.6,4.7,6.2,4.7,10.8c0,4.7-1.6,8.3-4.7,10.9C75.4,37,75,37.2,74.6,37.2z"
			/>
	</g>
	<polygon points="343.6,77.3 343.6,60.3 301.9,60.3 300.9,60.3 285.1,60.3 285.1,118.7 300.9,118.7 301.9,118.7 301.9,100.1 
		343.6,100.1 343.6,83 301.9,83 301.9,77.3 	"/>
	<polygon points="413.1,77.3 413.1,60.3 371.4,60.3 370.4,60.3 354.6,60.3 354.6,118.7 370.4,118.7 371.4,118.7 371.4,100.1 
		413.1,100.1 413.1,83 371.4,83 371.4,77.3 	"/>
	<path d="M272.6,60.3h-16.7h-25h-1h-15.8v58.4h15.8h1h25h16.7h0.1V60.3H272.6z M230.9,101.6V77.3h25v24.3
		C255.9,101.6,230.9,101.6,230.9,101.6z"/>
	<polygon points="202.5,60.3 185.9,60.3 160.8,60.3 159.9,60.3 144,60.3 144,118.7 160.8,118.7 160.8,77.3 185.9,77.3 185.9,118.7 
		202.7,118.7 202.7,60.3 	"/>
	<polygon points="42.5,35 59.5,35 59.5,17.7 43.5,17.7 42.5,17.7 17.1,17.7 0.2,17.7 0,17.7 0,59.8 0,59.8 0,77.1 17.1,77.1 
		42.4,77.1 42.4,101.7 17.1,101.7 0,101.7 0,119 16,119 17.1,119 42.4,119 59.4,119 59.5,119 59.5,77 59.5,77 59.5,59.7 42.5,59.7 
		17.1,59.7 17.1,35 	"/>
</g>
<g>
	<path d="M132.8,118.9c-20,0-39.2,0-58.9,0c0-19.8,0-39.1,0-59c19.8,0,39.1,0,58.9,0C132.8,79.6,132.8,98.9,132.8,118.9z M91,77.7
		c0,8.4,0,16.1,0,23.9c8.6,0,16.5,0,24.7,0c0-8.3,0-15.9,0-23.9C107.2,77.7,99.3,77.7,91,77.7z"/>
	<g>
		<path d="M91.1,49.3c-0.5,0-1-0.2-1.4-0.6c-0.6-0.7-0.5-1.8,0.2-2.5c5.8-4.7,8.6-11.4,8.6-20.2v-0.2c0-8.9-2.8-15.5-8.6-20.2
			C89.2,5,89,3.9,89.7,3.1s1.7-0.9,2.5-0.2c6.6,5.4,9.8,13,9.8,22.9V26c0,10-3.2,17.5-9.8,22.9C91.9,49.2,91.5,49.3,91.1,49.3z"/>
	</g>
	<g>
		<path d="M83,43.3c-0.5,0-1-0.2-1.4-0.6c-0.6-0.7-0.5-1.8,0.2-2.5c4.1-3.3,6-8,6-14.3v-0.1c0-6.3-2-10.9-6-14.3
			c-0.7-0.6-0.9-1.7-0.2-2.5c0.6-0.7,1.7-0.9,2.5-0.2c4.9,4,7.3,9.6,7.3,17v0.1c0,7.4-2.4,12.9-7.3,17C83.8,43.2,83.4,43.3,83,43.3z
			"/>
	</g>
	<g>
		<path d="M74.6,37.2c-0.5,0-1-0.2-1.4-0.6c-0.6-0.7-0.5-1.8,0.2-2.5c2.3-1.9,3.4-4.5,3.4-8.1c0-3.7-1.1-6.3-3.4-8.2
			c-0.7-0.6-0.9-1.7-0.2-2.5c0.6-0.7,1.7-0.9,2.5-0.2c3.1,2.6,4.7,6.2,4.7,10.8c0,4.7-1.6,8.3-4.7,10.9C75.4,37,75,37.2,74.6,37.2z"
			/>
	</g>
	<polygon points="343.6,77.3 343.6,60.3 301.9,60.3 300.9,60.3 285.1,60.3 285.1,118.7 300.9,118.7 301.9,118.7 301.9,100.1 
		343.6,100.1 343.6,83 301.9,83 301.9,77.3 	"/>
	<polygon points="413.1,77.3 413.1,60.3 371.4,60.3 370.4,60.3 354.6,60.3 354.6,118.7 370.4,118.7 371.4,118.7 371.4,100.1 
		413.1,100.1 413.1,83 371.4,83 371.4,77.3 	"/>
	<path d="M272.6,60.3h-16.7h-25h-1h-15.8v58.4h15.8h1h25h16.7h0.1V60.3H272.6z M230.9,101.6V77.3h25v24.3
		C255.9,101.6,230.9,101.6,230.9,101.6z"/>
	<polygon points="202.5,60.3 185.9,60.3 160.8,60.3 159.9,60.3 144,60.3 144,118.7 160.8,118.7 160.8,77.3 185.9,77.3 185.9,118.7 
		202.7,118.7 202.7,60.3 	"/>
	<polygon points="42.5,35 59.5,35 59.5,17.7 43.5,17.7 42.5,17.7 17.1,17.7 0.2,17.7 0,17.7 0,59.8 0,59.8 0,77.1 17.1,77.1 
		42.4,77.1 42.4,101.7 17.1,101.7 0,101.7 0,119 16,119 17.1,119 42.4,119 59.4,119 59.5,119 59.5,77 59.5,77 59.5,59.7 42.5,59.7 
		17.1,59.7 17.1,35 	"/>
</g>
<g>
	<path d="M0,169.2v-44.8h10.1v12.8h20.1v6.4H10.1v19.2h20.1v-6.4h10.1v12.8H0z"/>
	<path d="M57.1,143.6v-6.4h40.3v32H57.1V150h30.2v-6.4H57.1z M87.3,156.4H67.2v6.4h20.1V156.4z"/>
	<path d="M114.2,156.4v-19.2h40.3v6.4h-30.2v6.4h30.2v19.2h-40.3v-6.4h30.2v-6.4H114.2z"/>
	<path d="M201.6,169.2v-25.6h-20.1v25.6h-10.1v-32h70.5v32h-10.1v-25.6h-20.1v25.6H201.6z"/>
	<path d="M258.7,169.2v-32H299v32H258.7z M268.7,162.8h20.1v-19.2h-20.1V162.8z"/>
	<path d="M315.8,169.2v-44.8h10.1v12.8H346v6.4h-20.1v19.2H346v-6.4h10.1v12.8H315.8z"/>
	<path d="M372.9,143.6v-6.4h40.3v32h-40.3V150h30.2v-6.4H372.9z M403.1,156.4H383v6.4h20.1V156.4z"/>
</g>
</svg>
